<svg xmlns="http://www.w3.org/2000/svg" viewBox="0 0 436 121.06">
  <polygon points="142.57 36.95 134.84 67.88 151.01 67.88 142.57 36.95"></polygon>
  <path
    d="M47.1,24.6l14.1,55.3L75,24.6h15.2L67.9,97.8H54.5L32.7,24.6H47.1z M132.4,24.6h19.7l20.8,73.3h-14.8 l-4.9-18.3h-21.9c0,0-3.8,14.7-4.6,18c-4.4,0.3-15.1,0-15.1,0L132.4,24.6z M208.4,24.6h14.4v60.9h30.7v12.3h-45.1L208.4,24.6z M285.9,24.6L300,79.2l13.7-54.6h14.8l-22.2,73.3h-13l-22.2-73.3L285.9,24.6z M389.5,24.6v9.5h-19.7v10.6h18v9.5h-18v10.9h19.7 v9.5h-30.7v-50H389.5z M0,123.2h436V-1.1H0"
  ></path>
</svg>
