<svg xmlns="http://www.w3.org/2000/svg" xml:space="preserve" viewBox="0 0 75.833 32">
  <path
    fill-rule="evenodd"
    d="M37.072 14.253a1.5 1.5 0 0 0-.226.188c-.174.2-.262.45-.262.75 0 .126.024.375.074.75.025.123-.025.199-.149.225-.149.051-.399.062-.75.037l-.487-.037c-.024.299-.087.449-.188.449h-.9c-.124 0-.211.026-.26.076-.077.099-.15.174-.227.226-.174.174-.787 1.298-1.835 3.372-.252.475-.277.888-.076 1.239.15.274.35.449.601.523.5.075 1.35.075 2.548 0 .925-.099 1.638-.336 2.137-.711.349-.3 1.574-2.174 3.673-5.624.125-.226-.037-.712-.488-1.462h-3.185zm35.199-5.997c.075.025.225.037.45.037.149 0 .325-.075.524-.225h1.837l.188.336c.101.276.15.563.15.863 0 .325-.049.613-.15.863-.099.225-.188.337-.262.337h-1.65a2.568 2.568 0 0 0-.338-.112 1.091 1.091 0 0 0-.336-.038c-.15 0-.3.024-.45.076l-.225.075h-1.048l-.151-.112h-1.65l-.15-.15h-.788c-.05.176-.163.263-.336.263h-1.538c-.1 0-.2-.037-.3-.112l-.113-.075-10.832.262-.602.637h-.261l-.188-.225h-.262l-.15.225h-2.249l-.301 2.288c-.024.25-.188.425-.486.523l.261.263.6.075c.4.076.587.238.563.488-.151.824-.188 1.437-.114 1.837.051.249.064.824.039 1.724v1.949c.049.775.336 1.6.861 2.475.1.175-.075.35-.525.526-.45.174-.925.261-1.424.261-.424 0-.974-.1-1.649-.299l-.937-.263c-.026-1.1.036-2.112.187-3.037.051-.349.225-.962.526-1.836.199-.599.262-1.036.187-1.313-.05-.3-.138-.612-.261-.937a18.215 18.215 0 0 1-.301-.674c-.074-.2.112-.426.562-.677.225-.124.449-.237.675-.336-.9-.05-1.836-.1-2.813-.149-1.924-.051-3.01 0-3.26.149-.726.475-1.675 1.538-2.848 3.186-.275.35-1.075 1.55-2.399 3.6-.549.799-1.074 1.324-1.575 1.574-.374.176-1.086.299-2.137.375-.849.049-2.086.112-3.71.187-1.4.025-2.274.038-2.625.038-.249 0-.413-.075-.488-.225-.074-.15-.098-.412-.074-.787.05-1.075.188-1.849.412-2.325.1-.226.338-.662.712-1.312.376-.675.638-1.075.788-1.2.075-.099.325-.324.75-.674.375-.451.563-1 .563-1.65 0-.724-.313-1.149-.938-1.275-.273-.048-.974-.024-2.098.075-1.074.05-1.837.102-2.286.15-.75.051-1.174.175-1.274.375-.2.3-.55.539-1.051.712l-.075 1.351c.125 1.374.513 3.186 1.163 5.435 1 3.549 1.913 5.86 2.737 6.934.349.45.311.787-.113 1.013-.25.1-1.162.424-2.737.974-1.599.574-2.523.9-2.773.975-.3.075-.425-.376-.375-1.351a28.978 28.978 0 0 1-.86-1.836 46.674 46.674 0 0 1-1.65-5.36 48.067 48.067 0 0 1-.975-5.548l-.149-2.062c-.55-.199-.924-.213-1.126-.038l-1.686 1.351c-.074.074-.2 0-.375-.225-.175-.2-.287-.289-.337-.262-.6.224-1.5.737-2.699 1.537-1.375.975-2.137 1.724-2.288 2.249l-.265.896.413.451c.274.323.413.538.413.637 0 .324-.101.576-.301.75-.174.175-.425.262-.749.262H4.31c-.276 0-.55-.113-.824-.337-.325-.3-.575-.7-.75-1.2-.2-.649-.587-2.262-1.163-4.835-.574-2.699-.875-4.348-.898-4.949-.025-.625.012-1.074.112-1.349.075-.199.238-.437.488-.711.25-.275.649-.6 1.199-.975.601-.401 1.063-.6 1.386-.6l23.579-.487v-.264l.601-.45c.424-.3.725-.5.899-.599.274-.125.624-.188 1.05-.188l1.423.037v-1.91h-.562c.025.274-.163.411-.562.411-.226 0-.375-.062-.45-.187l-.075-.224h-1.312l-.188.187h-.449c-.226-.325-.337-.874-.337-1.649 0-.751.1-1.162.299-1.238h.337l.225.15 1.275-.037.074-.263c.075-.149.25-.225.524-.225.327 0 .487.15.487.451l.375-.039v-.636l.712-.113c.225 0 .488.025.788.076v.448l2.961-.411c2.049-.274 3.237-.412 3.56-.412h1.163l.524.412h.526V.833h.412v.151h.75v3.674l-.75.037v.151h-.375v-.227H39.47l.3.45h.487c.35.051.537.138.562.261l.15.713h1.237v-.15h.563v.15h1.275v-.15h.562v.15h1.274v-.15h.526v.15h1.311v-.15h.525v.15h1.312v-.15h.524v.15h1.012l2.662 1.312v.863l.675.374h11.621l.188-.112c.125-.125.224-.188.301-.188h1.386l.337.299h.674l.337-.188c.278-.024.764 0 1.463.076l.038-.148a.356.356 0 0 1 .3-.151h.937a.471.471 0 0 1 .262.076z"
    clip-rule="evenodd"
  />
</svg>
