<svg xmlns="http://www.w3.org/2000/svg" xml:space="preserve" viewBox="0 0 109.5 32">
  <path
    fill-rule="evenodd"
    d="m109.289 11.317.155.385c.077.18.116.348.116.503 0 .256-.154.617-.464 1.08l-.115.193H67.997v.695h3.01v2.624l.424.425c.231.18.347.488.347.925 0 .155-.025.257-.077.309-.052 0-.078.039-.078.116v.116c0 .309-.064.462-.192.462H55.609c-.129.078-.193.206-.193.387.051 0 .116.038.193.115l.27.271-.193.579h-1.543l-.193-.193c-.077-.128-.244-.515-.501-1.158-.257-.591-.283-1.08-.078-1.466 0-.309.155-.462.464-.462h.116c.644 0 1.042.09 1.197.27.36 0 .785-.103 1.273-.308l-7.487-.079c-.051 0-.372.091-.964.271-.514.128-1.105.297-1.774.501-.644.181-1.262.349-1.853.501-.541.129-.836.232-.888.31v2.701l-8.836.926v-2.778c-.463 0-.746.063-.849.192-.078.128-.284.296-.617.502-.31.308-.695.514-1.158.617-.515.18-1.107.232-1.775.154-.668-.051-1.428-.334-2.277-.849-.052 0-.104.025-.154.078h-.309c0 .333-.013.732-.038 1.196a10.797 10.797 0 0 1-.27 1.543 4.922 4.922 0 0 1-.463 1.467c-.154.411-.334.668-.54.771-.361.207-.966.271-1.815.193a21.904 21.904 0 0 1-2.701-.347 47.701 47.701 0 0 1-2.624-.425c-.796-.232-1.286-.398-1.466-.501-.18-.128-.541-.514-1.08-1.159a13.961 13.961 0 0 1-1.159-1.042c-.385-.334-.629-.514-.732-.54h-5.06c-.206 1.39-.334 2.212-.385 2.469-.026.206-.104.309-.232.309-.076.18-.231.271-.463.271-.206 0-.644-.091-1.313-.271H5.597c-.541-.026-.876-.026-1.003 0-.232 0-.491.038-.772.117a5.12 5.12 0 0 1-1.197.193 5.538 5.538 0 0 1-1.236.269c-.514.077-.822.143-.925.193H.193c-.077 0-.115-.039-.115-.116-.053-.101-.078-.32-.078-.655v-4.438c.128-1.184.193-2.328.193-3.435v-2.547c0-.205.258-.424.772-.654.463-.207 1.607-.285 3.435-.233h1.003l.077-.077.117-.077c.051 0 .114-.039.193-.117a4.94 4.94 0 0 0 .308-.231h9.185c.206.026.411.142.617.348.464.308.811.655 1.042 1.041h10.419c.078-.205.18-.527.309-.964.129-.386.193-.708.193-.964v-.231h.078c.283-.103.785-.193 1.504-.27.694-.025 1.107-.104 1.235-.232.128 0 .258-.026.386-.077.025-.077.103-.142.231-.193h3.242V9.85h-1.196c-.128 0-.451.052-.964.155-.515.077-1.133.153-1.853.231-.668.076-1.39.142-2.161.193-.722 0-1.351-.038-1.892-.117l-.077-.192v-.115a16.872 16.872 0 0 1-.116-1.66V7.303c0-.206.039-.347.116-.424l.077-.078h.192l.811-.077a58.781 58.781 0 0 0 1.853-.116c.72-.077 1.441-.115 2.161-.115.668 0 1.183.038 1.542.115h3.358c.591 0 1.145-.013 1.659-.039.464-.051.823-.076 1.081-.076v-.656c-.052-.026-.077-.09-.077-.193v-.617l3.203-.193h.039l.385 1.08c0 .052-.039.09-.115.116-.052.103-.142.154-.271.154v.193h5.596c.438-.103 1.054-.193 1.853-.271a74.634 74.634 0 0 0 2.508-.27 127.69 127.69 0 0 1 2.354-.193c.669-.026 1.092.026 1.273.155l.154.115.077 4.399h-.231c-4.682 0-7.19-.154-7.525-.463v.155c-.18-.104-.541-.167-1.081-.193a9.006 9.006 0 0 0-1.852.038v.888h63.673v.154c.055.13.119.271.196.426zm-77.413 6.367h-2.161c-.592 0-.887.27-.887.811 0 .644.295.965.887.965h2.161c.591 0 .888-.321.888-.965.001-.541-.296-.811-.888-.811zm-12.619 3.744c.36.747.926 1.158 1.698 1.235.643.18 1.403.078 2.277-.309.438-.232.913-.644 1.428-1.234.179-.334.308-.721.386-1.158.077-.515.026-.914-.155-1.197-.128-.488-.604-.811-1.427-.965-1.055-.206-1.904-.167-2.546.116-.438.231-.746.424-.927.579-.206.154-.399.411-.579.772-.412.669-.464 1.388-.155 2.161z"
    clip-rule="evenodd"
  />
</svg>
