<svg xmlns="http://www.w3.org/2000/svg" xml:space="preserve" viewBox="0 0 32 32">
  <g>
    <path
      d="M29.539 6.054c-.41-2.959-1.966-4.172-2.81-4.618-.548-.291-2.172-.733-3.613-.733-2.062 0-3.73.313-4.083.41-1.309.356-1.874.821-1.916 1.295-.05.555-.014.715-.014.715l.621.011c0-.846.252-.964.635-1.122.649-.269 1.388-.595 4.203-.675 2.973-.083 4.161.651 4.784 1.31 1.639 1.73 1.755 3.499 1.837 9.158.079 5.444-.408 6.684-.688 7.61-.309 1.026-.915 1.688-1.89 1.785-.368.037-.968.031-1.507.014V5.222a.951.951 0 0 0-.951-.951h-6.364v-.754a.208.208 0 0 0-.208-.208h-.398a.208.208 0 0 0-.208.208v.754H6.266a.951.951 0 0 0-.951.951v4.916h-.794a.477.477 0 0 0-.476.477v6.362c0 .264.213.476.476.476h.794v12.549c0 .525.426.951.951.951h17.881a.951.951 0 0 0 .951-.951v-8.049h1.15c1.361 0 1.93-.651 2.359-1.233.54-.733 1.021-2.519 1.13-4.396.201-3.453.057-8.422-.198-10.27zM19.112 26.789H8.804V14.578h10.308v12.211zm2.815-15.937H8.804V6.887h13.123v3.965z"
    />
    <path
      d="M11.804 17.155a.158.158 0 0 1-.158.158h-1.388a.158.158 0 0 1-.159-.158v-1.051c0-.088.071-.158.159-.158h1.388c.087 0 .158.07.158.158v1.051zM14.579 17.155a.158.158 0 0 1-.159.158h-1.388a.159.159 0 0 1-.159-.158v-1.051c0-.088.072-.158.159-.158h1.388c.087 0 .159.07.159.158v1.051zM17.354 17.155a.158.158 0 0 1-.158.158h-1.388a.158.158 0 0 1-.158-.158v-1.051c0-.088.07-.158.158-.158h1.388c.087 0 .158.07.158.158v1.051zM11.804 19.772a.158.158 0 0 1-.158.158h-1.388a.158.158 0 0 1-.159-.158v-1.051c0-.088.071-.158.159-.158h1.388c.087 0 .158.07.158.158v1.051zM14.579 19.772a.158.158 0 0 1-.159.158h-1.388a.159.159 0 0 1-.159-.158v-1.051c0-.088.072-.158.159-.158h1.388c.087 0 .159.07.159.158v1.051zM17.354 19.772a.158.158 0 0 1-.158.158h-1.388a.158.158 0 0 1-.158-.158v-1.051c0-.088.07-.158.158-.158h1.388c.087 0 .158.07.158.158v1.051zM11.804 22.388c0 .089-.071.16-.158.16h-1.388a.159.159 0 0 1-.159-.16v-1.049c0-.089.071-.16.159-.16h1.388c.087 0 .158.071.158.16v1.049zM14.579 22.388c0 .089-.071.16-.159.16h-1.388a.16.16 0 0 1-.159-.16v-1.049a.16.16 0 0 1 .159-.16h1.388a.16.16 0 0 1 .159.16v1.049zM17.354 22.388c0 .089-.071.16-.158.16h-1.388a.159.159 0 0 1-.158-.16v-1.049c0-.089.07-.16.158-.16h1.388c.087 0 .158.071.158.16v1.049zM11.804 25.006a.158.158 0 0 1-.158.158h-1.388a.159.159 0 0 1-.159-.158v-1.052c0-.087.071-.158.159-.158h1.388c.087 0 .158.071.158.158v1.052zM14.579 25.006a.159.159 0 0 1-.159.158h-1.388a.16.16 0 0 1-.159-.158v-1.052a.16.16 0 0 1 .159-.158h1.388a.16.16 0 0 1 .159.158v1.052zM17.354 25.006a.158.158 0 0 1-.158.158h-1.388a.158.158 0 0 1-.158-.158v-1.052c0-.087.07-.158.158-.158h1.388c.087 0 .158.071.158.158v1.052z"
    />
  </g>
</svg>
