<svg xmlns="http://www.w3.org/2000/svg" xml:space="preserve" viewBox="0 0 27.5 32">
  <path
    fill-rule="evenodd"
    d="M27.344 13.253v.827c0 .06-.02.108-.059.147a.893.893 0 0 1-.295.324 1 1 0 0 1-.414.207c-.178.059-.345.079-.501.059a1.521 1.521 0 0 1-.591-.266c-1.28-.846-2.452-1.477-3.514-1.889-1.063-.395-2.058-.64-2.983-.739-.846-.019-1.614.01-2.304.089-.649.099-1.249.188-1.801.267a5.852 5.852 0 0 1-1.152.118c-.374.019-.747.029-1.122.029h-.177a9.148 9.148 0 0 0-.649-.267 2.145 2.145 0 0 0-.532-.177 6.6 6.6 0 0 1-.442-.147c-.099.157-.188.305-.267.443a.888.888 0 0 1-.353.295c.078.138.246.404.5.797.257.354.502.689.739 1.003-.019.041-.019.07 0 .091 0 .058.04.087.119.087l.885.739c.216 0 .216.107 0 .325-.059.059-.097.088-.118.088a.656.656 0 0 1-.177-.088l-.443-.325c.178.532.307 1.072.384 1.624.059.552.138 1.171.236 1.86a11.313 11.313 0 0 0 1.595 3.927c.768 1.182 1.812 2.195 3.13 3.042.198.158.325.295.384.413.019.138.03.256.03.355v.177a.91.91 0 0 1-.089.413.602.602 0 0 1-.236.295c0 .099-.03.207-.089.325-.079.099-.246.147-.501.147-.158.178-.453.118-.886-.178l-.147-.088c-1.595-1.005-2.864-2.166-3.81-3.484a13.3 13.3 0 0 1-1.978-4.399 40.896 40.896 0 0 1-.178-1.684 8.897 8.897 0 0 1-.118-1.388 4.042 4.042 0 0 1-.177-.945c-.018-.335-.048-.57-.088-.708l-.325-.353-.591-.974a3.712 3.712 0 0 1-.472-.562 8.415 8.415 0 0 1-.325-.442c-.118-.118-.177-.197-.177-.236a6.956 6.956 0 0 0-.501-.206 7.716 7.716 0 0 0-.739-.326c-.314-.118-.659-.245-1.034-.383L.147 7.554 0 7.348c0-.079.05-.118.147-.118v-.148c0-.099.099-.147.295-.147L5.61 8.913c.079.059.118.128.118.206.02.08.031.157.031.236 0 .296.049.443.147.443.197.059.344.05.443-.028a.7.7 0 0 0 .177-.118v-.148l.561-.739c.079-.137.089-.246.03-.324a.7.7 0 0 0-.267-.06l-.176.059h-.296c-.119-.02-.177-.069-.177-.147L2.893 3.922v-.355h.443l4.4 3.072h.177c.316.432.591.816.827 1.152.217.295.413.571.591.826.216.237.344.374.384.413.098.039.296.099.591.178.274.098.57.187.885.266.335.099.649.178.945.236.275.06.433.089.472.089.197 0 .789-.05 1.772-.147.945-.1 2.224-.147 3.838-.147.945 0 1.723.029 2.332.088a7.333 7.333 0 0 1 1.802.473c.591.256 1.25.61 1.98 1.063.727.472 1.663 1.11 2.804 1.918.1.058.168.128.208.206zm-14.913.208 1.211.472c.098 0 .147.098.147.295-.078 0-.127.02-.147.06-.02.038-.07.02-.148-.06l-1.181-.295c-.098 0-.157-.03-.177-.089v-.177c0-.119.039-.178.117-.178a.585.585 0 0 1 .178-.028zm.177-.415c0-.077.02-.127.059-.146.02-.042.049-.061.088-.061l1.211.206c.079 0 .158.029.237.09.058.058.088.117.088.177 0 .079-.03.128-.088.148h-.237l-1.211-.148c-.097.001-.147-.087-.147-.266zm.62 1.95a.922.922 0 0 0-.265.029c-.04.039-.059.029-.059-.029l-1.064-.622c-.097 0-.147-.097-.147-.294.079 0 .128-.02.147-.059.021-.039.081-.021.177.059l1.005.561c.118 0 .188.04.206.118v.237z"
    clip-rule="evenodd"
  />
</svg>
