<svg xmlns="http://www.w3.org/2000/svg" xml:space="preserve" viewBox="0 0 25.458 32">
  <g fill-rule="evenodd" clip-rule="evenodd">
    <path
      fill-opacity=".302"
      d="m19.192 7.81 5.917.906-6.023 4.121 5.695 4.542-5.319.705 1.238 6.83-2.734-1.576.011-10.596-3.441-5.741h-4.232c-.385 0-.641.038-.77.116-.231.102-.347.32-.347.654 0 .513.308.808.924.885v1.539l-1.156 1h-.538c-.359 0-.54.179-.54.539l.38 2.323.641.945-.136 1.851h.423V18.7h-.422v.731l.045.533.067.449-5.995 2.61 2.458-6.787L0 13.574l5.76-2.34-4.113-6.218 7.263.999L10.259.39l3.69 5.175 6.03-2.97-.787 5.215zm-1.847 5.464v9.736l-3.002-1.854.135-.99.268-.741-.067-.608-.304-.169v-1.855l.472-.338-.27-1.519 1.161-.754-.082-2.013 1.689 1.105z"
    />
    <path
      d="m17.276 13.185-1.54-.886v1.81l-.923.847v1.808h-.384v1.848h.384v1.924h-.384v1.848h.384v1.924h-.384v1.848h.384v1.771l.923 1.578v1.308c0 .36-.18.539-.539.539h-6.85c-.359 0-.54-.179-.54-.539v-1.308l.885-1.578v-1.771h.424v-1.848h-.423v-1.924h.424v-1.848h-.424V18.61h.424v-1.848h-.424v-1.808l-.885-.847v-2.464c0-.359.181-.538.54-.538h.538l1.155-1.001v-1.54c-.616-.076-.923-.37-.923-.882 0-.333.115-.553.346-.655.128-.077.385-.115.77-.115h4.232l3.58 5.734v12.122l-1.809.886c-.257.128-.45.09-.577-.116-.129-.23-.078-.448.153-.653.206-.18.514-.386.923-.616l.54-.27V13.185z"
    />
  </g>
</svg>
