<svg xmlns="http://www.w3.org/2000/svg" xml:space="preserve" viewBox="0 0 26 32">
  <path
    d="M25.987 7.639c-.056-2.788-.781-4.516-1.505-5.63-.725-1.115-1.115-1.06-1.115-1.06S22.14.671 21.304.503c-.836-.167-2.397-.334-2.397-.334s-.558.111-.836.39c-.278.279-.446.502-.446.502s-.558-.056-1.003.279-1.059.892-1.059.892-1.021.035-1.84-.056C12.72 2.065 9.988.504 9.988.504s-.836.056-1.84.334l-2.007.557s-.724.446-1.171.78c-.446.335-.724.558-.724.558s-.279-.056-.725.39c-.446.446-3.568 4.46-3.512 7.359.056 2.898 1.338 6.355 1.45 6.913.111.557.278 1.449.278 1.449s-.725.279-.725.502c0 .223 0 2.787.279 3.01s.334.111.558 0l.223-.111v1.951s-.669.39-.725.725.167 3.122.167 3.289c0 .167.446-.279.446-.279l.334-.223v1.729c0 .223-.39.278-.334.613.056.334-.167 1.449 8.028 1.672 8.195.223 8.808.056 9.477-.056.669-.111.948-.613.948-1.059 0-.446.111-1.115.111-1.115s.279-.167.725-.167h.446s-.056.669 0 1.06c.056.39.39.836.892.557.502-.279.781-.669.725-.892l-.056-.223-.167-.781s.279.056.279-.501-.112-1.617-.056-2.174a22.4 22.4 0 0 1 .223-1.449l-.335-.113s0-.613.111-1.004l.112-.39.334-.167s.334-1.282.446-2.174c.112-.892.334-1.338.334-1.338l-.613-.279s-.056-.613.279-.836c.334-.223.558-.39.725-.613.167-.223 0-.613-.056-.836s-.111-1.172.279-3.067c.39-1.895.892-3.679.836-6.466zM7.981 7.193c-1.561.223-1.617-.502-1.617-1.06 0-.557.167-1.784.501-2.118s1.059-.892 1.059-.892.669.669 1.115 1.45c.446.78.669 1.951.669 1.951s-.166.446-1.727.669zm4.236-1.951c-.78.613-1.839 1.115-1.839 1.115s-.446-1.283-.836-2.063c-.39-.781-1.059-1.505-1.059-1.505s.223-.279.557-.614.78-.948.78-.948.558.334 2.063 1.115c1.505.78 3.122.613 3.122.613s-2.007 1.673-2.788 2.287zm9.979 19.678c-.167.613-.056.334-.446.446-.391.112-1.06.167-1.06.167l.056-2.397s.557-.056 1.003-.056c.446 0 1.115.056 1.115.056s-.5 1.171-.668 1.784zm2.286-11.707c-.39 1.394-.334 2.174-.446 2.899-.112.725.167 1.282.167 1.282s-.39.557-.725.78-.278 1.227-.278 1.227h-1.059c-.446 0-1.45-.056-1.45-.056s.167-.781-.056-1.505c-.223-.725-1.561-1.951-2.229-2.843-.669-.892-.502-2.731-.391-5.073.112-2.341 1.394-5.185 1.84-6.132.446-.948 1.672-1.728 2.62-2.118 0 0 .836.056 1.338.725s1.449 3.624 1.394 5.296-.335 4.125-.725 5.518z"
  />
</svg>
