<svg xmlns="http://www.w3.org/2000/svg" xml:space="preserve" viewBox="0 0 76.833 32">
  <path
    fill-rule="evenodd"
    d="M50.586 12.472h10.991l6.16.589c4.397.66 7.338 1.632 8.824 2.91-1.672 1.466-4.468 2.478-8.392 3.034-1.648.227-3.765.37-6.345.432H50.586c-.062-.432-.176-.647-.34-.647-.166 0-.279.216-.342.647h-.062c-.063-.432-.176-.647-.339-.647-.167 0-.278.216-.34.647h-.311c-.165-.432-.402-.647-.714-.647-.311 0-.545.216-.712.647h-.306c-.063-.432-.177-.647-.341-.647-.166 0-.28.216-.342.647h-.062c-.062-.432-.176-.647-.342-.647-.164 0-.278.216-.34.647h-.311c-.123-.432-.36-.647-.71-.647-.311 0-.549.216-.713.647h-.278c-.104-.432-.228-.647-.37-.647-.166 0-.279.216-.341.647h-.03c-.064-.432-.176-.647-.34-.647-.146 0-.27.216-.372.647h-.311c-.124-.432-.353-.647-.681-.647-.351 0-.589.216-.713.647h-.308c-.063-.432-.176-.647-.343-.647-.165 0-.279.216-.341.647h-.062c-.062-.432-.176-.647-.34-.647-.165 0-.278.216-.341.647H36.16c-.311-.185-.557-.256-.744-.214-.39.164-.671.274-.836.341l-.557.061v.435l-1.641 4.735-1.858-.527c.311-.433.495-.949.558-1.546.125-1.157-.423-2.076-1.642-2.757-2.289-.29-4.066-.257-5.324.095-.517.165-3.313.213-8.391.152-5.305-.062-8.183-.275-8.639-.647-.329-.084-.599-.074-.805.03l-.245.186c-1.302 1.155-2.094 1.732-2.385 1.732-1.322 0-2.197-.577-2.634-1.732-.308-.783-.495-1.756-.557-2.911H.4c-.268 0-.402-.237-.402-.714 0-.475.135-.712.402-.712h.062c.062-1.277.311-2.144.745-2.598.516-.558.938-.909 1.269-1.055.268-.123.682-.174 1.239-.154.432.021.835.114 1.206.278.042.021.38.229 1.021.618.125.023 1.652-.122 4.584-.433 2.991-.31 5.405-.41 7.244-.31 6.19.29 9.783.414 10.773.37 1.506-.309 2.569-.804 3.188-1.482.599-.663 1.063-1.818 1.394-3.471l1.704.373.092 1.023-.773 2.257-.093 1.55.558.249c.393.143.65.215.774.215.204 0 .516-.134.926-.402h2.479c.082.434.195.651.341.651.164 0 .278-.218.34-.651h.062c.085.434.196.651.341.651.124 0 .238-.218.343-.651h.308c.186.434.424.651.713.651.267 0 .494-.218.681-.651h.341c.08.434.195.651.342.651.123 0 .234-.218.34-.651h.031c.101.434.216.651.341.651.162 0 .276-.218.338-.651h.342c.185.434.413.651.682.651.288 0 .525-.218.71-.651h.311c.104.434.217.651.34.651.166 0 .28-.218.342-.651h.062c.084.434.195.651.342.651.164 0 .278-.218.341-.651h.338c.148.434.371.651.682.651.312 0 .538-.218.683-.651h.342c.08.434.195.651.34.651.163 0 .276-.218.339-.651h.062c.083.434.198.651.342.651.117 0 .229-.218.332-.651z"
    clip-rule="evenodd"
  />
</svg>
