<svg xmlns="http://www.w3.org/2000/svg" xml:space="preserve" viewBox="0 0 96.5 32">
  <path
    fill-rule="evenodd"
    d="M96.477 9.111v3.665l-.116.193-17.674-.038-.039-.695.348-.038.039-.271-5.672-.076v-.155l-2.354.039-.463.153-4.09-.038.81.155v.695l-.193.232-.887-.039v.309h-.657v-1.158h.155v-.156l-2.509-.076-.077.232-.078.578a.438.438 0 0 1-.077.116.263.263 0 0 1-.193.077 1.84 1.84 0 0 1-.193-.115l-.154-.078.038-.541-.077-.231h-.501l-.04.849a.231.231 0 0 1-.153.154l-.155.116h-.27l-.231.502-14.24.115-.27-.153-.348-.078-.733.27-.077-.965-.696.04.038.617-.038.078a.476.476 0 0 1-.116.192 1.205 1.205 0 0 1-.232.078l-.116.039c-.025-.026-.065-.039-.116-.039-.103 0-.179.051-.232.155l-.154.231-.077.154v3.28l.23.078.039.27-.502.193v1.196c.052.927.168 1.788.348 2.585.181.798.463 1.802.849 3.011.181.618.348 1.145.502 1.581l.153.194-5.826 1.621h-.154v-.155c-.18-.617-.386-1.299-.618-2.045-.438-1.543-.733-2.688-.888-3.434a16.877 16.877 0 0 1-.309-2.315l-.077-1.003-.425.077-.54-.077h-3.627l-1.196.115h-.192c-.181 0-.323.038-.425.116l-.232.232-.848 1.621.423.502-.115.076a4.49 4.49 0 0 0-.542.231.765.765 0 0 0-.269.232l-.078.116-1.66 3.242a.439.439 0 0 0-.038.308c.025.077.09.18.193.308.051.051.102.09.154.117l-.154.346-5.441-1.273 4.901-8.49c.051-.103.089-.218.116-.348.103-.231.129-.462.077-.694a2.937 2.937 0 0 0-.27-.693 2.429 2.429 0 0 0-.424-.463 1.986 1.986 0 0 0-.463-.232l-1.235-.039v.155l-.348.038-.038-2.123-.965-.038-.039-.348h-3.897l-.926.695-3.667.078v.348l-3.203.039.039 2.006H9.763v.811h-1.08v-.771l-3.628 2.277v-1.853L.463 17.99l-.038.771-.039.116c-.052.103-.117.154-.193.154s-.128-.051-.154-.154L0 18.758.078 8.494h4.09a.229.229 0 0 1 .154.154c.051.103.09.283.117.54l10.535.117c.052.026.09.051.115.076a.264.264 0 0 1 .077.192l8.529.04-.039-.348h1.003v-.27l.347-.038.039.269 1.002-.038v-.463h1.004l.078.078 2.585-4.13.115-.153c.104-.129.206-.206.31-.231a.864.864 0 0 1 .385-.155h.232l12.851 1.389.385.077c.309.103.527.232.656.386a5 5 0 0 1 .385.656c.052.128.104.244.154.348l-.076 2.508.27-.039.038-1.12.811.155v-.271l.27-.039v-.076a.482.482 0 0 1 .077-.117c.051-.026.117-.051.193-.077l14.279.231.155.31v.385l.386.04.077.038c.077.051.115.103.115.154.025.103.052.412.078.926h.501l.039-1.504 2.354-3.319.231-.193c.154-.129.309-.18.463-.154.386.051.669.192.849.424a.37.37 0 0 1 .115.27c0 .051-.013.09-.038.116l.038 4.36h4.092l.54.193 2.316-.038v-.155h5.672V8.957H96.32l.157.154zm-30.911-1.39a.666.666 0 0 1-.192-.193 19.004 19.004 0 0 1-.155-.501l-.039-.386-.888-.077-1.389 2.16.194.155h2.624l.192-.232v-.926h-.347zm-2.431 2.277h2.469l.116-.385h-2.585v.385zm-19.45-3.859H32.61a1.318 1.318 0 0 0-.425.193 2.206 2.206 0 0 0-.347.347l-.155.193-.617 1.506.231.231 12.311-.078.153-.038a.872.872 0 0 0 .309-.155c.309-.206.463-.541.463-1.004 0-.386-.142-.694-.425-.925a1.973 1.973 0 0 0-.308-.193l-.115-.077zm-39.98 7.256-.155-.039H.695l-.154.039c-.078.077-.116.154-.116.231s.051.141.154.193a.43.43 0 0 0 .116.077H3.59a.25.25 0 0 0 .116-.116c.077-.077.116-.141.116-.193-.001-.077-.04-.14-.117-.192zM.425 8.84v.425h3.666c0-.077-.013-.167-.039-.27 0-.077-.039-.128-.116-.155l-.154-.038-3.357.038zm35.465 7.371a1.491 1.491 0 0 0-.309-.115h-1.466a2.15 2.15 0 0 0-.348.346c-.206.335-.321.643-.348.926-.025.283.066.566.271.849.103.129.218.233.348.309l-.155.116a2.067 2.067 0 0 1-.502-.386c-.333-.309-.514-.643-.54-1.003-.025-.231.026-.501.155-.811l.154-.346a1.546 1.546 0 0 0-.657.23c-.462.309-.667.759-.616 1.351.026.335.193.644.501.927.154.154.309.27.463.348h3.473v-.463a1.05 1.05 0 0 0 .309-.463c.128-.361.103-.759-.078-1.196-.128-.258-.346-.464-.655-.619z"
    clip-rule="evenodd"
  />
</svg>
