<svg xmlns="http://www.w3.org/2000/svg" xml:space="preserve" viewBox="0 0 67.5 32">
  <path
    fill-rule="evenodd"
    d="M2.081 4.085h.115v-.038h15.076c.334-.024.656-.038.965-.038l.075-.077h.193c.051 0 .103.013.155.039.026.024.051.052.077.076H54.48c.05 0 .101.013.152.039l.078.077.076.078c.026.025.04.052.04.077.025.025.039.05.039.077.024 0 .039.013.039.038h.385V5.359l.039.038v.153a.117.117 0 0 0-.039.078V5.974h-.154v.078h.115c.052 0 .103.012.154.039l.038.04.077-.078h.618c.026 0 .051.012.077.039v-.039c.052 0 .102.012.154.039l.077.077c0 .025.013.052.039.077 0 .025.013.051.038.078V7.016h9.91c.05 0 .103.013.153.04.025.025.053.05.078.077.025 0 .064.012.115.037l.078.078c0 .025.012.052.039.077 0 .025.014.052.039.077V9.06c-.025.025-.039.051-.039.077 0 .025.014.051.039.077v.039l-.077.078V9.446l-.078.077V9.6l-.039.038c-.026.025-.052.039-.077.039a.281.281 0 0 0-.115.039h-4.782V10.139h-.038v.04c-.025 0-.052.013-.078.039v.077l-.078.077h-.038a.287.287 0 0 0-.115.038.357.357 0 0 0-.155-.038.295.295 0 0 0-.116.038h-4.241c-.027.025-.052.039-.078.039a.301.301 0 0 0-.116.039h-.077l-.077.078.039.039c0 .025.012.052.038.077v.077c-.025.025-.051.038-.077.038v.078c-.026.025-.039.052-.039.077h-.077c-.025.025-.064.039-.116.039h-.347v.116h-1.35V11.879a1.464 1.464 0 0 1-.346.039v.039c0 .025-.013.051-.04.077 0 .025-.013.05-.038.077 0 .025-.013.038-.038.038 0 .025-.014.051-.04.077v.077a5.774 5.774 0 0 1-.078.077v.077l-.076.077v.077c-.026.025-.039.052-.039.077l-.039.039c-.025.025-.039.052-.039.077-.026.026-.039.052-.039.077-.025.026-.039.052-.039.077l-.077.077c0 .026-.014.052-.04.078v.039c0 .025-.012.051-.038.076a.745.745 0 0 0-.039.04c-.013.016-.027.027-.038.039-.026.026-.039.052-.039.077-.026.024-.039.049-.039.077 0 .025-.013.037-.038.037l-.078.078c-.025.025-.038.051-.038.077l-.078.077a2.85 2.85 0 0 1-.078.077l-.076.077a.255.255 0 0 0-.097.02.09.09 0 0 0-.019.057 2.795 2.795 0 0 0-.077.077h-.03a.162.162 0 0 1-.059.019l-.019.02a.109.109 0 0 0-.038.077c0 .026-.013.052-.04.077 0 .026-.013.039-.038.039l-.077.077-.231.079c-.076.024-.142.05-.193.076v.039l-.038.04h-.462c0 .025-.014.039-.039.039a.35.35 0 0 1-.155.038h-1.542a.35.35 0 0 0-.154-.038c-.026-.026-.04-.052-.04-.078h-.386c-.024-.025-.063-.039-.115-.039l-.039-.039h-.078a.65.65 0 0 0-.191-.037l-.078-.079c0-.025-.013-.052-.039-.077h-.038a.352.352 0 0 0-.155-.039l-.076-.077c0-.025-.012-.052-.039-.077a.456.456 0 0 0-.115-.078v-.038c-1.414 0-2.814.013-4.204.038-.025 0-.037.013-.037.04h-.04a.341.341 0 0 1-.154.039h-.462l-.04.039c-.05 0-.09.013-.115.039a.34.34 0 0 0-.155.039c-.025.025-.038.052-.038.077l-.155.077a.438.438 0 0 1-.115.079c-.026.024-.053.037-.078.037 0 .025-.013.052-.038.077 0 .026-.013.052-.038.078h-.039a.656.656 0 0 1-.193.038.446.446 0 0 1-.116.078l-.077.077c-.026.024-.05.05-.077.076v.077c-.025.025-.038.052-.038.077a7.327 7.327 0 0 0-.154.078.414.414 0 0 1-.117.076c-.025.028-.051.04-.076.04 0 .025-.013.05-.04.077-.024.027-.05.051-.076.076v.078l-.077.077c-.026.025-.039.052-.039.078l-.078.076a.109.109 0 0 1-.038.077v.039c-.026.025-.04.052-.04.077-.025.025-.039.051-.039.078a2.723 2.723 0 0 0-.076.076v.077a.115.115 0 0 0-.038.079c0 .025-.013.05-.04.077 0 .024-.013.051-.039.076 0 .026-.012.039-.039.039-.025.026-.039.052-.039.078-.025.025-.038.051-.038.077 0 .025-.013.05-.039.077v.077c-.025.025-.039.051-.039.077a.422.422 0 0 0-.115.076c-.025.026-.038.053-.038.078a.16.16 0 0 1-.115.039c0 .025-.014.052-.04.077l-.077.077c0 .025-.013.038-.038.038l-.039.04c-.052 0-.09.013-.116.039a.337.337 0 0 0-.153.039l-.039.039a.352.352 0 0 1-.155.039h-.269l-.039.039a.162.162 0 0 0-.116.039h-.347a.165.165 0 0 0-.116-.039l-.039-.039h-.076a.669.669 0 0 0-.193-.039c0-.026-.013-.052-.04-.077h-.116a7.309 7.309 0 0 1-.153-.078c-.025 0-.051-.012-.078-.038l-.057-.057a3.29 3.29 0 0 0-.251-.02l-.077-.077c-.025 0-.038-.013-.038-.039-.026-.025-.039-.052-.039-.078 0-.025-.013-.051-.039-.076a2.795 2.795 0 0 0-.077-.077v-.077c-.026-.027-.038-.052-.038-.077 0-.026-.013-.052-.039-.077v-.193c0-.026-.013-.052-.039-.077a5.812 5.812 0 0 1-.077-.079v-.386a.109.109 0 0 1-.038-.076V15.008c0-.024-.013-.051-.04-.076v-.078c-.025 0-.038-.013-.038-.037v-.077c-1.954 0-3.921.012-5.9.039 0 .025-.013.039-.038.039a.367.367 0 0 1-.155.037h-.193v.078c0 .025-.014.052-.039.076v.078c-.025.025-.051.052-.078.077a.27.27 0 0 1-.038.037l-.039.021v.019l-.077.077c-.026.027-.04.051-.04.076a.293.293 0 0 1-.113.04c0 .025-.013.052-.039.077 0 .026-.013.052-.039.077v.077a5.482 5.482 0 0 1-.077.076.382.382 0 0 1-.116.078c0 .025-.013.052-.038.077a1.933 1.933 0 0 0-.079.078c-.024.025-.051.039-.076.039a.107.107 0 0 0-.038.076c-.026.025-.052.05-.078.078l-.077.076v.077c-.025.025-.051.053-.077.077l-.078.078c-.025.025-.039.051-.039.077a.3.3 0 0 1-.115.039c0 .025-.013.05-.038.076a2.868 2.868 0 0 1-.078.078l-.078.077-.076.077-.077.077a.484.484 0 0 1-.116.077.492.492 0 0 0-.117.077.109.109 0 0 1-.076.038c0 .026-.013.053-.038.078-.027.025-.04.051-.04.077h-.039a.347.347 0 0 1-.153.039c-.026.025-.039.053-.039.077-.025.026-.038.052-.038.078l-.04.037c-.025.025-.051.039-.076.039a.293.293 0 0 0-.117.04.29.29 0 0 0-.114-.04c-.026 0-.039.013-.039.04-.026.025-.039.051-.039.076h-.077c-.026.026-.065.039-.117.039h-5.282a.355.355 0 0 0-.155-.039l-.077-.076c0-.026-.013-.053-.039-.078v-.154l.019-.039h-.135v.077c-.025 0-.039.013-.039.04v.076c-.026 0-.039.013-.039.039 0 .028-.013.052-.039.078v.038c-.026.026-.039.052-.039.077-.025 0-.051.013-.078.041v.191c-.025 0-.051.013-.076.039v.233c0 .026-.013.051-.039.077v.039c-.025.025-.038.05-.038.078v.037c-.026.025-.04.052-.04.076-.025 0-.038.013-.038.039-.025.026-.039.053-.039.078-.026 0-.039.013-.039.039v.193c-.026 0-.052.013-.078.039-.024.025-.037.051-.037.078-.026 0-.04.012-.04.038v.098a.109.109 0 0 0-.038.077c-.027 0-.052.013-.077.04 0 .025-.013.05-.038.077V19.51c-.025 0-.039.012-.039.039v.077c-.026 0-.039.012-.039.039a.109.109 0 0 1-.038.077v.037c-.026.028-.039.053-.039.078-.025 0-.05.012-.077.038v.077c-.025 0-.039.013-.039.039v.078c-.025 0-.038.013-.038.04-.027.025-.04.049-.04.076-.025 0-.037.013-.037.038V20.359c-.025.025-.039.052-.039.076-.026 0-.051.013-.077.039 0 .027-.013.053-.039.079v.038c-.026.025-.039.05-.039.077-.026 0-.039.014-.039.039v.078c-.025 0-.039.012-.039.038 0 .024-.013.05-.038.077a.11.11 0 0 0-.038.078c-.027 0-.039.013-.039.039-.027.025-.04.052-.04.076-.025 0-.038.014-.038.04-.026.025-.038.05-.038.077-.026 0-.052.013-.078.039-.025.024-.039.051-.039.077-.025 0-.038.012-.038.039v.077c-.025 0-.039.012-.039.038s-.013.052-.039.078l-.039.037c0 .026-.013.052-.038.077v.04c-.026.025-.039.052-.039.077-.026 0-.039.012-.039.039v.039l-.039.078c-.026 0-.039.012-.039.038v.077h-.019l-.02.039v.077a.052.052 0 0 0-.039.02c-.015.002-.029.007-.038.019v.077l-.039.04-.04.076c-.025 0-.051.013-.077.04-.026.025-.039.05-.039.076-.026 0-.051.013-.077.039-.026.026-.039.052-.039.078-.026 0-.051.012-.077.038v.077h.27v.078c-.026 0-.051.012-.078.037v.077l-.039.04c0 .025-.012.051-.038.076V23.297c-.026 0-.052.013-.078.039v.078l-.039.037c0 .025-.013.052-.038.077v.425c0 .013-.007.026-.018.039a.126.126 0 0 0-.059.04c-.025.025-.04.051-.04.076-.025 0-.038.012-.038.039V24.379c-.026 0-.052.013-.078.039v.076l-.037.039c0 .026-.014.052-.039.078v.039c-.026.025-.039.05-.039.077-.026 0-.039.013-.039.039v.038a.302.302 0 0 1-.116.038.29.29 0 0 0-.114.04h-.118a.289.289 0 0 0-.116.039h-.057a.546.546 0 0 0-.097.039c-.025 0-.039.013-.039.039-.025.024-.039.051-.039.078-.025 0-.052.012-.077.039 0 .025-.014.052-.039.076V25.308c-.026 0-.051.012-.077.038a5.7 5.7 0 0 1-.078.077v.039c-.026.026-.039.052-.039.077-.025 0-.039.013-.039.039v.309c-.025 0-.05.013-.076.039v.309l-.039.038c0 .026-.012.053-.04.078v.155c-.025.026-.039.052-.039.078a.408.408 0 0 1 .117.076c.026 0 .051.013.076.039v.154l-.076.077c-.026.026-.065.04-.117.04h-.153c-.025.024-.04.051-.04.076-.025 0-.051.015-.076.039 0 .026-.013.052-.039.078l-.039.038a.115.115 0 0 1-.038.078l-.039.039c0 .024-.014.052-.04.077v.037c-.024.027-.038.052-.038.078-.026 0-.039.012-.039.038h-.348v.271l.078.076.039.04v.039c.026.027.039.052.039.077v.077c-.025.025-.039.051-.039.076-.021 0-.034.007-.039.021v.02c-.024.025-.037.049-.037.077h-.041a.341.341 0 0 1-.153.037c-2.492 0-4.974.014-7.441.039H9.72a.294.294 0 0 0-.117.039.351.351 0 0 0-.154-.039.355.355 0 0 0-.155-.039h-.153a.353.353 0 0 0-.156-.037c-.024-.028-.051-.052-.076-.077l-.078-.078a2.741 2.741 0 0 0-.076-.077c-.026-.026-.051-.052-.078-.077 0-.025-.012-.052-.039-.077l-.076-.077c-.027-.025-.052-.039-.078-.039a2.796 2.796 0 0 0-.155-.154c-.025-.026-.038-.052-.038-.077v-.348c.025-.025.05-.051.078-.076l.076-.078h.193c.052 0 .103.013.155.039.025.025.05.052.077.077 0 .025.014.053.039.078V27.049a2.796 2.796 0 0 0-.078-.076c0-.026-.013-.052-.038-.078 0-.024-.013-.039-.039-.039v-.077c.026-.025.039-.052.039-.077l.077-.077h.039v-.194c0-.024.013-.038.039-.038 0-.025.013-.052.037-.078a.071.071 0 0 1 .04-.019.047.047 0 0 1 .039-.02l.078-.076c.025-.025.05-.039.076-.039v-.078c.026-.024.051-.037.077-.037 0-.025.014-.053.039-.077l.038-.04v-.076c.025-.025.053-.039.078-.039v-.078c0-.024.013-.037.038-.037 0-.027.013-.052.039-.077V25.389c.025-.025.051-.039.077-.039v-.077c0-.026.014-.04.039-.04 0-.024.013-.049.038-.076.026-.025.052-.038.079-.038v-.194c.025-.026.05-.039.076-.039v-.077c0-.026.013-.038.039-.038v-.077c0-.025.012-.039.039-.039 0-.026.014-.052.039-.078v-.039c.025-.025.038-.051.038-.076v-.039c.026-.025.039-.052.039-.078.026-.025.051-.037.077-.037 0-.027.013-.052.039-.077V24.114c0-.025.012-.038.039-.038v-.078c.026-.025.05-.039.076-.039.025-.025.039-.051.039-.077l.039-.039c0-.025.013-.051.038-.077V23.65c0-.025.014-.039.039-.039 0-.026.012-.052.039-.077v-.054c.025-.025.038-.05.038-.076l.039-.041c.025-.025.039-.05.039-.076 0-.026.013-.039.038-.039v-.078c0-.025.014-.039.039-.039 0-.025.013-.051.04-.077v-.038c.025-.025.039-.052.039-.078.025-.025.051-.037.077-.037 0-.026.013-.052.038-.077 0-.025.013-.039.039-.039v-.077c0-.026.014-.04.04-.04V22.552c.025-.025.038-.052.038-.077l.04-.037v-.078c.025-.025.051-.038.076-.038 0-.026.013-.053.039-.078v-.039c.025-.026.038-.051.038-.077v-.039c.026-.025.04-.05.04-.077l.038-.038v-.077a.31.31 0 0 1 .115-.039c.027-.026.038-.052.038-.077s.014-.038.04-.038c0-.026.012-.053.038-.079V21.549c0-.026.013-.039.037-.039 0-.025.013-.052.039-.077v-.039c0-.026.014-.052.039-.077v-.04c.025-.025.04-.051.04-.076v-.04c.025-.025.038-.05.038-.077l.038-.037c.026-.026.039-.052.039-.077 0-.026.013-.04.039-.04 0-.025.013-.051.038-.076l.038-.04v-.077c.027 0 .052-.013.078-.039v-.154c0-.026.012-.052.038-.079v-.039l.02-.018.02-.04v-.019l.038-.039c.026-.025.039-.052.039-.077l.039-.038c0-.027.012-.051.039-.076v-.04c.026-.026.039-.052.039-.078.025-.025.051-.039.077-.039 0-.025.013-.051.038-.077v-.038c.026-.025.039-.05.039-.078l.038-.037c.026-.025.04-.052.04-.077 0-.026.012-.039.039-.039v-.077c0-.026.013-.039.038-.039v-.078c0-.025.013-.038.039-.038V19.267h.02a.352.352 0 0 0 .096-.039V19.2c.026-.025.039-.051.039-.077l.039-.039a.109.109 0 0 0 .038-.077l.04-.039c0-.025.013-.05.038-.077v-1.157c.026-.025.051-.039.078-.039 0-.025.012-.051.037-.076 0-.026.014-.04.039-.04v-.076l.038-.039c.026-.026.04-.052.04-.078l.039-.039c0-.025.012-.051.038-.077 0-.025.013-.039.04-.039V17.115c0-.025.013-.052.038-.077v-.039c0-.025.013-.052.039-.077v-.039c.026-.026.039-.052.039-.077 0-.026.012-.039.037-.039 0-.026.014-.052.041-.077 0-.025.013-.04.038-.04 0-.025.013-.05.038-.076.026-.026.052-.039.077-.039 0-.026.013-.052.039-.077v-.039c.026-.026.039-.052.039-.078 0-.025.013-.039.038-.039 0-.025.014-.051.039-.077v-.037c0-.025.013-.053.039-.079v-.038a.11.11 0 0 1 .038-.076c0-.025.013-.039.04-.039 0-.027.012-.053.039-.078 0-.025.012-.039.038-.039 0-.025.013-.052.039-.077 0-.025.013-.04.039-.04a.109.109 0 0 0 .038-.076l.04-.038c.025-.026.038-.053.038-.078l.039-.039a.115.115 0 0 0 .039-.077c-.025-.026-.051-.04-.077-.04-.025-.025-.038-.049-.038-.076h-.192c-.027-.026-.066-.039-.117-.039-.026 0-.039-.013-.039-.038h-.307a.351.351 0 0 0-.156-.04c-.025-.024-.038-.05-.038-.076h-.502c-.025-.026-.064-.039-.116-.039-.026 0-.039-.013-.039-.04h-.424a.352.352 0 0 0-.155-.039.105.105 0 0 1-.038-.076h-.386a.157.157 0 0 0-.114-.04c-.026 0-.04-.012-.04-.039h-.308a.344.344 0 0 0-.153-.037c-.025-.025-.04-.052-.04-.077h-.308c-.026-.026-.064-.04-.115-.04-.027 0-.039-.012-.039-.039h-.501a.349.349 0 0 0-.153-.038c-.027-.026-.039-.052-.039-.078h-.386c-.025-.025-.065-.039-.116-.039l-.04-.039h-.229a.355.355 0 0 0-.154-.037c-.026-.027-.039-.052-.039-.079h-.192c-.027-.025-.065-.038-.117-.038l-.039-.039h-.231a.355.355 0 0 0-.154-.039c-.026-.025-.04-.051-.04-.077h-.114a.162.162 0 0 0-.116-.039c-.025 0-.039-.013-.039-.039h-.116a.335.335 0 0 0-.154-.039c-.026-.026-.038-.052-.038-.077h-.192c-.026-.026-.064-.039-.116-.039l-.021-.023h-.156a.344.344 0 0 0-.153-.039c-.025-.025-.039-.052-.039-.077h-.077c-.025-.026-.063-.039-.117-.039l-.039-.039h-.154a.33.33 0 0 0-.152-.039c-.027-.026-.041-.052-.041-.077h-.077c-.025-.025-.063-.04-.115-.04l-.038-.039h-.154a.363.363 0 0 0-.155-.037.337.337 0 0 0-.115-.077l-.077-.077h-.038a.359.359 0 0 0-.155-.039.388.388 0 0 0-.116-.078l-.076-.076h-.039a.339.339 0 0 0-.153-.04.536.536 0 0 0-.117-.077l-.077-.076h-.115a.344.344 0 0 0-.155-.04l-.076-.077c-.027-.025-.04-.052-.04-.077H4.24a.355.355 0 0 0-.155-.039c-.025-.025-.038-.052-.038-.077h-.078l-.153-.077c-.052 0-.091-.014-.117-.039l-.077-.077c-.026-.025-.039-.052-.039-.078a.4.4 0 0 1-.114-.076.472.472 0 0 0-.117-.078l-.077-.076-.078-.077-.154-.077c-.052 0-.089-.013-.116-.039l-.077-.078c-.026-.025-.039-.052-.039-.076a.464.464 0 0 1-.116-.078 2.795 2.795 0 0 1-.077-.077c0-.025-.013-.05-.039-.077a2.832 2.832 0 0 0-.078-.076l-.153-.077c-.026 0-.052-.014-.077-.041a.494.494 0 0 0-.116-.076.482.482 0 0 0-.117-.076.484.484 0 0 1-.115-.078l-.039-.038h-.269v-.194c-.028-.025-.052-.051-.078-.078l-.077-.076a.4.4 0 0 0-.116-.077.43.43 0 0 0-.116-.077l-.076-.078c-.027-.025-.051-.052-.077-.077l-.04-.038c-.025-.026-.038-.052-.038-.077v-.04c-.026 0-.052-.013-.078-.037-.025-.025-.051-.039-.077-.039-.026-.025-.039-.052-.039-.077v-.078a.106.106 0 0 1-.032-.073 1.884 1.884 0 0 1-.078-.077v-.076c-.026-.026-.052-.051-.077-.078 0-.026-.013-.052-.039-.077 0-.025-.013-.039-.039-.039C.513 9.574.5 9.549.5 9.522V8.365c0-.025.013-.051.038-.076.026-.026.039-.053.039-.078s.012-.051.039-.077V7.479c.025-.025.039-.052.039-.077s.013-.052.039-.077v-.038l.077-.078.076-.076c0-.027.014-.052.039-.077v-.078l.077-.076.076-.079c.026-.026.04-.051.04-.077.025-.025.05-.039.077-.039 0-.025.014-.05.039-.076 0-.026.012-.052.038-.078 0-.025.013-.052.041-.077v-.153c.024-.027.05-.053.075-.078 0-.025.014-.052.039-.077V5.822c.025-.027.037-.052.037-.079 0-.024.013-.05.039-.076v-.694l.077-.078c0-.024.013-.051.038-.076v-.154c.027-.025.04-.052.04-.077 0-.026.013-.052.039-.078v-.076c.025-.025.051-.038.076-.038a.37.37 0 0 1 .116-.078c0-.025.013-.052.038-.077l.078-.078a.428.428 0 0 1 .115-.078zm26.951 10.064c-1.184.026-2.378.039-3.586.039v.694c.026.026.039.052.039.077.025.025.038.052.038.077.025.026.04.052.04.078V15.23c.025.025.051.05.076.077.026.027.052.051.078.076l.078.078h.038l.039.039v.039c.026 0 .039.013.039.039l.038.04v.076c.05.025.102.052.155.077H27.762l.038-.04a.321.321 0 0 1 .116-.038c.025-.025.039-.05.039-.076h.039c.026 0 .051-.014.077-.04a.425.425 0 0 0 .193-.039l.076-.077.078-.078c.025-.025.039-.049.039-.076l.077-.077v-.04c.025-.024.039-.05.039-.076l.077-.078.076-.077v-.077c.027-.025.052-.052.079-.076 0-.025.014-.052.039-.077V14.613c.025-.026.038-.052.038-.078.026-.025.051-.052.078-.077l.077-.077h.076v-.039c0-.025-.013-.052-.038-.077 0-.025-.013-.052-.039-.077v-.039zm-4.821.694v-.076a.109.109 0 0 1-.038.076 1.912 1.912 0 0 1-.078.078c-.025.025-.051.052-.077.076v.039h-.039v.04l-.039.039v.039h-.038v.037c-.014.014-.026.028-.04.04v.038h-.038c-.026.027-.04.052-.04.077l-.038.038-.038.04c0 .025-.013.052-.039.077v.039h-.019c0 .013-.007.026-.02.039v.04c-.025.025-.038.052-.038.076v.077h.887v-.153c-.025 0-.051-.014-.078-.04l-.077-.077c0-.025-.013-.052-.039-.077v-.154l-.078-.078v-.269c0-.025.004-.055.004-.081zm-22.592-4.76v-.155H1.56l.019.019V10.063l.04.02zm4.684 1a.48.48 0 0 0 .135.02v-.02h-.135z"
    clip-rule="evenodd"
  />
</svg>
