<svg xmlns="http://www.w3.org/2000/svg" xml:space="preserve" viewBox="0 0 18.833 32">
  <g fill-rule="evenodd" clip-rule="evenodd">
    <path
      fill-opacity=".6"
      d="M15.826 7.595c.05.074.185.259.407.554.172.224.308.285.406.186.099-.099 0-.382-.295-.851-.321-.493-.271-1.035.148-1.628.049.247.345.617.888 1.11.543.518.875 1.023.999 1.517.049.246.061.493.037.739-.049.37-.148.666-.295.888-.247.321-.382.53-.407.63-.075.173-.013.382.185.629.172.245.123.578-.148.998-.173.246-.567.715-1.183 1.405-.355.396-.879.618-1.573.666.172-.279.351-.575.537-.887.099 0 .161-.014.186-.038l1.11-1.517c.049-.099-.014-.259-.186-.48a5.75 5.75 0 0 0-.776-.704 4.078 4.078 0 0 0-.888-.48c-.295-.122-.469-.136-.518-.036l-1.11 1.517h.038c-.024.05-.024.123 0 .221-.425.508-.801.957-1.128 1.351a.536.536 0 0 1-.093-.091c-.198-.271-.382-.642-.555-1.11-.197-.666-.234-1.208-.111-1.627.198-.371.345-.642.444-.815.173-.345.173-.813 0-1.405l.407.148c.32.173.555.444.702.813.075.124.111.457.111.999 0 .418.011.555.037.406.295-.394.48-.801.554-1.22.025-.246-.135-.629-.48-1.147-.443-.542-.714-.888-.813-1.035-.148-.223-.21-.739-.186-1.553.025-.839.148-1.369.37-1.591.05.518.271.974.666 1.368.198.196.728.419 1.59.666.346.099.555.309.629.629.121.442.22.7.294.775z"
    />
    <path
      d="M14.975 10.331c.271.1.568.261.888.48.32.248.58.482.776.704.172.222.235.382.186.48l-1.11 1.517c-.025.024-.087.038-.186.038-1.356 2.269-2.158 3.574-2.404 3.92-.099.122-.21.803-.334 2.034-.147 1.208-.406 2.084-.776 2.626L5.58 31.157c-.197.172-.641.185-1.332.037a6.589 6.589 0 0 1-2.144-1.037 6.392 6.392 0 0 1-1.666-1.7c-.37-.593-.505-1.011-.407-1.259l6.437-9.062c.37-.544 1.11-1.072 2.22-1.591.271-.123.641-.296 1.109-.518.346-.173.567-.32.667-.443.148-.224 1.122-1.406 2.922-3.553-.024-.098-.024-.171 0-.221h-.038l1.11-1.517c.048-.098.221-.084.517.038z"
    />
  </g>
</svg>
