<svg xmlns="http://www.w3.org/2000/svg" xml:space="preserve" viewBox="0 0 92.592 39.134">
  <path
    fill-rule="evenodd"
    d="M90.855 10.174c0 .566-.084 1.216-.25 1.95-.066.367-.15.684-.25.95h-27.1v.8l-.3.4h-24.65v-1.1h-1c-.167.1-.184.367-.05.8l.7 2.15h.35l.1.35-.6.25.15.55c.167.434.35.934.55 1.5.667 1.733 1.534 3.616 2.6 5.65 1.033 2.033 2.483 4.417 4.35 7.149a77.23 77.23 0 0 0 2.45 3.45l-3.7 2.851c-.7-.9-1.517-2.018-2.45-3.351-1.833-2.733-3.316-5.216-4.45-7.45a111.678 111.678 0 0 1-2.95-6.35l-.95-2.3-.35.1h-1.35l-.4 2.1h-.3l.3-2h-1.45l-.35.35-1.75 3.5c-.1.267-.316.416-.65.45h-5.5c-.467-.034-.867-.15-1.2-.351l-.2.15a2.01 2.01 0 0 0-.3.5c-.067.133-.117.35-.15.65-.033.3-.1.533-.2.699-.033.101-.133.283-.3.551-.2.232-.35.482-.45.75-.1.3-.167.583-.2.85 0 .334-.033.566-.1.7-.033.167-.167.417-.4.75-.2.333-.35.634-.45.899-.067.2-.117.5-.15.9a2.76 2.76 0 0 1-.15.7c-.1.233-.267.466-.5.7-.167.133-.3.232-.4.3l-5.95-3.25c.034-.3.133-.7.3-1.2.333-1 .733-2.017 1.2-3.05.434-.866.967-1.733 1.6-2.601l.6-.8.35-.7c.2-.6.316-1.117.35-1.55.066-.566-.017-1.033-.25-1.4-.2-.333-.483-.6-.85-.8a1.96 1.96 0 0 1-.45-.2c-.133-.033-.217-.083-.25-.15-.1-.1-.167-.2-.2-.3h-3.8c-.333 0-.6-.25-.8-.75l-.6-2.9-.25-.05-.1.35.65 2.15-.3.55h-1.55l-.35-.65 1-2-.05-.45-.4.2c-.3.267-.533.567-.7.9-.2.367-.35.733-.45 1.1-.067.167-.1.3-.1.4l-.55 3.4c-.367 2.233-.617 3.417-.75 3.55-.133.1-.267.217-.4.35-.067.066-.167.101-.3.101-.233.033-.5.033-.8 0-.4-.067-.667-.184-.8-.351-.167-.167-.267-.316-.3-.45-.033-.066-.017-.233.05-.5 0-.033.117-.783.35-2.25.233-1.367.383-2.4.45-3.1.033-.433.05-1.75.05-3.95v-2.7c-.033-.5 0-.85.1-1.05a.818.818 0 0 1 .6-.25c.267-.033.933.033 2 .2.533.133 1.05.25 1.55.35h1.35l.05-.8c.1-.333.2-.684.3-1.05.267-.7.45-1.133.55-1.3a.885.885 0 0 1 .4-.25h3.8l.35.15h1.75l.05-1.4c.1-.333.25-.567.45-.7s.4-.183.6-.15h.5l.2.75.4-1 2.1.9-.45.8.45.75h18.9l.4.05h22.75v-.5h-.3v-2.4l.2-.25h.85l.7 1.95v1.2h.45l.35.5v1.7h-.3v.55h27.25l.2.9c.134.704.2 1.337.2 1.904zm-62.55 8.8-.35-.35h-4.05l-.2.4a3.97 3.97 0 0 0-.3.8c-.034.233 0 .533.1.9.067.333.133.583.2.75l.05.5-.4-.2a3.79 3.79 0 0 1-.6-1.3c-.066-.4-.117-.833-.15-1.3v-.55h-1l-.45 1.05c-.267.7-.417 1.1-.45 1.2a4.053 4.053 0 0 0 0 .9c.267.267.617.45 1.05.55h5.05c.2-.033.35-.166.45-.399l1.05-2.951z"
    clip-rule="evenodd"
  />
</svg>
