<svg xmlns="http://www.w3.org/2000/svg" xml:space="preserve" viewBox="0 0 49.125 32">
  <path
    fill-rule="evenodd"
    d="M28.065 10.277v-.086h-3.418v.259c.03.029.044.057.044.085v.045l.044.042v.042c.056.03.114.058.171.086.028.029.057.059.088.088.027.028.043.055.043.083v.043c.028.029.057.045.085.045 0 .028.015.056.044.085 0 .03.013.059.042.086 0 .03.014.044.044.044.027.028.043.055.043.086a.125.125 0 0 1 .042.087v.085l.043.043v.044l.086.085c0 .03.016.058.044.087l.087.086v.044h.042v.045c.029.027.059.056.086.085v.085l.043.045v.042c.028 0 .057.015.085.044 0 .029.015.058.043.087h1.17c.028 0 .044-.016.044-.044.027 0 .056-.014.083-.043v-.037h.087v-.087l.087-.085a.182.182 0 0 0 .129-.044c0-.029.013-.058.043-.086v-.13c0-.029.015-.057.043-.087v-.129c.028 0 .044-.015.044-.043.028-.029.042-.058.042-.085.028-.029.056-.059.087-.087 0-.031.014-.058.042-.086v-.044c.029-.028.044-.057.044-.086 0-.029.014-.058.043-.085.028 0 .057-.016.086-.045.028-.027.058-.043.087-.043v-.387c0-.028.015-.056.043-.085 0-.029-.016-.057-.043-.086.008-.035.008-.063.008-.093zM44.15 6.385c.028.03.044.059.044.086 0 .032.013.044.042.044h.607v.044h3.936l.214.217v2.333l-.257.26h-3.633v.088c-.173 0-.363.012-.563.042l-.044.044c-.029.027-.07.071-.129.129-.028 0-.059.015-.088.042.029.032.045.06.045.088.028.028.043.059.043.087 0 .028.013.058.042.085v.39c-.03.03-.042.058-.042.086-.028.029-.059.057-.088.085v.346l-.043.042c-.029.032-.042.058-.042.089a.39.39 0 0 1-.345 0c-.03-.031-.044-.057-.044-.089a.116.116 0 0 1-.086-.042l-.043-.042c0-.029-.015-.06-.044-.088 0-.028-.013-.057-.043-.086 0-.028-.013-.057-.042-.085l-.043-.045-.086-.085-.086-.086c-.029-.029-.043-.057-.043-.087h-.087l-.086-.086c-.027-.028-.057-.057-.085-.088 0-.027-.016-.057-.043-.086 0-.028-.028-.043-.086-.043-.029-.028-.044-.058-.044-.085l-.086-.087c-.028-.028-.057-.056-.085-.088l-.088-.085a.123.123 0 0 0-.042-.086h-.044a.386.386 0 0 1-.173-.044l-.042-.042h-.13a.504.504 0 0 1-.087.128.346.346 0 0 0-.043.128c-.028.032-.072.073-.128.131a.724.724 0 0 1-.173.129c-.059.029-.13.073-.216.129-.059 0-.102.016-.13.045h-.043v.043c0 .028-.015.057-.043.086h-.13a.52.52 0 0 0-.129.087c0 .03-.016.058-.043.086v.085c0 .031-.016.045-.042.045v.085c-.031 0-.06.016-.087.044V21.853c0 .029-.016.059-.043.087l-.043.043v.086c-.03 0-.059.013-.088.042l-.042.044h-.345c-.029-.029-.058-.044-.087-.044-.145 0-.289-.014-.432-.042a.415.415 0 0 1-.174-.042c-.056-.03-.085-.059-.085-.087h-.086c-.03 0-.045-.015-.045-.043a.384.384 0 0 1-.172-.043c-.029 0-.044-.013-.044-.042a.382.382 0 0 1-.172-.044h-.13v-.045a.379.379 0 0 1-.172-.042.384.384 0 0 1-.171-.041l-.044-.043h-.26c-.03-.03-.058-.045-.086-.045-.031 0-.058-.013-.087-.043-.059 0-.101-.014-.13-.042a.53.53 0 0 1-.13-.086c-.056-.03-.115-.058-.173-.087h-.043a.56.56 0 0 1-.13-.086.585.585 0 0 1-.128-.087c0-.03-.015-.058-.044-.086-.029-.03-.059-.044-.087-.044-.029-.027-.043-.057-.043-.085l-.085-.086c-.031-.03-.044-.057-.044-.089-.029 0-.057-.013-.087-.042-.028 0-.057-.014-.085-.042 0-.028-.014-.056-.043-.087 0-.027-.015-.056-.042-.088 0-.027-.015-.055-.044-.083 0-.029-.014-.043-.043-.043v-.088c0-.027-.015-.055-.045-.086v-.043c-.028-.03-.056-.057-.085-.086l-.043-.044v-.087a.116.116 0 0 1-.042-.085c0-.028-.015-.058-.043-.088v-2.28c.029-.029.043-.057.043-.086.028-.029.042-.058.042-.087V16.552a.119.119 0 0 0 .043-.087.12.12 0 0 0 .043-.087c.028-.028.042-.058.042-.086V10.239a.336.336 0 0 0-.128-.044h-6.703c0 .028-.015.044-.043.044l.043.042c.029.03.043.058.043.087v.689l-.086.089v.301c-.058.031-.116.058-.173.087-.028 0-.058.013-.087.044-.027.028-.056.043-.086.043-.029.029-.044.057-.044.086-.027.03-.057.058-.085.086a.456.456 0 0 0-.13.086v.045c-.027.027-.043.056-.043.085v.172l-.086.087V12.785c-.03 0-.044.014-.044.044-.028.028-.057.055-.086.087V13c0 .028-.014.057-.043.088 0 .027-.014.042-.043.042v.173c0 .028-.015.042-.043.042a.412.412 0 0 1-.129.087l-.043.044-.087.086c-.03.029-.073.042-.13.042-.116.03-.245.06-.389.086-.03 0-.059.015-.086.045h-1.384l-.043.042h-.129l-3.114.088c-.029 0-.058.014-.087.043h-.301c0 .028-.015.042-.043.042l-.084.086-.046.045h-.042V15.632c-.028 0-.044.015-.044.043s-.012.058-.042.087V17.66c.029.03.042.059.042.086 0 .031.016.06.044.088v.82c.029.029.042.059.042.087l.046.044c0 .029.014.057.042.086V19.302a.122.122 0 0 1 .042.087l.043.042v.647c0 .027.014.058.042.085v.086c.03.029.045.06.045.088v.603l-.045.042c-.028.031-.042.058-.042.088-.029.029-.058.043-.085.043v.173l-.042.043v.086l-.088.085V22.235h.088c0 .027.014.057.042.086V23.14l.042.045c.029.028.043.055.043.084v.561c0 .028.014.058.042.085 0 .029.016.043.045.043V24.476c.029.03.058.044.087.044V24.996l.085.085h.042V25.642c0 .028.016.043.044.043V26.202c.03.028.059.043.087.043 0 .028.013.056.043.085v.477c.03.028.057.057.085.087v.43l.044.042c0 .031.013.057.043.087v.302c.029.03.045.058.045.085l.041.045v.131a.112.112 0 0 1 .043.084c.031.03.045.056.045.086l.042.044v.26c.028.03.057.042.085.042v.045a.115.115 0 0 1 .043.085c0 .028.015.057.043.085v.13c.029.029.044.059.044.087.029.028.044.058.044.086.029.029.057.043.087.043 0 .029.012.044.043.044v.172c0 .028.013.057.042.087v.086h.043c.058 0 .116.015.174.042.028.029.042.057.042.085s.014.046.044.046v.949c.029.03.043.058.043.086l.044.044v.128l-.088.087c-.03.03-.044.059-.044.087h-1.6a.346.346 0 0 0-.13.044h-.042a.73.73 0 0 1-.217.043.487.487 0 0 1-.128.085h-.043c-.028.029-.072.043-.13.043h-1.731a.463.463 0 0 0-.216-.043c-.056-.029-.114-.056-.171-.085v-.043a.381.381 0 0 0-.175-.044h-1.081v-.042h-.059a.374.374 0 0 1-.173-.044 2.356 2.356 0 0 1-.086-.087c0-.029-.016-.055-.044-.086v-.042c-.029 0-.057-.016-.086-.044 0-.028-.015-.057-.043-.086v-.175c-.029-.028-.058-.059-.087-.086v-.131l-.086-.084v-.347l-.087-.085v-.132c0-.028-.015-.042-.042-.042a.122.122 0 0 0-.045-.086c0-.03-.014-.059-.044-.087V29.134l-.043-.043c0-.028-.014-.058-.042-.086v-.302c-.029-.029-.057-.059-.087-.085v-.26a.13.13 0 0 1-.041-.087c0-.029-.016-.044-.044-.044v-.259a.125.125 0 0 1-.087-.042l-.043-.045v-.301c0-.027-.014-.057-.042-.086v-.173c0-.031-.015-.058-.043-.088 0-.027-.013-.056-.044-.086 0-.028-.014-.056-.042-.085v-.389a.12.12 0 0 1-.043-.086c0-.028-.014-.057-.043-.086v-.567c-.03-.03-.043-.06-.043-.087 0-.029-.015-.059-.043-.086v-.345c-.029 0-.044-.016-.044-.044 0-.029-.013-.058-.042-.086v-.344a.125.125 0 0 0-.043-.086c0-.029-.016-.059-.044-.088l-.043-.044V24.553l-.043-.044c0-.028-.015-.042-.044-.042v-.648c0-.026-.014-.057-.043-.086 0-.028-.014-.056-.042-.085V21.319h-.301c-.029 0-.058-.016-.087-.045a.123.123 0 0 1-.086-.041h-.042a.373.373 0 0 1-.174-.045l-.086-.085c-.027-.03-.056-.057-.085-.088v-.302c0-.027-.016-.056-.045-.084a.123.123 0 0 0-.042-.088V19.982l-.087-.087V16.615c.029 0 .044-.013.044-.042.029-.028.043-.058.043-.087v-.648h.042v-.085c.029-.032.045-.061.045-.088v-.387c.029 0 .058-.016.085-.045V15.017c.029-.029.044-.057.044-.085.029-.029.057-.059.086-.085v-.131c.029 0 .058-.015.086-.043v-.303c.03-.028.044-.058.044-.087 0-.028.013-.056.042-.083v-.086h.086v-.261c.029-.029.043-.057.043-.086.03 0 .056-.014.086-.045V13.507l.044-.044v-.948l.085-.087.043-.042v-.389c-.028-.029-.043-.058-.043-.086-.028 0-.057-.016-.085-.044v-.344c-.028-.029-.044-.058-.044-.085l-.086-.087c-.029-.031-.059-.044-.086-.044l-.043.044v.087c0 .027-.016.057-.042.085v.043l-.088.087c-.027 0-.057.014-.086.042l-.042.044h-.129a.665.665 0 0 1-.174-.044c-.027-.029-.073-.042-.13-.042h-.128c-.952.029-1.931.057-2.941.086-.029.03-.043.058-.043.086-.028 0-.043.015-.043.042h-.128a.394.394 0 0 1-.173-.042c0-.029-.016-.057-.043-.086l-.086-.086-.042-.043c0-.031-.016-.044-.043-.044 0-.03-.014-.057-.046-.087v-.042l-.043-.044c-.026 0-.056-.015-.085-.043H6.152a.38.38 0 0 1-.173-.044c-.029-.029-.058-.042-.086-.042l-.086-.087v-.219c-.028 0-.056-.013-.087-.042a.125.125 0 0 1-.087-.042 7.22 7.22 0 0 0-.086-.088c0-.028-.013-.057-.044-.086v-.13c0-.028-.014-.056-.041-.085v-.173h-.088c-.027 0-.043.016-.043.043v.173c-.027.029-.043.057-.043.088v.042a.135.135 0 0 1-.041.086v.13c0 .028-.015.055-.046.083v.129c-.027.03-.043.059-.043.089v.087c-.028 0-.042.013-.042.042V11.736c0 .03-.014.058-.043.086v.086h-.059c0 .028-.015.058-.043.086v.216a.121.121 0 0 1-.042.087v.259l-.086.085-.174.174c-.029 0-.043.027-.043.086a.37.37 0 0 0-.044.173c0 .058-.015.101-.043.128a.388.388 0 0 0-.043.173c-.029.031-.042.06-.042.087a.686.686 0 0 0-.131.173v.131a.377.377 0 0 0-.044.173v.129a.26.26 0 0 0-.128.131.358.358 0 0 0-.045.171c-.028.03-.072.074-.129.13v.129a.53.53 0 0 1-.085.131c-.03.056-.057.113-.087.172 0 .057-.015.102-.043.129v.172l-.042.045a.114.114 0 0 0-.043.087c-.03.027-.044.069-.044.128l-.086.173c-.029 0-.057.015-.086.043l-.043.044v.042l-.086.085v.088l-.044.043v.087c0 .027-.013.055-.042.086 0 .027-.015.042-.043.042-.03.03-.044.06-.044.088-.03 0-.058.014-.086.044v.084c0 .031-.013.06-.043.086v.087c-.028 0-.058.014-.087.044-.029.028-.043.057-.043.086-.028 0-.057.015-.085.043-.057 0-.086.017-.086.043-.029.028-.044.058-.044.088h-.086c0 .027-.015.041-.043.041h-.433a.352.352 0 0 0-.13.046.977.977 0 0 0-.301.042h-.217a6.782 6.782 0 0 1-.39-.087.775.775 0 0 0-.215-.041.785.785 0 0 0-.259-.045.399.399 0 0 1-.174-.043.123.123 0 0 0-.042-.086l-.086-.086V5.391h.042l-.05-.043v-.13c.027-.028.043-.058.043-.086l.086-.089c.029-.027.059-.056.087-.085l.086-.085c0-.03.015-.058.043-.087.029-.03.045-.059.045-.086.028-.03.041-.059.041-.086.029 0 .06-.016.086-.043l.044-.047a.336.336 0 0 1 .129-.041.488.488 0 0 0 .174-.087.71.71 0 0 0 .216-.042c.028 0 .043-.017.043-.045h.129a.72.72 0 0 1 .217-.042v-.045h.086c.06.031.117.058.173.088.031 0 .044.014.044.045 0 .029.016.042.042.042v.087h2.338l-.044-.045c0-.029-.015-.056-.043-.085V4.31c-.028-.03-.057-.057-.088-.088v-.518c.03-.028.06-.043.087-.043v-.045c.029-.027.044-.056.044-.083.028-.03.045-.06.045-.087.026-.03.041-.059.041-.087.029 0 .043-.016.043-.045 0-.026.015-.057.043-.086.028 0 .058-.015.087-.042a.321.321 0 0 0 .129-.045c.029 0 .059-.014.087-.043V2.709c.028-.029.043-.057.043-.087a.514.514 0 0 0 .128-.084.53.53 0 0 1 .129-.089l.046-.042h.517a.34.34 0 0 1 .13.042c.028.029.057.045.086.045.058.029.115.059.173.087 0 .028.014.058.042.085.031.029.074.043.13.043h.129v.044a.754.754 0 0 1 .217-.044c.03 0 .059-.014.088-.043.026 0 .056-.014.085-.043a.313.313 0 0 0 .128-.042h.13c0 .028.031.058.086.085 0-.027.015-.057.045-.085v-.087c.029 0 .057-.016.085-.045l.043-.042.088-.086c.034-.028.048-.059.048-.087l.085-.086.043-.042v-.173c.029 0 .057-.016.088-.044v-.086c.028-.028.056-.043.084-.043.03-.03.06-.046.089-.046 0-.027.014-.042.044-.042a.325.325 0 0 1 .127-.045.416.416 0 0 1 .175-.042v-.041h.043c.029 0 .043-.018.043-.045.028 0 .042-.015.042-.042H39.047c0-.031.014-.045.044-.045h.085v-.041h.089c.058.028.115.056.173.086.057 0 .116.013.171.042.029.027.06.045.088.045a.506.506 0 0 1 .127.083c.03.03.074.06.131.086l.045.045c.029.03.058.056.086.086.03.029.056.06.087.087v.086c.029.028.043.058.043.087a.436.436 0 0 1 .13.086c.028.029.043.057.043.086l.086.086c0 .028.029.043.087.043 0 .028.012.042.042.042v.045h.131c.029.029.056.044.087.044.028 0 .043.015.043.043h.649c0-.028.014-.043.043-.043a.324.324 0 0 0 .128-.044h.174c.028.029.071.044.129.044.029 0 .043.015.043.043h.087c.058.028.116.058.174.085l.042.043c.058 0 .101.016.13.044h.042c.058.026.116.057.174.086v.041c.057.03.114.06.172.088 0 .029.015.059.044.088h.086v.43a.648.648 0 0 0 .128.173l.045.087c0 .058.012.116.041.173v.301c-.026.035-.038.062-.038.092h.128c.029 0 .073.014.13.045 0 .029.016.042.044.042l.086.087c.03.028.042.058.042.087 0 .028.015.043.043.043v.128a.116.116 0 0 1-.043.086v.088l-.042.042v.303c0 .028.015.071.042.128 0 .056.03.115.088.174l.043.085c0 .058.014.116.043.175v.299l-.043.044h.043l.173.086c0 .029.015.043.044.043.056.033.114.062.171.09zm-20.67 5.234c-.03-.029-.043-.057-.043-.087-.03 0-.059-.015-.088-.043-.027-.029-.042-.058-.042-.085v-.087c-.03-.029-.043-.058-.043-.086 0 .028-.015.057-.044.086V11.619c0 .029.016.057.044.086v.086c0 .027.013.042.043.042v.346c.03.029.057.059.085.087v.044h.651c-.032-.001-.06-.016-.087-.044-.03-.028-.059-.058-.088-.087-.028 0-.043-.015-.043-.042-.029-.03-.055-.061-.085-.088s-.043-.059-.043-.086v-.086c-.031 0-.042-.016-.042-.044-.031 0-.058-.015-.089-.042-.027-.029-.056-.057-.085-.086l-.001-.086zM.863 7.121v1.34c.028-.03.043-.058.043-.086V6.689c0-.029-.015-.058-.043-.086V7.121z"
    clip-rule="evenodd"
  />
</svg>
