<svg xmlns="http://www.w3.org/2000/svg" xml:space="preserve" viewBox="0 0 100.25 32">
  <path
    fill-rule="evenodd"
    d="M97.74 7.175c0 .047.012.096.035.143V8.037h1.651a.39.39 0 0 1 .178.035c.026 0 .048.012.073.036h.036v-.036h.072c.047.023.108.049.18.07a.447.447 0 0 1 .07.109c.025 0 .038.023.038.07a.104.104 0 0 1 .035.073v.071a.267.267 0 0 0-.035.107.158.158 0 0 0-.038.073h.073V9.273a.21.21 0 0 1 .036.054c.024.024.037.06.037.107l.035.037v.285c0 .024-.011.047-.035.072l-.072.07v.863h-.52l.016.035c0 .024.013.049.038.072.022.024.047.048.071.072v.106l-.019.018c-3.121-.011-6.238-.017-9.347-.018a.457.457 0 0 0-.107.073l-.431.017v.09h-.034v-.09c-.396.022-.792.046-1.185.072v.018h-.144v.072l-.521-.019-.053.055a.312.312 0 0 0-.036.143c-.035.007-.072.015-.107.02v.539c.061.004.121.009.178.018v2.121a7.121 7.121 0 0 0-.358 0v.179h-.968v.107c0 .023-.013.048-.037.071a.154.154 0 0 0-.036.108c-.023.024-.047.035-.07.035-.025 0-.049.013-.074.037-.023.022-.047.035-.07.035l-.036.035a.319.319 0 0 1-.145.035h-.358v.036c-.24.049-.479.098-.718.145v.071a4.801 4.801 0 0 0-.61.108.448.448 0 0 0-.108.07 52.83 52.83 0 0 0-1.865.108.402.402 0 0 0-.108.072c-.492-.013-.981-.026-1.472-.035l-.072.071h-.037a.383.383 0 0 1-.179.036H70.486c-.111.011-.225.022-.341.036v.07c-.526.024-1.065.061-1.616.108v.071c-.573.023-1.136.06-1.686.107a.404.404 0 0 0-.107.073c-.455.023-.898.059-1.328.106a.419.419 0 0 0-.108.072c-.406.023-.825.06-1.255.108v.071c-.479.023-.958.06-1.437.107v.071c-.454.024-.897.06-1.328.107a.429.429 0 0 0-.107.072c-.575.024-1.137.061-1.687.106a.467.467 0 0 0-.108.072 70.6 70.6 0 0 0-2.189-.035 5.245 5.245 0 0 0-.107-.107l-1.148-.072-.107-.108a15.58 15.58 0 0 0-.395-.071v-.108c-.12-.021-.239-.046-.359-.069v-.109a1.825 1.825 0 0 0-.178-.071v-.107c-.12-.023-.24-.048-.359-.072v-.107a1.397 1.397 0 0 0-.18-.072.321.321 0 0 1-.037-.144.605.605 0 0 0-.105-.143l-.109-.108a77.172 77.172 0 0 1-.287-.144.33.33 0 0 1-.036-.144.663.663 0 0 0-.108-.145c-2.52.021-5.042.045-7.572.073v.071c-.79-.023-1.58-.036-2.368-.036a3.56 3.56 0 0 1-.108-.108c-.12-.022-.251-.047-.395-.071v-.088a.15.15 0 0 1-.072.017c0 .024-.011.035-.035.035l-.107.107c-.024.026-.048.037-.073.037 0 .024-.012.036-.036.036 0 .023-.012.035-.036.035l-.035.036c-.025 0-.05.013-.073.036h-.035a.277.277 0 0 1-.108.037l-.035.035h-.036v.035l-.072.035-.036.036h-.019a.123.123 0 0 0-.052.037h-.038a.285.285 0 0 1-.107.035c0 .023-.011.037-.036.037-.023 0-.036.012-.036.035-.023 0-.036.012-.036.036-.024 0-.036.012-.036.036-.023 0-.037.013-.037.036-.023 0-.047.011-.07.036-.024 0-.036.011-.036.034-.025 0-.048.012-.072.036h-.037c0 .024-.012.036-.035.036-.023.023-.047.036-.071.036 0 .023-.012.035-.037.035v.036c-.121.023-.24.036-.359.036l-.036.035c-.025.024-.049.036-.073.036l-.071.073v.035l-.036.035v.036a.278.278 0 0 1-.107.036l-.036.036v.035h-.035c-.024.024-.048.036-.072.036l-.108.108v.07a.261.261 0 0 1-.108.037l-.072.071v.072a.308.308 0 0 1-.108.035c-.023.023-.047.036-.072.036v.072h-.108v.036a.1.1 0 0 1-.071.034c0 .024-.011.037-.035.037s-.035.012-.035.035l-.038.049v.07h-.213c0 .024-.013.037-.037.037v.07h-.107c-.024.025-.048.038-.072.038a.816.816 0 0 1-.25.035.83.83 0 0 1-.252.035v.072h-.215a.326.326 0 0 1-.143.036c-.288.023-.574.035-.861.035h-.826a.34.34 0 0 1-.145-.035c-.047 0-.083-.013-.106-.036-.025 0-.048-.012-.073-.036v-.036a.325.325 0 0 0-.143-.035c.024 0 .036.013.036.035v.287l.037.036.036.036v.143l-.036.036-.037-.036h-.611a.276.276 0 0 1-.108-.036l-.07-.071v-.072a.3.3 0 0 0-.108-.036v-.036l-.035-.035v-.036c-.025 0-.037-.012-.037-.036l-.036-.035c-.024 0-.049-.013-.072-.036 0-.025-.011-.036-.036-.036v-.071l-.036-.035v-.038l-.216-.215v-.035c-.024 0-.035-.013-.035-.037l-.073-.07v-.036c0-.023-.012-.036-.036-.036v-.071c-.023-.023-.047-.037-.07-.037l-.036-.035c0-.023-.012-.036-.037-.036v-.035c-.022 0-.035-.012-.035-.037v-.038l-.036-.034v-.035c-.024 0-.035-.013-.035-.036l-.038-.037v-.036h-.036v-.035c0-.024-.012-.036-.036-.036 0-.023-.012-.036-.036-.036l-.072-.071v-.035c0-.025-.013-.037-.036-.037v-.036l-.036-.036v-.215h-.036c0-.024-.011-.036-.036-.036v-.034l-.036-.036V15.5h-.034a.79.79 0 0 1-.179-.036h-1.257c-.233.018-.46.029-.683.036v.036h-.143l-.215.07c-.263.024-.539.048-.826.072a.276.276 0 0 0-.108.036c-.048 0-.083.012-.107.035-.072 0-.119.013-.144.036-.024 0-.048.012-.071.036-.073 0-.121.013-.144.035a.276.276 0 0 1-.108.036.316.316 0 0 1-.143.036.4.4 0 0 0-.143.072l-.216.071c0 .024-.023.048-.071.072a.155.155 0 0 0-.108.035.404.404 0 0 0-.107.073.332.332 0 0 1-.143.036v.035a.24.24 0 0 1-.054.019.17.17 0 0 1-.018.052l-.072.072-.036.036h-.037v.035l-.142.145-.144.144c-.072.048-.144.097-.216.143v.251a2.41 2.41 0 0 0-.18.107v.072a1.96 1.96 0 0 0-.18.107v.25a2.293 2.293 0 0 0-.179.108v.249a2.48 2.48 0 0 0-.18.108v1.617c-.023.023-.035.061-.035.108a.225.225 0 0 1-.108.107l-.035.036a2.7 2.7 0 0 0-.18 0c-.024.023-.037.049-.037.071a.366.366 0 0 1-.072.108l-.071.035a.607.607 0 0 0-.179.036h-.073a.702.702 0 0 0-.215-.036.335.335 0 0 0-.071-.106c-.024-.024-.036-.06-.036-.108v-.017c-.167-.008-.334-.013-.502-.02v.036a1.659 1.659 0 0 0-.18.108v.071a.934.934 0 0 0-.179.053v.306c-.048.024-.108.06-.18.107v.071c-.28-.008-.563-.014-.843-.017a45.338 45.338 0 0 0-1.166-.019v.071l.071.072.107.107c.024.024.035.048.035.071v.038l.037.034v.107c-.024.025-.037.049-.037.073-.023.022-.035.059-.035.106-.023.024-.047.035-.072.035h-.072c-.024.024-.06.037-.108.037h-.143a.685.685 0 0 0-.215-.037.438.438 0 0 0-.108-.07.379.379 0 0 0-.072-.107c-.024 0-.048-.025-.072-.072v-.357c-.023 0-.048-.025-.071-.073 0-.023-.013-.048-.036-.071v-.071a4.764 4.764 0 0 0-.108-.107c-.048-.024-.071-.048-.071-.072a.104.104 0 0 0-.036-.071.477.477 0 0 0-.072-.108l-.072-.071c-.023-.023-.035-.06-.035-.108-.024-.023-.037-.047-.037-.071v-.036l-.215-.071c-.025-.048-.048-.072-.072-.072a.43.43 0 0 1-.071-.106 1.452 1.452 0 0 1-.179-.073h-.215a.587.587 0 0 0-.18.036.396.396 0 0 0-.179-.036l-.072-.07a.347.347 0 0 0-.072-.108V19.123a.762.762 0 0 0-.251.107l-.287.144v.144c-.096.048-.18.097-.251.145-.096.022-.192.046-.289.07a2.161 2.161 0 0 0-.357.107 1.488 1.488 0 0 1-.18.072.787.787 0 0 0-.25.107.41.41 0 0 0-.107.072c-.119.023-.24.061-.359.108v.071c-.119.023-.24.06-.359.107v.071c-.12.025-.239.061-.358.108v.071c-.144.024-.287.06-.432.107a.43.43 0 0 0-.107.071 2.01 2.01 0 0 0-.18.108v.072c-.143.023-.286.06-.43.106a.49.49 0 0 0-.108.072c-.119.024-.239.06-.357.107v.073a1.93 1.93 0 0 0-.359.106v.072a2.65 2.65 0 0 0-.43.107.446.446 0 0 0-.109.071 2.027 2.027 0 0 0-.357.109v.07c-.048.024-.109.06-.181.108v.071a.838.838 0 0 0-.251.107.457.457 0 0 0-.108.072 2.116 2.116 0 0 0-.358.107v.071a2.099 2.099 0 0 0-.359.107v.072a.833.833 0 0 0-.252.107.41.41 0 0 0-.106.072.805.805 0 0 0-.253.107.458.458 0 0 0-.107.072.827.827 0 0 0-.251.107.411.411 0 0 0-.108.072c-.048.022-.107.06-.179.107v.07c-.12.024-.238.061-.358.109v.07c-.12.025-.239.061-.36.109v.071c-.119.022-.24.06-.357.107v.071c-.168.023-.348.06-.539.107v.072a.822.822 0 0 0-.252.107.387.387 0 0 0-.106.072c-.12.024-.24.06-.359.107v.072c-.12.023-.24.061-.36.107v.071a2.211 2.211 0 0 0-.358.107v.071a5.884 5.884 0 0 0-.538.108v.072c-.12.023-.241.06-.359.106v.073c-.12.023-.239.06-.36.107v.071c-.119.023-.238.06-.358.108v.071c-.12.022-.239.06-.359.108v.071a.77.77 0 0 0-.251.107.411.411 0 0 0-.107.071c-.12.024-.241.061-.36.109v.07a2.12 2.12 0 0 0-.358.108v.071a5.684 5.684 0 0 0-.539.107v.072c-.144.022-.287.06-.43.106a.427.427 0 0 0-.108.072 3.03 3.03 0 0 0-.43.106.426.426 0 0 0-.108.073c-.119.023-.24.061-.358.107v.072a4.61 4.61 0 0 0-.288 0v.249a.402.402 0 0 1-.072.108l-.036.036c-.023 0-.037.012-.037.035a.27.27 0 0 0-.106.036h-.107a9.58 9.58 0 0 0-.144-.071H4.08a18.84 18.84 0 0 0-.143.071h-.144a1.167 1.167 0 0 0-.179-.071c-.024 0-.047-.023-.07-.072v-.035a4.855 4.855 0 0 0-.073-.072v.107c-.024.024-.047.049-.072.072l-.036.071a.264.264 0 0 1-.036.107.338.338 0 0 1-.144.037 1.4 1.4 0 0 1-.179.07h-.323c-.072-.022-.13-.048-.18-.07h-.072c-.047-.025-.096-.049-.144-.073a1.559 1.559 0 0 1-.07-.071 1.38 1.38 0 0 0-.18-.071c-.048 0-.072-.013-.072-.036a1.304 1.304 0 0 1-.215-.071.282.282 0 0 1-.144-.043 4.854 4.854 0 0 1-.072-.071 4.732 4.732 0 0 0-.108-.107c-.024-.025-.035-.048-.035-.072a.267.267 0 0 0-.037-.108c0-.023-.012-.048-.035-.072 0-.025-.013-.048-.037-.071a.28.28 0 0 0-.035-.107V25.767a.102.102 0 0 0-.035-.072c-.025-.024-.037-.048-.037-.071a.287.287 0 0 1-.036-.109v-.57c-.024-.024-.036-.049-.036-.072a.447.447 0 0 1-.071-.108c0-.022-.012-.048-.037-.071V23.765a.1.1 0 0 0-.036-.071v-.071c0-.049-.011-.084-.036-.109V22.264c0-.024-.012-.048-.036-.072 0-.048-.011-.071-.036-.071a.364.364 0 0 0-.073-.107V20.31l-.071-.071a.293.293 0 0 0-.035-.108V18.809a.429.429 0 0 1-.072-.107c-.024 0-.035-.012-.035-.035V17.63l-.072-.072-.036-.072V16.47a.429.429 0 0 0-.071-.108c0-.021-.011-.046-.038-.069V15.612a.276.276 0 0 0-.035-.106c-.024 0-.047-.011-.072-.036 0-.048-.011-.085-.036-.108V14.683c.025-.023.036-.046.036-.07a.446.446 0 0 0 .072-.109c.023 0 .048-.012.073-.035l.036-.035h.035v-.261c0-.024.012-.061.036-.108.023 0 .048-.012.072-.036a.231.231 0 0 1 .107-.107l.072-.071a.418.418 0 0 0 .072-.107l.071-.072c.047 0 .072-.012.072-.035.072-.024.131-.049.18-.073l.073-.071h.142c.072-.023.144-.048.215-.07a.452.452 0 0 0 .215-.108.271.271 0 0 0 .108-.036h.359c.048 0 .097.012.144.036a.15.15 0 0 1 .107.036h.073c.047.023.106.048.179.072.023.047.047.07.072.07.024.023.047.06.07.109h.109c.144-.025.287-.05.43-.073a.104.104 0 0 0 .036-.071H4.652l.018.018c.49.012.976.018 1.454.018.034.035.058.06.071.071l.018.019c.143.007.279.012.413.02.192.022.371.035.539.035l.071.071h.718c.023-.023.047-.048.072-.071h.035c.622 0 1.245-.013 1.867-.035h.107a.268.268 0 0 1 .107-.038l.18-.018v-.418h.465a.718.718 0 0 1 .217-.035c0-.023.011-.035.036-.035v-.036H11.325c.025 0 .037-.012.037-.035H11.829c.024 0 .036-.013.036-.037h.358c.12-.023.251-.035.395-.035.024-.023.049-.036.072-.036.023 0 .047-.013.072-.036h.286c.024 0 .048-.011.071-.036H13.227c.023 0 .046-.012.071-.036h.396c.143-.023.288-.036.43-.036.023-.022.048-.035.072-.035.022 0 .035-.012.035-.035h.503v-.036c.272.02.535.031.79.036h.144a.126.126 0 0 0 .036-.019c.182-.001.362-.007.539-.018H16.351l.035-.037h.144a2.52 2.52 0 0 1 .396-.035h.286a.156.156 0 0 1 .108-.035h.287c.024 0 .06-.013.108-.036h.25c.216 0 .42-.012.612-.035h.143c.024 0 .036-.013.036-.037H18.971c0-.024.012-.036.036-.036H19.329a.334.334 0 0 1 .143-.035h.36a.332.332 0 0 0 .143-.036h.287a.316.316 0 0 0 .143-.036h.143a.111.111 0 0 0 .073-.034H20.836c.024-.025.049-.037.072-.037h.288a.314.314 0 0 1 .143-.035H21.663a.329.329 0 0 0 .143-.036h.287c.192 0 .384-.013.575-.036h.107c.024 0 .048-.012.072-.036h.145l.036-.036h.251a.268.268 0 0 1 .107-.036h.214c.107 0 .216-.011.323-.036v.036h.144v.181l.036.035v.037l.037.034v.036c.047 0 .083.012.107.036.071 0 .131.012.179.035.024.024.048.036.072.036v.037c.072 0 .143.012.216.035a.78.78 0 0 1 .25.036h.395a.592.592 0 0 1 .18-.036c.024-.023.048-.035.072-.035l.036-.037a.324.324 0 0 0 .145-.036c.023 0 .047-.013.072-.035h.143c.022-.024.059-.036.108-.036a.316.316 0 0 1 .144-.036v-.034a.15.15 0 0 0 .107-.037c.023 0 .035-.012.035-.035h.145c.024-.024.06-.036.108-.036H26.762c0-.024.011-.036.035-.036v-.036c.048 0 .084-.012.107-.036.024 0 .037-.012.037-.036h.143a.15.15 0 0 1 .107-.036.332.332 0 0 1 .143-.036v-.035a.35.35 0 0 0 .145-.035v-.037h.071a.618.618 0 0 1 .179-.035c.023-.023.061-.036.108-.036v-.036c.024 0 .048-.012.072-.035v-.037h.18a.268.268 0 0 1 .107-.036.277.277 0 0 1 .108-.034l.035-.037a.271.271 0 0 0 .108-.036v-.035h.179a.271.271 0 0 1 .108-.036c.024-.024.049-.035.072-.035v-.036c.047 0 .083-.012.106-.036.025 0 .037-.011.037-.036h.108c.024-.024.048-.036.073-.036.024-.023.046-.035.071-.035l.036-.036a.338.338 0 0 0 .142-.035c.025 0 .048-.013.073-.036h.035c.024-.025.06-.037.108-.037.024-.022.047-.035.071-.035l.036-.036c.025 0 .06-.012.108-.035v-.036h.144c.024-.023.048-.036.071-.036a.327.327 0 0 1 .143-.035l.036-.037c.023 0 .047-.012.072-.035.024 0 .048-.013.072-.036h.036a.316.316 0 0 1 .143-.036c.024-.023.049-.036.072-.036v-.036c.024 0 .06-.011.107-.034v-.037h.144l.036-.034h.035a.309.309 0 0 1 .144-.037v-.035c.024 0 .047-.013.071-.036v-.037h.108c.024-.022.048-.034.072-.034a.304.304 0 0 1 .144-.036v-.048c.023 0 .047-.012.071-.036.023 0 .048-.012.071-.035h.073a.291.291 0 0 1 .107-.036c.024-.023.047-.035.072-.035v-.038a.329.329 0 0 0 .143-.034v-.036h.144c.023-.024.048-.037.071-.037a.335.335 0 0 1 .144-.035v-.037a.316.316 0 0 0 .144-.036v-.034h.072a.308.308 0 0 1 .143-.037c.023-.022.047-.035.072-.035l.036-.037c.023 0 .049-.01.071-.034v-.036h.108c.024-.025.048-.037.071-.037a.314.314 0 0 1 .144-.035v-.038c.026 0 .049-.011.073-.035v-.035h.107a.324.324 0 0 1 .144-.037c.024-.024.047-.035.071-.035v-.036c.024 0 .048-.012.072-.036.024 0 .048-.012.072-.035h.073a.302.302 0 0 1 .143-.037c.024-.023.048-.036.072-.036l.035-.035a.271.271 0 0 0 .108-.036v-.037h.108c.024-.023.047-.035.071-.035a.316.316 0 0 1 .144-.036v-.037c.023 0 .036-.013.036-.035v-.036h.107c.024-.024.047-.036.072-.036a.29.29 0 0 1 .107-.035v-.037c.024 0 .048-.011.072-.035v-.037h.144l.037-.036a.32.32 0 0 1 .142-.035v-.035c.025 0 .049-.013.073-.037.023 0 .048-.012.072-.036v-.035h.071a.316.316 0 0 1 .144-.036v-.037c.024 0 .047-.013.071-.036.024 0 .048-.012.072-.035h.037c.023-.024.058-.037.106-.037.025-.022.049-.036.074-.036v-.034a.328.328 0 0 0 .142-.036v-.037h.072a.301.301 0 0 1 .108-.037l.037-.036v-.034c.024 0 .047-.013.071-.036.024 0 .047-.012.071-.035h.036L36.52 8a.282.282 0 0 1 .108-.037v-.034c.024 0 .048-.013.071-.037v-.035h.106l.037-.035c.023-.025.047-.038.072-.038l.035-.035c.024 0 .048-.013.071-.035v-.038h.108c0-.023.011-.035.036-.035 0-.023.012-.036.036-.036v-.036c.023 0 .036-.012.036-.035v-.036h.107v-.036h.072v-.503c.121.004.239.01.359.018V6.6c.395.018.788.029 1.184.036V6.6c.188.021.369.033.539.036h.072v.359h.287v.035h.396v.037c.023 0 .034.012.034.035v.359l6.532.018v.054h.215c-.023-.023-.048-.036-.071-.036V7.48h.43v.018l-.036.036h2.189v-.036c.156-.002.312-.002.467 0v.036h.107v-.036h.431v.036h.251v-.036h.431v.036h1.256v-.036h.43v.036h.323v-.036c.299-.002.599-.002.898 0v.036h.395c.023.023.035.06.035.107a.429.429 0 0 1 .072.107h1.256a.288.288 0 0 1 .035.108v.072h.071c.025.023.062.059.108.107v.035l.036-.035h37.536l-.072-.073v-.14c.298.015.597.026.898.035l.072.072c.167.002.334.01.501.017v-.737c.072-.048.131-.083.18-.107v-.106c.79.022 1.579.035 2.368.035a.57.57 0 0 1 .11.144zm-62.655 6.997c-.039.006-.075.011-.107.019h.089l.018-.019zm1.578 1.149c-.023.023-.047.035-.071.035 0 .023.012.037.036.037v.681h.071v.144c.024.025.048.037.072.037 0 .023.012.036.034.036v.035c0 .023.014.034.037.034v.036c.023 0 .036.013.036.037.023 0 .059.011.106.035v.071h.036c.019 0 .037.007.054.02.031.005.06.012.09.018v.018a.065.065 0 0 1 .036.018c.048 0 .096.012.143.036v.036c.024.024.049.036.072.036.025 0 .061.012.108.036h.178c.241-.024.48-.036.72-.036a.659.659 0 0 1 .214-.036v-.072h.145c.119-.024.239-.035.357-.035.025-.023.049-.037.073-.037a.29.29 0 0 1 .107-.035v-.036c.023 0 .035-.012.035-.035v-.037h.144v-1.363A223.31 223.31 0 0 0 36.661 15v.321zm3.444-.844c-.284.003-.573.01-.859.018h.859v-.018zm-39.149.27c0 .023-.011.035-.036.035l-.036.035v.107a.246.246 0 0 1 .107-.107l.073-.143v-.035c-.001.024-.013.048-.037.072-.023.023-.048.036-.071.036zm.215-.252.072-.035v-.072l-.072.072v.035zm.359-.25c0-.018.005-.035.018-.054l-.018.018a1.351 1.351 0 0 0-.18.071c-.017.019-.04.041-.072.072h.144v-.072c.024-.024.06-.035.108-.035zm-.322 3.192c.008.01.02.021.035.036v-.036H1.21zm2.152 9.511a.394.394 0 0 1 .071.107.108.108 0 0 1 .036.071V26.984c.024-.024.036-.048.036-.072a.448.448 0 0 1 .037-.035 7.772 7.772 0 0 1-.216 0c.024.023.036.046.036.071z"
    clip-rule="evenodd"
  />
</svg>
