<svg xmlns="http://www.w3.org/2000/svg" xml:space="preserve" viewBox="0 0 37.75 32">
  <path
    fill-rule="evenodd"
    d="M37.073 2.483V2.857h.418V11.239H27.352l-.041.044v.123c-.028.029-.057.042-.084.042a.466.466 0 0 0-.124.083l-.043.041v.042a.31.31 0 0 0-.124.044c0 .026-.014.053-.042.082h-.041c-.027.029-.056.056-.083.083-.028 0-.043.015-.043.044v.041c-.027 0-.056.015-.083.042h-.083v4.046h.209v.712h-.043V17.206H14.339v.249c-.03.029-.043.056-.043.085a.497.497 0 0 1-.083.127v.666c-.027.028-.04.056-.04.084a.275.275 0 0 0-.127.125v.542a.357.357 0 0 0-.042.125c-.054.028-.082.054-.082.083v.666a.655.655 0 0 0-.167.126v.501c-.028 0-.07.026-.125.082V21.086c-.026.027-.041.055-.041.081a.3.3 0 0 1-.126.128v.248c-.026 0-.041.028-.041.084a.507.507 0 0 0-.084.125V21.959c-.027.028-.042.058-.042.085a.266.266 0 0 1-.125.125v.25c-.027 0-.04.029-.04.085a.42.42 0 0 0-.084.124V22.92c-.056 0-.111.026-.166.083-.029 0-.042.028-.042.084a.558.558 0 0 0-.085.124V23.63l-.166.083v.333c-.026.029-.07.07-.126.125V24.462a.554.554 0 0 1-.165.125v.335c-.028.027-.042.069-.042.123-.056 0-.083.029-.083.084V25.505a.686.686 0 0 0-.167.125v.458a.45.45 0 0 1-.127.084v.667l-.167.084v1.503h.045c.026 0 .041.013.041.04v.21l.041.042v.125c.028 0 .04.012.04.041v.042c0 .029.017.041.045.041v.044c0 .026.012.041.042.041v.042l.04.042v.167c.027 0 .056.014.083.04v.043l.043.043v.04h.042v.042c0 .029.013.041.042.041h.041v.048c.029 0 .042.012.042.041v.042h.083v.041c.028.028.056.043.082.043h.086v.041c0 .028.014.043.04.043H12.797v.041h.043v.043h.125v.041h.083c0 .027.015.043.043.043v.333h-.794v-.04h-.083l-.042.04h-.461a.99.99 0 0 0-.29.042h-1.042a.782.782 0 0 0-.208-.042v-.127H9.836a.414.414 0 0 0-.167-.041v-.165h-.375a2.09 2.09 0 0 0-.416-.043v-.086a1.747 1.747 0 0 0-.381-.04c-.139 0-.278-.015-.417-.043v-.041h-.25c-.333-.028-.68-.043-1.042-.043v-.083c-.336-.029-.64-.057-.919-.084-.026 0-.056-.027-.082-.083a3.13 3.13 0 0 1-.5-.04c-.029-.03-.057-.056-.084-.087-.167-.026-.335-.056-.502-.081-.024 0-.053-.029-.081-.085-.167 0-.335-.014-.499-.042a1.674 1.674 0 0 1-.085-.083c-.167-.029-.32-.056-.46-.085v-.08c-.112 0-.223-.014-.332-.041-.028-.03-.056-.056-.085-.085a1.612 1.612 0 0 0-.208-.082H2.7v-.627H.367V27.847H.2V25.093a.65.65 0 0 1 .167-.043V24.259c.025-.056.054-.083.081-.083a.316.316 0 0 0 .042-.125V23.635a.63.63 0 0 1 .167-.04V22.801c.056-.056.097-.081.126-.081v-.544a.653.653 0 0 1 .167-.042v-.539a.3.3 0 0 1 .122-.044v-.376a.43.43 0 0 0 .168-.081v-.335a.464.464 0 0 0 .125-.084v-.25a.255.255 0 0 0 .126-.125c0-.028.015-.056.042-.084v-.083c.055 0 .097-.013.125-.041v-.25a.268.268 0 0 0 .124-.127c0-.028.013-.054.043-.082v-.207a.498.498 0 0 0 .124-.084v-.334l.167-.083v-.252a.508.508 0 0 1 .125-.083v-.125c.026-.028.042-.054.042-.083a.471.471 0 0 1 .083-.125c0-.054.013-.099.042-.125l.083-.085c.029-.026.044-.067.044-.125V17.715c.054-.057.111-.085.164-.085v-.25c.029-.027.07-.069.126-.125v-.333a.489.489 0 0 0 .125-.083c0-.058.014-.084.042-.084v-.082a.48.48 0 0 0 .126-.085V16.378c.053-.025.111-.053.166-.081v-.126a.516.516 0 0 0 .127-.082v-.126c.029-.056.053-.081.083-.081a.414.414 0 0 1 .082-.126v-.251c0-.029.028-.056.083-.084.027-.027.044-.066.044-.123v-.086c.053-.056.096-.096.124-.125 0-.057.015-.083.042-.083v-.125a.28.28 0 0 0 .125-.125V14.462a.363.363 0 0 1 .167-.04v-.376a.48.48 0 0 0 .124-.083v-.666a.374.374 0 0 0 .168-.043v-.376a.349.349 0 0 1-.168-.042v-.25a.365.365 0 0 1-.164-.043c-.029-.029-.072-.068-.126-.124v-.124c0-.028-.014-.056-.043-.087l-.248-.083v-.085c-.057-.025-.112-.053-.168-.081a5.683 5.683 0 0 1-.125-.127v-.083c-.058-.029-.111-.056-.167-.082a1.363 1.363 0 0 0-.085-.085.348.348 0 0 0-.166-.041v-.083l-.167-.083v-.082a.823.823 0 0 0-.29-.044v-.083l-.168-.083L2.285 11a.37.37 0 0 0-.167-.041v-.083a20.933 20.933 0 0 1-.458-.084l-.085-.084a.458.458 0 0 0-.209-.041v-.083l-.582-.085V10.207H.368V8.658a.606.606 0 0 0 .118-.083v-.961c.167-.027.32-.041.461-.041V6.321a.39.39 0 0 0 .122-.085V6.028c.059-.056.1-.095.128-.124 0-.028.013-.056.04-.085V5.57c.056 0 .098-.015.125-.042v-.375a.452.452 0 0 0 .169-.085V4.86a.498.498 0 0 0 .125-.085V4.568l.167-.083v-.084c.056 0 .096-.014.124-.042V4.111a.345.345 0 0 0 .167-.044v-.082a.56.56 0 0 0 .125-.083V3.692c.056-.028.112-.056.168-.082v-.083c.055 0 .097-.015.126-.044v-.082c.054-.029.111-.056.164-.085v-.083c.056 0 .099-.013.126-.042v-.082a.369.369 0 0 1 .167-.042V2.65c.389 0 .779.014 1.168.043v-.752c4.756.025 9.51.041 14.267.041V2.399h.583v.084a.536.536 0 0 1 .127.083V3.275h5.255V1.941c3.56.025 7.103.041 10.636.041v-.041c.335.025.653.041.961.041h.917v.083c.056 0 .111.013.167.044v.248c.002.03.002.071.002.126zM17.55 11.704a1.408 1.408 0 0 0-.208.082.507.507 0 0 1-.126.085c-.029.026-.069.067-.125.123v.126a.456.456 0 0 1-.124.083v.211c-.056.027-.111.056-.167.081V12.704a.422.422 0 0 1-.127.083v.335a.428.428 0 0 0-.083.125l-.083.083v.25c0 .028-.014.055-.042.082-.026.029-.057.058-.083.084v.251c-.029.029-.042.071-.042.126l.042.085V14.415a.456.456 0 0 0 .083.124c.028.028.042.056.042.083v.126l.125.125c0 .028.013.069.041.125.028 0 .041.026.041.083.03.028.058.068.086.125v1.293h8.301v-.542c.221 0 .443.015.665.042V15.833c.03 0 .058-.014.085-.044v-3.754h-.377v-.123c-.025 0-.054-.015-.082-.041v-.044h-.083c0-.027-.013-.053-.042-.083v-.041c0-.029-.012-.042-.042-.042v-.044h-.124v-.083h-.084c0-.029-.015-.056-.042-.083l-.083-.042c-.028-.025-.057-.041-.084-.041a.278.278 0 0 0-.124-.04v-.085h-4.506V11.66a3.682 3.682 0 0 0-.167.082V13.579c.028.028.043.055.043.082.026 0 .04.015.04.045 0 .026.013.04.043.04 0 .03.013.042.041.042 0 .031.014.042.043.042v.084c.026.027.053.041.081.041l.084.083v.042c0 .028.014.043.042.043.027.028.042.056.042.085l.042.04h.084v.083c.027 0 .056.016.083.04l.042.044c.028 0 .054.012.083.04v.083h.081c.031.028.056.056.086.083v.042c.025 0 .056.015.081.043.056 0 .113.014.167.042v.083h.168a.529.529 0 0 1 .125.082v.044c.083 0 .153.011.208.04a.76.76 0 0 1 .209.042v.085h.583v.707h-1.334v-.044a.412.412 0 0 0-.167-.04 1.574 1.574 0 0 0-.208-.083v-.045a.186.186 0 0 0-.126-.04.379.379 0 0 1-.167-.042v-.041c-.027-.029-.069-.044-.125-.044-.057-.026-.112-.056-.165-.082v-.041l-.043-.04c-.028-.029-.056-.044-.084-.044v-.042a.5.5 0 0 1-.125-.081c-.028 0-.056-.015-.086-.043v-.083a.104.104 0 0 0-.081-.04c-.028-.03-.056-.044-.084-.044a.11.11 0 0 1-.04-.082l-.043-.042c0-.028-.012-.056-.041-.083-.027-.028-.057-.043-.084-.043v-.042c-.027-.028-.052-.056-.083-.083v-.042l-.082-.082-.043-.044v-.04c-.026 0-.053-.016-.082-.042v-.041l-.083-.084v-.04c0-.028-.03-.043-.085-.043v-.125h-.207v-.082c0-.029-.014-.043-.043-.043 0-.027-.015-.054-.04-.083v-.75c.053 0 .083-.013.083-.041V11.244h-.71v.167c-.141.029-.292.057-.46.084v.042a.519.519 0 0 1-.124.083v.084zM7.161 29.6a.46.46 0 0 1 .212.041V29.6a.918.918 0 0 0-.294-.044l.082.044z"
    clip-rule="evenodd"
  />
</svg>
