<svg xmlns="http://www.w3.org/2000/svg" xml:space="preserve" viewBox="0 0 98 32">
  <path
    fill-rule="evenodd"
    d="M96.885 14.225V15.34h-3.756v.113h-.446v-.113H87.7V15.676h-.186v-.074h-.149v-.261h-.52v.113h-.186v-.113h-.52V15.677H85.804v.037h-.186V15.193h-8.814c-.024 0-.037-.012-.037-.037-.024 0-.037-.013-.037-.037h-.185v.26h-.335c-4.462 0-8.925-.012-13.387-.038v.41c-.024 0-.049.012-.074.037v.596h.111v.333h-.111l-.037.038h-.038c0 .024-.012.037-.038.037v-.037c.025 0 .038-.013.038-.038h-.446v.075h-.372v-.335h-.706v.298h-.334v-.298h-.483v.26h-.372v-.26h-.559v.26h-.371v-.26h-.483v.26h-.372v-.26h-.559v.26h-.333v-.26H56.838v.335h-.334v-.335h-.559v.26h-.333v-.26h-.483v.26h-.41v-.26h-.521v.26h-.409v-.26h-.521v.223h-.333v-.223h-.522v.26h-.334v-.26h-.483v.26h-.335v-.26h-.558v.223h-.409v-.223h-.483v.26h-.334v-.26h-.633v.26h-1.152v-.26h-.41v.112l-.037.037v.037l-.038.037v.075c0 .024-.012.037-.038.037-.025 0-.037.012-.037.037H46.798a.701.701 0 0 1-.223.038c-.025.024-.063.037-.112.037l-.037.037c-.024.025-.061.037-.112.037l-.037.038h-.037a.719.719 0 0 1-.223.037c-.05 0-.1.012-.149.036l-.037.037v.037c-.025 0-.05.013-.074.039l-.075.037c0 .024-.012.037-.037.037l-.074.074h-.037c0 .024-.013.037-.038.037v.074l-.037.037h-.039v1.896l.112.11h.037c.024 0 .049.014.074.039.024 0 .037.012.037.037l.038.037c.024 0 .037.012.037.037v.706h-.037c0 .024-.013.038-.038.038v.037h-.297v.111H45.16V28.507h.074v.223h-6.731v-.595h-.036v-.038h-.297v-.446c.024 0 .049-.013.074-.038v-5.841h-.446c-.025 0-.05.013-.075.038-.025 0-.038.013-.038.038h-.037a.296.296 0 0 0-.111.036c-.05 0-.1.012-.148.038v.148c-1.587.025-3.173.038-4.76.038h-.373v.186l-.074.074v.038l-.038.037v.038h-.037l-.036.038v.074h-.038c0 .024-.012.037-.037.037v.074c-.024 0-.038.012-.038.038v.074h-.037l-.075.075v.037c-.024 0-.036.012-.036.037V23h-.038v.075h-.037v.036c-.024 0-.037.013-.037.037v.039h-.075v.074h.037v.111l.038.037v.038c.024 0 .037.012.037.036v.038h.037v.037c.025 0 .038.012.038.037v.446c-.025.025-.049.037-.075.037h-.557l-.038.037v.075c-.024 0-.037.013-.037.038v.037c0 .024-.012.037-.037.037l-.037.036v.039h-.038v.038c0 .024-.012.037-.037.037v.037l-.037.036v.038h-.037v.037h-.037v.073l-.037.038v.037h-.036v.038c0 .025-.013.036-.037.036v.038h-.038v.037c0 .025-.012.038-.038.038 0 .024-.012.037-.037.037v.076h-.038v.185c0 .025-.012.038-.037.038 0 .026-.013.038-.038.038v.037c-.024.024-.049.037-.074.037v.074h-.037v.075l-.037.038v.037c0 .025-.013.037-.038.037v.037c0 .024-.012.037-.037.037v.039l-.037.036c0 .025-.012.038-.037.038v.111c0 .025-.013.038-.037.038l-.039.037c0 .024-.011.037-.036.037v.037l-.038.038v.037h-.036v.038c-.026.024-.051.038-.076.038v.037l-.037.038c0 .024-.013.037-.037.037v.038c0 .024-.012.037-.037.037v.037c0 .024-.012.037-.038.037v.111c-.024 0-.037.012-.037.037v.038h-.038l.038.036v.037c.024 0 .037.013.037.039v.037h.038v.483l-.038.038c0 .024-.013.037-.037.037v.037h-.038v.067l-.038.037v.075l-.037.038h-.074v.037h-.559c-.023-.024-.061-.037-.111-.037-.025 0-.05-.013-.075-.038-.024-.025-.049-.038-.073-.038-.025-.025-.063-.037-.112-.037a.637.637 0 0 0-.186-.037v-.037a.729.729 0 0 0-.223-.037c-.074-.025-.137-.037-.186-.037h-.148a.269.269 0 0 0-.111-.037.707.707 0 0 0-.224-.038c-.024-.025-.062-.038-.111-.038a.267.267 0 0 1-.112-.037.307.307 0 0 0-.11-.038.352.352 0 0 0-.149-.037c-.025 0-.051-.013-.075-.039a.637.637 0 0 0-.186-.036.326.326 0 0 0-.148-.038h-.112v-.037a.33.33 0 0 0-.148-.037.305.305 0 0 0-.113-.038.327.327 0 0 1-.148-.037.34.34 0 0 0-.149-.036c-.024-.026-.062-.038-.111-.038a.329.329 0 0 0-.15-.037c-.074 0-.124-.012-.148-.039-.024-.024-.049-.037-.074-.037a.291.291 0 0 0-.111-.036h-.15a.568.568 0 0 0-.186-.038l-.036-.037v-.447h.036v-.148c.025 0 .038-.012.038-.037h.038c0-.025.012-.038.038-.038V25.9l.037-.037v-.037c.024-.025.049-.038.074-.038v-.111h.037v-.037h.075v-.074h.037v-.038c.025-.024.05-.038.074-.038v-.075h.037c.025 0 .037-.012.037-.037v-.037h.038v-.074h.037v-.074c.024 0 .037-.013.037-.038v-.036h.037v-.038c.025-.025.05-.037.075-.037v-.076h.038c0-.024.012-.037.037-.037l.037-.038v-.033l.038-.038c0-.024.013-.036.037-.036v-.149c.025 0 .037-.012.037-.037v-.038h.075v-.074l.074-.074v-.076c.026 0 .037-.011.037-.036.025 0 .038-.013.038-.037h.036c0-.024.013-.037.038-.037v-.112l.075-.074v-.037l.074-.074c.025 0 .037-.013.037-.037v-.038h.076v-.075l.037-.037v-.076l.038-.037v-.074h.037v-.037h.038l.074-.038v-.074l.037-.037v-.074h.037v-.037c.025 0 .037-.012.037-.037v-.037h.037l.038-.039v-.073h.037v-.15h.038l.037-.037v-.075H27.241V22.7h.036c0-.024.013-.037.037-.037v-.111h.037v-.037l.037-.038h.038v-.075c0-.024.012-.038.037-.038v-.111l.036-.037c0-.024.014-.037.039-.037v-.074h.075v-.074h.073c0-.024.013-.038.038-.038v-.038c.024 0 .037-.012.037-.037v-.111l.038-.038h.036l.075-.074v-.074h.075c0-.025.012-.038.037-.038v-.075h.037v-.036l.037-.038v-.037h.037c.025 0 .038-.012.038-.037v-.038l.037-.036c0-.026.013-.038.038-.038v-.073h.038v-.037l.036-.037c.025 0 .037-.014.037-.039h.038v-.037l.038-.037v-.075h.037v-.143h.037v-.038l.037-.037c.025 0 .038-.013.038-.037h.037l.074-.075v-.038c.025 0 .038-.013.038-.037v-.037h.038v-.075c.024 0 .037-.013.037-.038l.037-.037v-.037l.039-.038v-.037h.037l.037-.039c0-.024.013-.037.037-.037l.037-.037v-.038c.025-.024.049-.036.075-.036v-.038h.074v-.112h.038v-.112l.037-.037v-.074h.037c0-.025.013-.037.037-.037v-.298h.038v-.144l-.038-.038v-.148c-.024-.025-.05-.037-.074-.037v-.037c0-.025-.012-.037-.037-.037v-.037l-.038-.038c0-.024-.012-.038-.037-.038v-.037l-.038-.037h-.037l-.112-.074v-.038h-.045c-.025-.024-.05-.037-.075-.037l-.037-.037v-.075c-.025-.024-.062-.036-.112-.036l-.037-.038c0-.025-.013-.038-.038-.038-.024-.024-.049-.037-.075-.037 0-.024-.012-.037-.037-.037h-.037v-.036c0-.026-.013-.038-.037-.038-.026 0-.038-.012-.038-.037-.025-.024-.049-.037-.075-.037a168.099 168.099 0 0 0-3.532-.038v-.037c-.025 0-.038-.013-.038-.038v-.037c0-.024-.013-.037-.037-.037l-.148-.148c-.024 0-.049-.013-.074-.038H24.371c0-.025-.012-.038-.037-.038h-.112v.038H23.106v-.074c-.769 0-1.537.013-2.305.037-.025.025-.05.038-.075.038H20.131l-.074.074c-.024 0-.038.013-.038.038-.024 0-.036.012-.036.036h-.038c0 .025-.012.038-.037.038h-.037v.037l-.038.037c0 .025-.012.038-.036.038 0 .025-.013.037-.039.037v.038l-.036.037c0 .025-.012.037-.038.037v.074h-.074l-.039.037h-.031v.037l-.038.038c-.024 0-.037.012-.037.038-.025 0-.037.012-.037.036h-.037c-.025.025-.05.037-.075.037v.038c-.024 0-.037.012-.037.037h-.036v.037c-.026.026-.05.038-.076.038h-.074c-.025 0-.037.012-.037.037h-.037v.074l-.037.037v.038c0 .025-.013.038-.038.038v.037c-.025 0-.037.012-.037.037-.025 0-.038.013-.038.038h-.037c0 .024-.013.037-.037.037v.037c-.026 0-.038.013-.038.038h-.037v.074c-.024 0-.036.013-.036.038l-.075.074v.037c0 .025-.012.037-.038.037h-.037c-.024 0-.037.013-.037.038h-.037c0 .024-.013.037-.037.037v.037c-.025 0-.038.012-.038.038-.024 0-.037.011-.037.035h-.037v.039l-.037.037v.037c-.025 0-.038.012-.038.037h-.074v.036c-.025 0-.037.014-.037.038v.037h-.038v.039h-.037c0 .023-.012.037-.038.037-.024 0-.049.012-.074.037H17.9v.037c0 .025-.013.037-.037.037v.038h-.038v.038l-.036.036v.034l-.039.037c0 .025.013.05.039.075v.037c-.025.025-.039.05-.039.075s.013.037.039.037V21.254l-.075.074v.075h-.074v.075l-.074.074c-.025.025-.05.037-.074.037 0 .025-.013.038-.038.038s-.062.012-.111.037h-.075c-.024-.025-.049-.037-.074-.037-.024 0-.037-.013-.037-.038H6.111v-.039h-.074v-.074h-.033c0-.026-.013-.038-.038-.038v-.148h-.11v-.261a.834.834 0 0 0-.224-.037v-.296H3.513V23.484h-.372v-.036a13.489 13.489 0 0 0-1.042-.038v.26c-.025.026-.049.038-.075.038v.372h-.593c.024.001.036.013.036.037l.037.037h-.148l-.038.036H.686v-2.006h.186v-.298c0-.024.013-.036.037-.036V15.078H.872v-.038l-.038-.037c-.025-.024-.037-.05-.037-.074V13.439H.723c-.025 0-.037-.013-.037-.038v-.521H.499v-.335h.818v.037h.781v.335h-.111l.036.037H3.4v.261h.111V16.267h2.343V15.45H9.497v-1.004H6.671v-.075h-.372v-.445c-.025 0-.037-.013-.037-.039v-.297h-.034v-2.975c-.025 0-.038-.013-.038-.038v-.334c0-.024.012-.037.038-.037v-.146h.147v-.149c.05 0 .1-.013.149-.038V9.8a.666.666 0 0 0 .223-.038c.025 0 .038-.013.038-.038h10.04c.446-.025.893-.037 1.339-.037h.036v-.036c.248.025.508.037.782.037.222.024.433.037.632.037h1.338v.038h.299l.036.037h.037l.038.038c0 .024.013.036.037.036v.484c-.024 0-.037.012-.037.037h-.038v.075l-.037.037v.074c-.024 0-.036.012-.036.038l-.037.037c0 .024-.013.038-.039.038 0 .024-.012.036-.037.036l-.073.075v.037l-.076.073v.037l-.149.149h-.037v.076l-.075.036v.038l-.074.111h-.037v.037l-.074.075v.037l-.112.074v.039c-.025 0-.037.012-.037.037v.036c0 .025-.013.038-.037.038v.075h-.076c0 .023-.013.037-.036.037 0 .024-.012.037-.038.037l-.036.037h-.075v.075c-.025 0-.037.013-.037.037v.037h-.038v.112c-.024 0-.036.013-.036.037l-.075.074h-.037v.038c-.025 0-.038.012-.038.038l-.035.034c0 .025-.013.037-.039.037v.037c-.024 0-.036.013-.036.037l-.075.111h-.036v.038l-.075.074v.037h-.038v.075c-.024 0-.037.013-.037.038v.037h-.037c0 .024-.013.037-.037.037h-.038c-.025 0-.037.012-.037.038l-.037.037v.037h-.036l-.039.037v.037h-.038c0 .024-.012.037-.037.037l-.074.076h-.037v.037l-.037.036v.038h-.038v.037l-.037.038v.038l-.074.074h-.037l-.076.074c-.024 0-.036.012-.036.037h-.072l-.112.149h-.037v.038c-.025 0-.037.012-.037.036v.039h-.112l-.037.036c0 .025-.013.038-.038.038l-.037.033h-.074c0 .025-.013.038-.038.038-.025.025-.048.038-.074.038l-.036.036v.038h-.076c0 .025-.013.037-.037.037l-.074.075h-.039v.036c-.025.025-.049.037-.074.037h-.149v.039h-4.053v.11l-.037.038v.111l-.112.075v.707h4.611c0-.025.012-.039.038-.039v-.037c.024 0 .036-.012.036-.038h.038c.024 0 .049-.012.074-.037.024 0 .037-.012.037-.036h.039c0-.025.013-.038.037-.038v-.037c.025 0 .038-.012.038-.037.024 0 .037-.013.037-.037h.037c0-.025.013-.037.037-.037h.038l.074-.075h.037c0-.024.012-.037.037-.037v-.074c.025 0 .038-.013.038-.039v-.037c0-.024.012-.037.037-.037v-.037h.038c.024 0 .036-.013.036-.038l.038-.038v-.073c.025 0 .038-.014.038-.038h.037c.025-.026.049-.038.074-.038v-.037c.024 0 .049-.013.075-.037v-.037c0-.026.013-.039.037-.039v-.037l.037-.036h.037c0-.025.012-.037.037-.037v-.075c.025 0 .037-.012.037-.038h.038v-.074c.025 0 .039-.012.039-.038h.036l.037-.037v-.038c0-.024.012-.036.037-.036v-.075h.038l.037-.038c.024-.024.049-.037.073-.037v-.037l.038-.038h.036c0-.023.013-.037.039-.037h.036c.025 0 .038-.013.038-.037s.013-.037.038-.037v-.037h.036c0-.025.013-.038.039-.038v-.074c.024 0 .036-.013.036-.038.026 0 .038-.012.038-.037l.037-.038h.075v-.036l.036-.037v-.076c.025 0 .038-.013.038-.037.024 0 .037-.013.037-.037v-.111h.037l.038-.038c0-.025.012-.037.036-.037v-.037c.026 0 .038-.012.038-.038h.036v-.037l.037-.038v-.037c.025 0 .039-.012.039-.037l.037-.037h.037v-.038h.037c.025 0 .037-.012.037-.037l.077-.074v-.037c.024 0 .036-.013.036-.037.024 0 .037-.012.037-.037h.037c0-.025.013-.037.038-.037v-.075h.038c0-.025.012-.038.037-.038 0-.024.013-.037.037-.037.025 0 .038-.012.038-.037.024 0 .037-.012.037-.037h.037c0-.025.012-.037.038-.037v-.075c.025 0 .038-.013.038-.037.025 0 .038-.013.038-.038v-.037c.023 0 .036-.012.036-.037.024 0 .037-.012.037-.037h.037c.025-.026.05-.037.076-.037v-.029l.036-.036v-.038h.037c0-.024.012-.036.038-.036 0-.025.013-.037.037-.037v-.039h.038v-.11c.024 0 .037-.013.037-.038h.224v-.038H24.344v-.037h.037v-.038l.037-.037v-.036l.038-.038h.075v-.036c0-.025.013-.051.037-.076 0-.024.012-.05.037-.073v-.447l.075-.074H24.792v-.186c.025 0 .038-.012.038-.037a.281.281 0 0 1 .111-.038h1.711V9.8H25.016v-.707H27.321c0-.025.012-.037.037-.037l.037-.037c.025 0 .038-.013.038-.038v-.037h.037c.023-.024.062-.038.111-.038l.038-.036h.036c0-.025.013-.039.037-.039h.559c.024 0 .049.013.074.039h.037c.025.024.05.036.076.036v.038h.037l.037.075c0 .024.012.037.037.037v.334h2.417v.074h.075v.746h3.458V7.458h-.745c0 .024-.012.036-.037.036l-.047.038h-.037a.345.345 0 0 1-.149.037h-.037c0 .024-.013.037-.037.037s-.038.013-.038.038v.036h-.037v.038c-.025 0-.037.012-.037.037a.108.108 0 0 1-.075.036l-.037.038c-.026 0-.037.012-.037.037h-.112L33 7.904h-.148a536.837 536.837 0 0 0-6.47-.039v.039a.796.796 0 0 0-.261-.039h-.075V4.63h.446l.037.037c2.207 0 4.389.013 6.544.037v.074h.187v.037h.075l.037.037c.025.025.062.037.112.037l.074.039h.037a.34.34 0 0 0 .148.037v.075h.076c0 .025.012.038.037.038s.037.011.037.037c.024 0 .037.013.037.038h.559v-.746h2.714v.372h-.038V5.114H39.1v-.335h.074v-.111h.52v-.037c-.024 0-.049-.012-.073-.037v-.483l.036-.038v-.037l.037-.037V3.85c.1.025.199.037.299.037v-.484l.036-.037v-.297h1.488v.187h.186v.52c-.025 0-.037.013-.037.038V4h.223v.669h.559v.223h.036v.039h.037v.037l.038.037v.035l.037.038v.037h1.339V4.78h-.038v-.335H46.576v.632H48.695c0-.024.013-.038.039-.038a.28.28 0 0 0 .111-.037v-.036c.025-.025.049-.037.074-.037.025 0 .038-.014.038-.039h.223c.024-.024.061-.037.111-.037.05-.024.1-.037.149-.037h.075c.024 0 .05-.012.074-.037h.037l.038-.037h.074c.026-.025.05-.037.075-.037l.037-.037h.186a.301.301 0 0 0 .112-.037.292.292 0 0 1 .111-.037h.038c0-.025.012-.038.037-.038h.186V4.52h.038c.024-.024.049-.037.074-.037l.037-.037h.112a.316.316 0 0 0 .148-.038h.038a.406.406 0 0 1 .187-.038h.037c.024-.024.062-.037.111-.037a.283.283 0 0 0 .112-.037h.037c.024-.025.062-.038.111-.038a.664.664 0 0 1 .149-.037l.037-.038H52.12a.156.156 0 0 1 .111-.037h.038a.291.291 0 0 1 .111-.036.707.707 0 0 0 .224-.038v-.036h.037c.024-.024.049-.037.074-.037v-.038h.261a.414.414 0 0 0 .186-.037h.037a.418.418 0 0 1 .186-.038h.037c.024-.024.074-.037.149-.037h.148a.722.722 0 0 1 .223-.036.606.606 0 0 1 .185-.038l.037-.036H54.388c.025 0 .037-.013.037-.039l.037-.037v-.074h.037v-.036h.334v.148c1.884-.024 3.781-.037 5.689-.037h.558V8.906h-.373v-.035h-6.325a.704.704 0 0 0-.224-.039c-.024 0-.037-.012-.037-.037a.42.42 0 0 0-.185-.037h-.075a.424.424 0 0 1-.187-.038v-.036c-.024-.025-.061-.038-.11-.038a.34.34 0 0 0-.149-.036l-.037-.038a.695.695 0 0 0-.223-.037l-.074-.038c-.026 0-.05-.012-.074-.037a.349.349 0 0 0-.15-.037h-.149c-.024-.025-.061-.038-.11-.038a.29.29 0 0 1-.112-.038.28.28 0 0 0-.111-.037c-.049-.025-.1-.037-.149-.037s-.098-.012-.148-.037v-.035a.298.298 0 0 0-.111-.039.428.428 0 0 0-.186-.036.337.337 0 0 1-.148-.037.294.294 0 0 0-.112-.038h-.185a.571.571 0 0 1-.149-.037.708.708 0 0 0-.223-.039.173.173 0 0 0-.114-.035.34.34 0 0 0-.149-.036c-.051 0-.086-.014-.112-.039a.292.292 0 0 0-.111-.037h-.038a.323.323 0 0 0-.148-.038v-.035h-.076v-.037h-.073a.29.29 0 0 0-.112-.038c-.049 0-.085-.012-.111-.037a.343.343 0 0 0-.149-.038.327.327 0 0 0-.148-.037.395.395 0 0 0-.186-.037h-2.752v.037h-.147v.371a.727.727 0 0 1 .037.222V9.688a.422.422 0 0 1-.037.186v.335h14.725V9.39l-.037-.037v-.595h.186v-.074h2.565v.036h.298c.025 0 .049.013.075.038h.037v.037l.037.037c.025 0 .05.013.073.039v.036h.039l.038.038c.049 0 .074.013.074.037v.038h.036c0 .024.013.037.039.037a.28.28 0 0 1 .111.037V8.72h.074v-.036h.93l.037.036v.038h.074v.148h.039v.038l.036.037c.025 0 .037.012.037.038v.074h.037v.074h.037v.075c.025 0 .039.012.039.037v.075h.036v.037c0 .025.013.037.037.037v.037h.037v.112c.025 0 .038.013.038.037v.149l.034.037v.409h3.012c.024-.025.049-.038.075-.038.024 0 .061.012.111.038h6.62v.26c.173.024.334.037.483.037v.335h-.41v.223c0 .025.013.037.038.037h.26v.112h.036v.371h-.073V13.705h9.111v-.372h.521v.298h.742v-.298h.224v.075l.037.075v.036l.111.112c.025 0 .038.012.038.037.024-.025.049-.025.074 0v-.371h.187v.036h.148v.075c.024 0 .037.013.037.038v.223h4.797v-.223h.409v.223h3.942v.484l-.001.072zm-33.579-4.016h1.525v-.224h-1.525v.224zM43.895 5.486l.038.037v-.037h-.038zm-3.903 2.269h-.856v-.261H37.24v.038h-.076v.707a.42.42 0 0 0 .038.187v.222a.726.726 0 0 0-.038.224v.223h.076c2.229.025 4.461.037 6.693.037V7.533a10.648 10.648 0 0 0-.893-.038h-.558v.261h-1.004v.297a28.114 28.114 0 0 0-1.486-.037v-.261zm-6.62 11.266v.149h-.037v.26c-.025.025-.05.038-.075.038 0 .023-.012.035-.037.035v1.413h.037c0 .024.014.037.038.037v.111l.074.076v.074l.038.036c.024 0 .037.012.037.038.025 0 .037.012.037.036l.036.038c.025.025.051.037.075.037h.038v.037l.037.038c.024 0 .049.013.073.036.026.026.05.038.076.038.024.025.049.037.074.037.05 0 .099.013.148.038h3.124c.026-.025.051-.038.076-.038a.327.327 0 0 0 .148-.037c.024-.025.061-.038.111-.038v-.074c.025-.025.05-.037.075-.037h.038v-.109h.036v-.038l.075-.073v-.037c.025-.025.05-.037.075-.037v-.039h.036V19.654l-.036-.037v-.298c-.025 0-.037-.012-.037-.037-.025 0-.038-.012-.038-.037h-.038l-.037-.038v-.074c0-.025-.013-.037-.036-.037v-.075l-.075-.074h-1.712v.037c-.024 0-.037.012-.037.037h-.038l-.036.038c-.025 0-.038.012-.038.037-.024 0-.037.012-.037.037h-.037c-.026 0-.05.013-.075.038-.025 0-.038.011-.038.037-.024.024-.049.038-.073.038l-.039.037c-.024 0-.037.012-.037.037h-.038v.038c-.024 0-.037.012-.037.037h-.037v.037l-.073.112c-.026 0-.039.012-.039.037h-.036l-.074.074c-.024 0-.049.011-.075.036v.038l-.038.037v.039l-.037.037v.037l-.074.074v.038l-.037.038v.071l-.038.037v.037l-.036.039v.111c-.025.024-.051.037-.075.037v.149c.024 0 .037.013.037.037.024 0 .038.013.038.038v.223l.036.037v.222h.038v.076c.025 0 .037.012.037.037v.037c0 .024.012.036.038.036.024 0 .037.012.037.038v.186h-.333l-.038-.038v-.037h-.111v-.037h-.038l-.074-.074v-.074l-.038-.037v-.074h-.036v-.039c-.023 0-.037-.012-.037-.037v-.074l-.037-.037v-.149h-.038v-.261l-.037-.037v-.112h-.037V19.243l.037-.038v-.26h-.298v.037H33.41v.037h-.038zm-11.23-7.213c0-.026.014-.039.039-.039v-.036h-.039v.075zm-18.63 5.353V20.102h2.119v-.224h.224v-.038h-.037v-.707c0-.025.012-.037.038-.037v-2.084H3.513l-.001.149zm11.193 2.679h.074c0-.024-.012-.037-.038-.037l-.036.037z"
    clip-rule="evenodd"
  />
</svg>
