<svg xmlns="http://www.w3.org/2000/svg" xml:space="preserve" viewBox="0 0 89.667 32">
  <path
    fill-rule="evenodd"
    d="M26.496 2.11h.044c0-.03.015-.045.046-.045v-.044h.089v-.089h.045l.044-.045v-.179l.046-.045V.81h.449V.675h.627V2.515h1.077v-.314h.627v.18l.045.045v.134a.56.56 0 0 1 .315 0V1.887h.089v-.046h.853v-.045h.628V2.558h4.62V2.11h3.05V1.483h.628v.494c0 .029.016.044.045.044v.18h.448v.807c-.029 0-.06.015-.09.045v.089h-.044v.18c-.03 0-.045.014-.045.044v.045c-.03 0-.045.015-.045.045v.09h-.044v.044l-.046.045v.09l-.044.045v.044l-.046.046v.09h-.045v.045l-.045.044-.045.089c0 .032-.014.046-.044.046 0 .029-.015.045-.045.045v.135l-.045.045v.045h-.045v.133h-.045v.091h-.044v.089c-.03 0-.045.015-.045.044v.045h-.045v.046l-.045.044v.135h-.045v.046c0 .029-.014.044-.044.044v.134c-.03 0-.045.016-.045.046v.044h-.045v.089h-.044v.091H39.1v.044c-.029 0-.044.015-.044.045v.134h-.046v.045h-.045v.089l-.045.045h-.045v.135h-.045v.089h-.045v.18h-.045c0 .03-.015.045-.044.045v.045l-.046.045-.044.089c-.03 0-.045.015-.045.045v.045c-.03 0-.045.015-.045.045v.045h-.044v.135h1.524v.404h6.101v.404h26.284v.224h.358v-.269h.315V2.914H73.996v.045h.135l.044.045v.314h.314c.031.029.06.044.09.044v.992h.313v.358h.09V7.314h.358c.12.03.225.045.315.045h.134V8.347h.224v.089h1.84v.179h.089v.628h-.896v.269l-.09.045v.045h.897v.627h-2.064v.135h8.657v-.314h4.486v2.107h.089v.628h-5.382v.045h-.627c0-.03-.015-.045-.045-.045h-.047v-.403h-7.714v.448h-.135v.269h-.359v.046c-.03 0-.06.014-.09.045V15.342h-.628v-.044h-.089a3.535 3.535 0 0 0-.583-.046h-.179l-.089-.044v-.718c.03 0 .06-.015.089-.045V13.145h-.269c-.03-.03-.074-.046-.135-.046v-.269H72.337c0 .03-.017.044-.046.044V14.265h-.044v.135h-.583v.044h-.045v.09h-.045v.09l-.089.089v.045c-.03 0-.044.015-.044.045V15.609h-.494l-.047.048h-.045v.09h-.044v.224h-.763l-.045-.046c-6.16-.029-12.334-.044-18.524-.044v.179h-.718v-.089h-.045v-.09c-.029 0-.044-.015-.044-.045l-.045-.045v-.044h-.044v-.09c0-.03-.016-.045-.045-.045-2.213-.03-4.425-.045-6.638-.045h-.044l-.045.045c-.031 0-.045.015-.045.045h-.09l-.044.044c-.03 0-.06.016-.09.046h-.09c0 .029-.015.044-.044.044l-.045.045h-.044c-.03.03-.06.045-.09.045 0 .029-.015.044-.044.044l-.045.046h-.089v.044c-.03 0-.06.015-.089.045-.031 0-.061.016-.091.045l-.045.044c-.03 0-.06.016-.089.046l-.046.044h-.044c-.03.03-.06.045-.09.045 0 .03-.015.045-.044.045l-.046.044h-.044c0 .031-.015.046-.045.046l-.045.044h-.044c-.031 0-.046.015-.046.045l-.044.045h-.045c-.03 0-.045.015-.045.044l-.044.046v1.346h.358v.627a5.41 5.41 0 0 0-.672.046h-.045v1.255h.045v.405h.044v.403l.046.045v.313c0 .03.015.045.044.045v.314h.045v.493l.045.045c0 .03.015.044.044.044v.449c0 .031.015.045.046.045v.045l.044.045v.224l.045.045v.134l.045.045v.045l.044.044v.224l.046.045c0 .03.014.045.044.045v.225h.045v.045c0 .029.015.044.045.044v.135l.044.045v.044l.046.045v.045h.044v.314l.09.044v.18c0 .029.015.044.044.044v.135h.046v.089l.044.09v.045h.045v.179h.045v.09l.091.089v.179c0 .031.014.045.044.045 0 .03.015.045.045.045v.134l.045.045v.09h.044v.224h.045v.09l.044.09v.09l.045.044v.09c0 .03.015.045.045.045v.045h.044v.134c.03 0 .045.015.045.045l.044.045V27c0 .03.015.045.045.045v.089c0 .03.015.045.045.045l.045.09v.089c.03 0 .045.015.045.045v.045l.044.045v.089c0 .03.015.045.045.045v.045h.045v.179l.045.045v.089c0 .031.015.045.045.045v.045c0 .029.015.045.044.045v.045h.045v.179l.089.045v.044l.045.045v.135c.03 0 .044.014.044.044v.045c.03 0 .045.015.045.045v.045h.045c0 .03.015.045.045.045v.044c.03 0 .06.015.09.045l.045.045v.628h-.045v.089h-.225v.09a.843.843 0 0 0-.269.045h-.045c-.031.03-.06.045-.09.045a.357.357 0 0 0-.135.044h-.044c-.03 0-.06.015-.09.045l-.044.045h-.135a.35.35 0 0 0-.135.045c-.03 0-.06.015-.089.045h-.045l-.09.089h-.134a.342.342 0 0 0-.134.045v.045c-.03 0-.06.015-.09.045h-.09l-.044.044h-.045c-.03 0-.06.015-.089.045h-.046c-.029 0-.059.015-.089.045-.03 0-.059.015-.089.045h-.135c-.029 0-.06.015-.089.045l-.046.044h-.089a.345.345 0 0 1-.135.045.366.366 0 0 0-.134.045.342.342 0 0 0-.134.045h-.045c-.029 0-.06.015-.089.045h-.046c-.03.029-.06.044-.089.044h-.045c-.06 0-.09.015-.09.045-.029 0-.059.015-.089.045h-.089c-.031.029-.06.045-.09.045s-.075.015-.134.045h-.09c-.03 0-.045.014-.045.044-.03 0-.06.015-.09.045h-.049l-.044.045h-.134a.85.85 0 0 0-.27.045v.045h-.089v.044a.403.403 0 0 1-.18.045h-.135v.045c-.03 0-.06.015-.089.045l-.09.045h-.134c-.03 0-.06.014-.09.044v.045h-.09c-.029.03-.059.045-.089.045-.06 0-.105.015-.135.045h-.268v.045c-.06 0-.105.014-.135.044h-.896V31.4h-.045c0-.03-.015-.045-.044-.045v-.179c-.03 0-.045-.016-.045-.045l-.045-.045v-.179c-.03 0-.044-.015-.044-.045v-.179h-.045v-.179h-.044v-.314h-.091v-.27h-.044v-.134h-.045v-.09l-.044-.044v-.045c-.03 0-.045-.015-.045-.045v-.09h-.046v-.179l-.089-.09v-.224h-.044v-.09c0-.031-.016-.044-.045-.044v-.09c-.03 0-.046-.015-.046-.045v-.089c-.029 0-.044-.015-.044-.045v-.09l-.045-.045v-.268h-.089v-.314l-.046-.045v-.089l-.044-.045v-.179c0-.031-.015-.045-.045-.045v-.09h-.044v-.27l-.045-.044v-.09h-.046c0-.03-.015-.045-.044-.045v-.18h-.045v-.134l-.044-.045v-.179l-.045-.045v-.045c-.031 0-.045-.014-.045-.045v-.18c0-.03-.016-.045-.045-.045v-.089l-.045-.045v-.09c-.03 0-.044-.015-.044-.044v-.09l-.045-.045v-.135l-.045-.045v-.09l-.05-.046v-.09h-.046v-.179l-.044-.045v-.134l-.045-.045v-.09h-.045v-.089l-.045-.045v-.135l-.045-.044v-.09c0-.03-.014-.045-.044-.045v-.18h-.045v-.314c0-.029-.015-.044-.045-.044v-.135l-.045-.044v-.09c-.03 0-.045-.015-.045-.045v-.134h-.044v-.359c-.03 0-.046-.014-.046-.044h-.044v-.27c-.029 0-.044-.015-.044-.045v-.358l-.046-.045v-.224l-.044-.045v-.223h-.045v-.181l-.045-.044v-.404c0-.03-.016-.044-.044-.044v-.047h-.045v-.404h-.044v-.314h-.045v-.134c0-.03-.014-.045-.044-.045v-.224c-.03 0-.044-.016-.044-.045v-.134c-.031 0-.045-.015-.045-.045h-6.997v.224l-.045.045v.044h-.089v.09l-.046.045v.089l-.044.045c0 .03-.015.045-.045.045 0 .03-.015.045-.044.045v.224c-.03 0-.045.015-.045.045h-.09v.134l-.045.045v.045l-.089.089v.091c-.03 0-.046.015-.046.045v.134h-.048v.044l-.045.046v.044l-.044.045v.045c-.029 0-.045.016-.045.044v.046h-.046v.044c0 .03-.014.045-.044.045l-.045.045v.134l-.089.089v.045h-.047v.09c-.028 0-.044.015-.044.045v.044l-.134.09v.09l-.09.044v.135h-.045v.045h-.044v.044c0 .031-.016.045-.044.045 0 .03-.016.045-.046.045v.09l-.044.044v.045l-.045.045c-.03 0-.044.015-.044.045v.045h-.044l-.046.044v.09c0 .03-.015.045-.045.045 0 .029-.015.045-.045.045l-.044.089v.045c-.029 0-.044.015-.044.045v.045l-.045.044h-.045v.045l-.045.045v.135h-.089v.09c-.031 0-.045.015-.045.045v.044l-.045.045v.09h-.045v.045l-.044.044h-.044v.18c-.031 0-.046.015-.046.044-.029 0-.045.016-.045.045v.09l-.045.045v.044c0 .031-.014.045-.044.045v.09l-.045.045v.089c-.03 0-.045.015-.045.045v.134c0 .031-.015.045-.044.045v.179c-.03 0-.06.015-.09.045v.314l-.044.045v.089h-.045v.583c0 .029-.015.044-.044.044v.045h-.673v-.045c0-.029-.016-.044-.045-.044l-.045-.045h-.09c-.029-.03-.06-.045-.09-.045v-.045h-.05v-.045h-.134c-.03-.029-.06-.044-.09-.044-.03-.03-.06-.045-.089-.045h-.089v-.045c-.03-.03-.061-.045-.09-.045h-.089c-.03-.03-.06-.045-.089-.045v-.044h-.135v-.045h-.089c0-.03-.016-.045-.045-.045-.03-.03-.06-.045-.089-.045h-.092c-.031-.031-.061-.045-.091-.045v-.044h-.134c-.03-.03-.075-.045-.134-.045l-.089-.09h-.135l-.045-.045h-.045c-.03 0-.044-.015-.044-.044l-.09-.045-.045-.045h-.045c-.03-.03-.06-.045-.089-.045-.029-.03-.075-.045-.135-.045-.03-.029-.06-.044-.089-.044l-.045-.045h-.09c-.03 0-.044-.015-.044-.045l-.045-.045h-.045v-.045h-.134c-.03 0-.06-.015-.09-.044l-.09-.045c-.03 0-.044-.015-.044-.045h-.135l-.045-.045h-.089v-.045h-.135v-.044h-.044a.342.342 0 0 0-.134-.045c-.031-.03-.061-.045-.09-.045v-.045h-.133c0-.029-.016-.045-.046-.045-.029-.029-.059-.044-.089-.044h-.135v-.045c-.029 0-.06-.015-.089-.045h-.044a.403.403 0 0 0-.18-.045c0-.029-.015-.045-.044-.045-.03 0-.061-.015-.091-.044v-.045h-.089c-.029-.03-.059-.045-.089-.045h-.09v-.045h-.045l-.044-.045v-.044h-.135v-.135h-.045V23.1h.045v-.135c0-.031.015-.045.045-.045v-.134h.045v-.179c.03 0 .044-.015.044-.045h.044c.03 0 .045-.015.045-.045v-.089l.045-.045v-.045l.045-.045c0-.031.015-.045.044-.045v-.044l.044-.045v-.09h.045v-.045h.044v-.044l.046-.045v-.09h.045V21.8l.044-.044v-.045l.135-.134v-.045h.044v-.089l.089-.09h.044c0-.03.015-.045.046-.045v-.045l.089-.09c.03 0 .045-.014.045-.044v-.045c0-.03.015-.045.044-.045.03 0 .046-.014.046-.044.029 0 .044-.016.044-.045l.089-.045v-.045l.044-.045c0-.03.015-.044.046-.044v-.045c0-.03.015-.045.044-.045v-.045h.044v-.046c.03 0 .06-.014.089-.044v-.045c.031 0 .046-.015.046-.045h.044l.044-.09c0-.03.015-.044.045-.044l.044-.045c0-.031.015-.045.045-.045v-.045c.031 0 .046-.015.046-.045l.044-.044c.03 0 .045-.015.045-.045.029 0 .044-.015.044-.045v-.045c.03-.03.061-.045.09-.045v-.044c0-.03.016-.045.045-.045l.045-.045v-.045h.044v-.089c.031 0 .045-.015.045-.045h.045v-.045l.045-.045h.045c0-.03.015-.045.044-.045v-.044l.135-.135v-.045c.029 0 .045-.014.045-.044l.044-.045c.03 0 .045-.016.045-.045h.045l.09-.09c.029 0 .044-.014.044-.044v-.045l.045-.045c.031 0 .045-.015.045-.045v-.045h.044v-.044h.045v-.045l.044-.044c0-.03.015-.046.045-.046l.045-.045v-.044c.03 0 .044-.015.044-.045.03 0 .045-.015.045-.044v-.09l.045-.045h.044v-.089h.045v-.09l.044-.045c.03 0 .045-.015.045-.045v-.09l.044-.044c.031 0 .045-.015.045-.045v-.179c.031-.03.061-.045.089-.045v-.225c.03 0 .045-.015.045-.045v-.403h-.045v-.225c-.029-.03-.059-.045-.089-.045v-.134h-.045v-.045l-.037-.049v-.044h-.045l-.179-.18c0-.03-.016-.044-.045-.044l-.044-.046v-.044h-.045c-.03-.03-.061-.045-.09-.045h-.045c-.029-.03-.059-.045-.089-.045 0-.03-.014-.044-.045-.044h-.044c-.03-.03-.074-.046-.135-.046-.031-.029-.06-.044-.089-.044a.85.85 0 0 0-.27-.045h-.045v-.045h-.09a.336.336 0 0 0-.134-.044h-.09c-.03-.03-.06-.046-.089-.046v-.044h-.179a.396.396 0 0 0-.18-.045.342.342 0 0 0-.134-.045h-.359v-.179h-.224V13.551h-.494v.092h-.313V15.166l.044.045v.627h-.224v.135h-2.961v.897h-.089v.269h-.628v-.044h-.089v.044a.735.735 0 0 0-.224.045h-.942v.045l-.045.044v.405h-.088v.268l-.045.046v.134c-.12 0-.254.015-.403.044h-1.121v-.492h-.046c-.029 0-.044.015-.044.044l-.09.09-.044.045c-.031 0-.046.015-.046.045h-.178c-.032.029-.046.06-.046.09-.06 0-.089.014-.089.044a.325.325 0 0 1-.135.045c-.029.03-.044.06-.044.089-.03 0-.045.016-.045.046h-.179l-.089.089c-.03 0-.044.015-.044.045-.031.029-.061.044-.09.044v.09c-.06 0-.089.015-.089.045-.061 0-.105.015-.135.044-.03.03-.06.045-.089.045v.09c-.061 0-.105.016-.135.045l-.044.044c-.06.03-.089.061-.089.09-.031 0-.046.015-.046.045-.059.03-.089.06-.089.089h-.136c-.029.03-.044.061-.044.09l-.044.045a.345.345 0 0 1-.135.045c-.029.03-.044.059-.044.089l-.089.045c-.03.03-.045.061-.045.09-.031 0-.045.014-.045.044-.059 0-.104.015-.134.045v.045c-.031.03-.061.045-.09.045l-.089.089v.045l-.089.09v.045l-.135.134v.09H7.489v-1.659H7.4l-.045.044a.395.395 0 0 1-.179.045v.135a.415.415 0 0 1-.18.044c-.03 0-.06.016-.09.045 0 .03-.015.044-.044.044-.031.03-.075.045-.135.045-.029.03-.06.045-.089.045v.09a.344.344 0 0 1-.135.044c-.06 0-.09.015-.09.045s-.015.045-.045.045c0 .03-.015.045-.044.045v.046h-.09v.089c0 .03-.015.045-.044.045-.061 0-.104.015-.135.045l-.045.045-.09.089-.044.045v.045h-.09c-.03.03-.044.059-.044.089v.045h-.059c-.029.03-.059.045-.089.045 0 .03-.014.045-.045.045 0 .03-.015.059-.044.089l-.09.09c-.03.031-.045.061-.045.09-.06 0-.089.014-.089.044l-.045.045c-.029.03-.059.045-.09.045 0 .03-.014.06-.045.09l-.044.044-.09.09v.045l-.09.089c0 .03-.015.045-.044.045-.03.03-.045.06-.045.09-.029 0-.045.015-.045.045-.03.029-.045.059-.045.089-.03 0-.06.015-.088.045v.045c-.031.029-.045.059-.045.089h-.09v.09c-.03 0-.059.015-.089.044 0 .03-.016.061-.045.09-.029 0-.045.015-.045.045s-.014.045-.045.045v.09h-.048c-.03.029-.074.044-.134.044v.045c0 .03-.015.061-.045.09 0 .03-.015.046-.044.046v.135c-.06 0-.105.015-.133.045v.045l-.091.09v.044c0 .032-.014.045-.044.045 0 .03-.015.06-.045.09v.089c-.059 0-.09.015-.09.045v.09c-.029 0-.044.015-.044.045l-.044.044c-.03.031-.045.062-.045.09l-.044.045v.045c-.03.031-.046.06-.046.089v.09c0 .029-.029.045-.088.045v.134c0 .03-.016.06-.045.09v.134c-.03 0-.06.015-.09.045v.269h-.313c-.329-.03-.644-.045-.942-.045h-.359c-.06 0-.09-.015-.09-.045v-.09c-.029-.029-.044-.06-.044-.089-.031 0-.046-.015-.046-.045v-.404c-.03-.03-.06-.045-.089-.045v-.314l-.045-.044v-.314l-.09-.045V21.71c0-.03-.014-.044-.044-.044 0-.03-.015-.06-.044-.09v-.224H.936v-.538c0-.03-.015-.06-.046-.089v-.314c0-.03-.015-.059-.044-.089-.03 0-.044-.015-.044-.045v-.36l-.052-.044v-.045l-.044-.045V18.886c0-.029-.031-.045-.09-.045V18.304c-.03 0-.044-.015-.044-.045V17.677c0-.03-.016-.061-.045-.09v-.044l-.045-.046v-.492c0-.03-.015-.045-.046-.045v-.045l-.044-.044V16.061H.301v-.718c-.029-.03-.045-.059-.045-.09V13.73c-.029-.03-.045-.062-.045-.089l-.044-.046V10.771c.03 0 .044-.015.044-.044l.045-.045V9.736c0-.03.016-.059.045-.09v-.717c.03 0 .06-.015.089-.045v-.046c.449 0 .897.015 1.346.045v.089h.091v.045l.044.045v.673h18.524c.031 0 .046-.015.046-.045l.044-.045h.045c.029 0 .044-.015.044-.044v-.045h.09v-.045l.045-.09h.045l.044-.089h.045l.045-.045.09-.045v-.045c.03 0 .059-.014.09-.044l.045-.045h.045v-.045c0-.03.014-.045.045-.045h.044v-.045l.09-.089c.03 0 .045-.015.045-.045.029 0 .045-.015.045-.045.029 0 .044-.014.044-.045l.09-.089c.03 0 .044-.015.044-.045h.045c0-.03.015-.045.044-.045v-.046l.09-.044c0-.03.015-.045.044-.045h.045l.227-.225v-.044h.044l.045-.044h.045c0-.03.016-.046.044-.046v-.045c.03-.03.06-.045.091-.045.03-.03.059-.045.089-.045s.059-.015.089-.044l.09-.09h.134v-.405c.029 0 .06-.014.09-.044v-.133h.628v.089h6.548V6.91c0-.03-.015-.045-.044-.045V6.82l-.043-.044v-.673h-.315v.449c-.029 0-.045.014-.045.044h-.627v-.179l-.045-.045v-.269h-1.793v.404h-.044v.089h-.628v-.314h-.089V2.38h.089V2.2l.045-.045V2.11zM42.06 15.611l.044-.045h-.044v.045zm-8.882.808h-2.826v.044l-.044.09h-.045v.134c-.03 0-.044.015-.044.045v.18l-.044.045v.135h-.046v.178c0 .031-.014.046-.044.046v.673h.044v.089l.046.045v.09h.044v.178h.044v.584h2.557v-.27h.045v-.044c.03 0 .044-.016.044-.046h.044l.09-.089h.045v-.045l.089-.044c0-.03.016-.046.046-.046l.089-.089h.134l.044-.045c0-.03.015-.044.045-.044l.089-.09c.031 0 .046-.015.046-.045.03 0 .059-.015.09-.045v-.044h.089v-.046c.03 0 .045-.015.045-.044h.09V17.092l-.045-.046c0-.029-.015-.044-.044-.044 0-.03-.015-.045-.045-.045l-.089-.045c-.031 0-.06-.015-.09-.044v-.046c-.03 0-.046-.015-.046-.044h-.044c-.029-.03-.06-.045-.09-.045v-.089c-.029 0-.059-.015-.09-.046-.03 0-.044-.015-.044-.044l-.044-.045h-.045l-.044-.045c0-.031-.016-.045-.046-.045zm-4.709.673c-.03 0-.044-.015-.044-.046-.03 0-.044-.015-.044-.044v-.045h-.314v1.345l.044.045c.031 0 .046.014.046.044h.043v.09h.045v.045l.045.044v.045h.09v.046l.089.044h.045v.045c.029.03.06.044.09.044h.044v.045h.044l.089.045v.09h.628v-.09h-.089v-.09c-.029 0-.044-.014-.044-.044v-.045h-.046v-.044c-.03 0-.044-.016-.044-.046h-.045v-.089l-.044-.045v-.09c-.03 0-.06-.015-.09-.044v-.134h-.045v-.135l-.045-.045v-.09l-.089-.089v-.045h-.046v-.044c0-.03-.014-.046-.044-.046 0-.029-.016-.044-.045-.044v-.09l-.044-.044v-.046h-.044v-.089l-.046-.045v-.09h-.044v-.044c-.03 0-.045-.015-.045-.045v-.09z"
    clip-rule="evenodd"
  />
</svg>
