<svg xmlns="http://www.w3.org/2000/svg" xml:space="preserve" viewBox="0 0 99.75 32">
  <path
    fill-rule="evenodd"
    d="M37.502 4.18c.024-.024.037-.048.037-.074.024-.025.038-.05.038-.075.024-.026.037-.051.037-.075h.186v-.037h2.351c.05.024.087.037.112.037a.416.416 0 0 1 .074.112l.038.038c.025.026.037.049.037.074v.149c-.024.025-.037.051-.037.075-.026.025-.038.05-.038.076-.025 0-.037.012-.037.037V5.487h.037c.025 0 .038.012.038.037.025.049.037.087.037.112s-.012.05-.037.074c0 .025-.013.049-.038.075l-.037.038V6.83c-.025.024-.037.049-.037.075v.036h7.687c.025 0 .05.013.076.038 0-.025.012-.038.037-.038a2.5 2.5 0 0 0 .299-.074.392.392 0 0 1 .186-.038c.099-.025.174-.05.223-.075.075-.024.138-.049.187-.074.075-.025.162-.05.261-.075.05-.025.112-.049.187-.074.05-.025.125-.05.224-.075a.399.399 0 0 0 .15-.075.703.703 0 0 1 .224-.038c0-.025.012-.05.037-.073l.077-.076a.281.281 0 0 1 .111-.038.47.47 0 0 0 .076-.111c.074 0 .123-.013.147-.037a.416.416 0 0 1 .188-.038.602.602 0 0 0 .148-.112c.025-.024.05-.037.075-.037.024 0 .05-.013.074-.038h.038v-.075l.074-.074.075-.075h.112v-.036h1.641v-.036h.561v.037h.335c.024 0 .037-.012.037-.037h.523l.037.037H56.312c.049 0 .099.013.148.038l.037.075.149.074.075.075.037.038c.025.024.038.049.038.074v.075c0 .024-.013.05-.038.074 0 .025-.012.05-.037.075v.037c-.025 0-.05.013-.075.038 0 .05-.013.087-.037.112V10.709h42.39l.224.074c.05.024.087.049.112.075v.037a.239.239 0 0 1 .112.112c.025.024.05.063.075.112l.036.075v.336a.302.302 0 0 1-.036.111.284.284 0 0 1-.038.112.408.408 0 0 0-.074.113V12.837c0 .025-.013.05-.038.075-.025.025-.037.062-.037.112l-.112.11-.224.076h-.448a3.51 3.51 0 0 0-.261-.076l-23.957-.074v.411l.037.037V17.017c-.024 0-.049.012-.074.037h-.038v1.343a.45.45 0 0 1-.076.112c0 .051-.013.087-.037.113-.025 0-.049.024-.075.073-.024 0-.037.013-.037.038 0 .026.013.051.037.075.026.025.039.062.039.112 0 .025-.013.05-.039.075 0 .025-.012.05-.037.075V22.131c.05 0 .087.013.112.037.024.05.05.087.074.112l.039.074v.074h.038c.024.05.049.088.074.113v.224a.442.442 0 0 0-.074.11v.636h-.038v.037h.038c0 .024.012.037.037.037h.037a.42.42 0 0 0 .148.075c.025.024.05.037.076.037 0 .025.012.05.037.074.025.026.038.05.038.075v.075c0 .025.012.062.037.11v.039c0 .025.012.05.038.075v.074c0 .024.013.051.038.075.024.025.037.05.037.075.024 0 .037.011.037.036.025.025.037.063.037.113.025.024.038.049.038.073l.074.076c0 .025.014.037.038.037v.075c0 .025.013.049.037.076v.073c.025.025.039.063.039.113.024 0 .038.012.038.036 0 .026.012.051.037.076v.073c.025.026.037.051.037.076s.012.05.038.075l.037.037c.024.025.037.063.037.113 0 .024.013.05.038.074v.075c0 .024.013.038.038.038v.074c.024.023.037.05.037.074.025.024.038.049.038.074 0 .026.012.063.037.113l.038.037c0 .025.013.05.038.075 0 .024.013.051.037.075.024.025.038.049.038.074.024.025.037.05.037.075V26.498a.275.275 0 0 1 .037.111c.05.025.087.05.111.076.024.024.049.037.075.037v.074l.075.075v.075c.026.024.062.05.111.074.026.025.052.038.076.038l.074.075c0 .024.012.05.037.074l.076.075v.449c-.025 0-.039.012-.039.038-.024.024-.037.049-.037.074h.076c0 .05.011.087.037.112 0 .025.013.05.038.075l.037.036v.076l-.074.075v.075c-.025.025-.037.049-.037.074 0 .025-.013.049-.039.074l-.074.074v.075l-.074.075c0 .025-.012.049-.037.075-.025 0-.051.012-.076.038v.186c-.025.024-.038.049-.038.075v.037c0 .025-.011.05-.037.075-.024.025-.049.037-.075.037a.328.328 0 0 1-.149.037h-2.015a.34.34 0 0 0-.148-.037c-.026-.024-.05-.049-.076-.075-.024-.025-.038-.05-.038-.074v-1.68c0-.025.013-.051.038-.075a.432.432 0 0 0 .076-.112v-.15c.023-.024.036-.05.036-.074l.037-.037c.025 0 .05-.012.075-.038a.284.284 0 0 0 .112-.038c.049 0 .087-.012.112-.037h.037l-.037-.037v-.187c-.025-.024-.037-.049-.037-.073-.025-.027-.037-.051-.037-.075v-.075c-.025-.024-.038-.05-.038-.075l-.075-.074c0-.025-.012-.05-.038-.074 0-.025-.012-.05-.038-.075-.024 0-.049-.012-.074-.038v-.262l-.036-.036c-.026-.025-.039-.05-.039-.075a1.326 1.326 0 0 0-.075-.075v-.149l-.037-.037a.276.276 0 0 1-.036-.113c-.026-.024-.038-.049-.038-.074-.025-.025-.037-.049-.037-.074 0-.026-.014-.051-.039-.075v-.038c0-.025-.013-.05-.037-.075 0-.024-.012-.049-.037-.073a.298.298 0 0 1-.038-.113l-.037-.037c-.025-.025-.037-.049-.037-.075v-.075c0-.024-.013-.049-.038-.074 0-.024-.012-.05-.037-.076a.114.114 0 0 0-.075-.036v-.188c.023-.024.037-.049.037-.074l.038-.038c-.598 0-1.207.012-1.83.038-.049.024-.112.05-.186.074h-.262a.296.296 0 0 0-.112-.037h-.037a.296.296 0 0 0-.112.037l-.225-.074c0-.052-.025-.077-.075-.077V22.768a.308.308 0 0 0 .037-.114.294.294 0 0 0-.037-.11v-.113l.075-.074c0-.025.013-.049.039-.074a.595.595 0 0 0 .148-.112l.149-.074c.199 0 .386-.013.56-.038V21.498c.024-.025.036-.062.036-.111h-.596a.33.33 0 0 0-.149-.038.562.562 0 0 1-.148-.111c0-.025-.014-.037-.039-.037 0-.05-.025-.089-.075-.114V20.342l.075-.075v-.039c0-.049-.025-.087-.075-.112v-.298a.401.401 0 0 1 .075-.111c0-.051.013-.075.039-.075h.186v-.038h.522l-.037-.037V17.203c-.026.025-.051.037-.075.037-.1-.024-.187-.05-.262-.075a.48.48 0 0 0-.074-.112v-.037h-.037c-.05-.05-.088-.074-.112-.074a.243.243 0 0 0-.111-.113v-.223h-.039v-.784a.45.45 0 0 0-.075-.112V15.598c-7.787 0-15.573-.012-23.359-.038a.343.343 0 0 0-.149-.036l-.037.036a.27.27 0 0 1-.039.112.501.501 0 0 0-.074.112.244.244 0 0 0-.111.111.498.498 0 0 0-.113.076.442.442 0 0 0-.074.11.442.442 0 0 0-.074.112c-.025.05-.05.075-.076.075a.393.393 0 0 1-.075.112.425.425 0 0 1-.074.112.239.239 0 0 1-.113.111 9.17 9.17 0 0 1-.111.112.261.261 0 0 1-.038.111.159.159 0 0 0-.038.113c-.024 0-.049.024-.074.074a.253.253 0 0 0-.112.112l-.112.111-.074.075a.432.432 0 0 1-.075.112.408.408 0 0 1-.075.112l-.036.074a.606.606 0 0 0-.112.151.386.386 0 0 0-.074.111c-.025.026-.05.051-.076.075a.27.27 0 0 1-.038.111c-.024.026-.063.063-.111.112a.287.287 0 0 0-.038.113l-.075.075a.292.292 0 0 0-.037.111c-.049.051-.087.088-.111.112a.248.248 0 0 0-.113.111.513.513 0 0 0-.075.112c-.025.025-.038.062-.038.112l-.074.075c-.025.025-.037.062-.037.112a.248.248 0 0 0-.113.111v.075a.253.253 0 0 1-.111.113.401.401 0 0 1-.076.111.374.374 0 0 1-.075.112.277.277 0 0 1-.036.112.424.424 0 0 0-.075.111.44.44 0 0 0-.075.113c-.024 0-.049.026-.075.075-.025.024-.037.049-.037.074h-1.604v.038H29.104l-.298-.075v.075c-.025 0-.037.012-.037.038v.115h-.038v.076l-.036.037v.038c-.025.024-.063.036-.114.036v.038c0 .025-.012.037-.037.037v.112c-.025 0-.037.013-.037.039v.037c-.025 0-.039.013-.039.037v.113c0 .024-.011.037-.037.037 0 .025-.013.038-.038.038v.037h-.033v.15c-.025 0-.037.013-.037.038v.037c-.025 0-.038.012-.038.036-.025 0-.038.013-.038.039v.037h-.037v.038l-.038.037v.037c0 .024-.013.037-.038.037v.075c0 .025-.012.038-.037.038l-.038.037v.075l-.036.038h-.039a.339.339 0 0 1-.036.148l-.485 1.046.261 2.388c.024.074 0 .161-.075.26-.075.075-.149.113-.225.113a.712.712 0 0 1-.224-.038 2.617 2.617 0 0 1-.075.073c-.024.076-.087.125-.186.15l-1.717.261c-.075.024-.138.024-.187 0l-2.536-1.006a.356.356 0 0 1-.151-.188l-.073-.075c-.076-.099-.113-.186-.113-.261l.113-.672c0-.1.037-.173.11-.223l.15-.075v-.785c.025 0 .037-.012.037-.037v-.521c.025 0 .037-.012.037-.038v-.038l.039-.037v-.112c.023-.025.049-.038.074-.038v-.036h.037v-.076l.112-.113v-.073c.025 0 .038-.012.038-.038.025 0 .037-.013.037-.037h.075v-.038l.038-.037v-.076l.037-.037v-.075c.024 0 .05-.013.075-.037l.036-.038v-.037c.025 0 .039-.013.039-.039l.037-.036v-.037l.037-.038h.038c0-.025.012-.038.036-.038v-.149l.039-.038v-.037l.037-.038v-.038c.025 0 .038-.012.038-.038l.037-.037v-.037c.024 0 .037-.012.037-.039a.107.107 0 0 0 .075-.037l.075-.075v-.037l.037-.038v-.074c.025 0 .051-.012.077-.037l.036-.038V20.3c.025 0 .038-.012.038-.037l.037-.039v-.074c0-.025.013-.038.038-.038l.074-.074v-.113c.024 0 .038-.011.038-.037l.037-.038v-.037c.024 0 .037-.012.037-.037l.037-.038v-.037l.039-.038v-.037h.037v-.075c0-.025.013-.038.037-.038 0-.024.013-.037.037-.037v-.038l.038-.036v-.113c.024 0 .037-.013.037-.038v-.071l.038-.037v-.037c.024-.025.049-.038.075-.038l.037-.038v-.037l.038-.038v-.035l.037-.038v-.074c.026 0 .038-.013.038-.037l.038-.038v-.261l-.076-.075v-.149c-.024 0-.037-.013-.037-.038v-.11l-.038-.039v-.038l-.037-.037v-.112l-.077-.074v-.41l-.038-.037h-1.567c0-.025-.012-.037-.038-.037v-.037h-.261a.606.606 0 0 0-.188-.038v-.187h-.037v-.335h-.036V17.241h-.597v.038h-.037v.037h-.037l-.038.037c-.024 0-.038.013-.038.037h-.037c-.024.025-.05.038-.074.038v.037l-.038.038c0 .024-.013.037-.037.037v.074h-.038c0 .026-.013.039-.037.039v.037l-.075.148-.037.038v.038h-.075V18.25h-.075v.038c.025.1.025.199 0 .298l-.447.596c-.075.075-.149.113-.224.113a.465.465 0 0 1-.262 0c-.074-.075-.111-.149-.111-.224l-1.231.074a.399.399 0 0 1-.224-.074 1.326 1.326 0 0 0-.336.111.45.45 0 0 0-.111.075h-.076v.111a.24.24 0 0 1-.185.188l-9.329 3.917c-.101.051-.188.051-.263 0a.401.401 0 0 1-.111-.074h-.599V25.076c.052 0 .113.039.188.112.074.074.112.15.112.224v.374a.36.36 0 0 1-.112.261.39.39 0 0 1-.223.075l-.039.037a.352.352 0 0 1-.26.112H5.448a.252.252 0 0 1-.187-.074c-.025.026-.05.038-.075.038a.596.596 0 0 0-.148.037h-.149c-.074-.024-.15-.048-.225-.074a.581.581 0 0 0-.149-.112c0-.023-.013-.048-.038-.075v-.297c-1.121 0-2.251.025-3.395.074-.076.023-.15.05-.225.074H.596a3.173 3.173 0 0 0-.262-.074.253.253 0 0 0-.112-.112.54.54 0 0 1-.075-.112v-.075c0-.025-.025-.063-.075-.111-.024 0-.049-.025-.074-.075V14.031a.47.47 0 0 1 .074-.112c.05-.024.075-.05.075-.075.1-.025.187-.037.261-.037v-.037c.05.024.125.049.225.074.025-.025.05-.037.074-.037h.149v-.037h3.47c.025 0 .062.012.112.037a.402.402 0 0 1 .075-.112.797.797 0 0 1 .261-.038v-.037c.05.024.113.048.187.075l1.754.075V13.657a.45.45 0 0 0-.112-.074.425.425 0 0 1-.074-.112 5.748 5.748 0 0 1-.112-.112 9.35 9.35 0 0 1-.112-.111l-.037-.075v-.523a.417.417 0 0 1 .074-.111.432.432 0 0 0 .075-.112v-.598a.432.432 0 0 1 .074-.111.432.432 0 0 1 .075-.112h.038c.024-.05.049-.074.074-.074l.075-.076c.024 0 .05-.012.074-.038h.148v-.037h11.382l.224.074c.049.051.086.076.111.076 0 .048.013.099.037.149.025.025.05.061.075.11l.038.038c0 .026.012.05.037.076a.45.45 0 0 1 .075.111v.113l-.038.074a.416.416 0 0 1-.074.112V13.919h-.038v.038a.246.246 0 0 0-.112.111v.113c-.025.049-.062.074-.111.074a5.34 5.34 0 0 0-.075.076v.148l.038.037v.038c.622 0 1.23.014 1.829.038v-.038h.075v-.038c.099-.024.187-.048.261-.074l.225.074h.334c.175-.024.35-.037.523-.037.125 0 .236-.012.336-.037h.074a.16.16 0 0 0 .113-.037c.024 0 .036-.012.036-.037h.188c0-.026.012-.037.037-.037a.158.158 0 0 1 .112-.038c.025 0 .037-.012.037-.038h.111c.026 0 .038-.012.038-.037h.113c0-.024.013-.037.037-.037s.05-.012.075-.037H23.209c.025 0 .039-.013.039-.038h.074c.025 0 .038-.012.038-.038h.036v-.037h.076c0-.025.013-.038.038-.038.025-.024.062-.037.112-.037s.087-.012.112-.038h.037l.038-.037c.025 0 .039-.014.039-.038h.036a.279.279 0 0 1 .112-.037c.024 0 .05-.013.074-.037h.038l.037-.038h.037c.025 0 .037-.012.037-.037h.076v-.038c.025-.025.05-.037.074-.037.025 0 .038-.013.038-.037h.037c.025 0 .05-.013.075-.038h.038c0-.025.012-.038.037-.038a.352.352 0 0 1 .15-.037l.037-.037h.075c.025-.024.062-.037.111-.037l.033-.036h.039l.038-.037c.024-.025.049-.037.074-.037.05 0 .088-.013.113-.038h.112c.025 0 .038-.013.038-.038l.036-.038c0-.025.013-.038.038-.038.05 0 .088-.011.113-.036.024 0 .048-.013.074-.038.025 0 .037-.012.037-.037h.075v-.037c.025-.025.05-.038.075-.038s.038-.012.038-.037h.111c.026 0 .038-.013.038-.038l.075-.075a.331.331 0 0 0 .149-.037c.024 0 .049-.013.073-.037.025 0 .039-.013.039-.037h.038c0-.026.012-.039.038-.039 0-.024.012-.036.036-.036.025 0 .05-.013.075-.038.05 0 .1-.012.149-.037h.075v-.037l.037-.039c.051 0 .088-.011.113-.036.024 0 .049-.012.074-.038.025 0 .037-.013.037-.037h.039c0-.025.012-.038.036-.038v-.038c.025 0 .038-.012.038-.036.025 0 .049-.013.075-.038h.037c.026 0 .037-.012.037-.038.025 0 .039-.012.039-.036.024 0 .049-.013.073-.038h.039c0-.024.012-.037.037-.037s.038-.013.038-.039l.037-.038v-.037h.037l.038-.037h.075c0-.025.012-.037.037-.037 0-.025.012-.039.037-.039 0-.024.014-.038.038-.038.025 0 .049-.012.075-.037.024 0 .049-.013.073-.037l.039-.037h.074l.037-.038c0-.025.025-.063.075-.111h.074a.271.271 0 0 0 .111-.038.489.489 0 0 0 .075-.113c0-.024.013-.049.039-.075.024 0 .049-.012.073-.037h.076v-.038H28.777v-.037h.037v-.038h.037c.026-.024.05-.037.074-.037.026 0 .051-.012.076-.037h.186c.025 0 .051-.013.075-.037.124-.051.224-.089.299-.113l.149-.074h.149c.597-.026 1.169-.05 1.717-.075a.698.698 0 0 1 .224-.038c0-.024.012-.049.038-.074v-.149h-4.739v-.037c-.026 0-.051-.012-.076-.038H25.121v-.037c-.026 0-.05-.013-.075-.037v-.038a.595.595 0 0 1-.186-.037l-.075-.075V8.284c0-.025-.014-.049-.037-.074v-.411c.023 0 .037-.012.037-.037v-.335c0-.025.012-.063.036-.113a.415.415 0 0 0 .112-.075h.151v-.037h.074v-.036h.036c0-.025.014-.05.039-.075l.074-.075c0-.024.013-.037.038-.037h.111v-.038h2.763V5.897c-.026-.024-.038-.05-.038-.074-.025 0-.038-.013-.038-.038v-.447c0-.025.012-.05.038-.075.024-.025.038-.05.038-.075V5.15l.074-.074.038-.038A.084.084 0 0 1 28.396 5h.075v-.036h2.127c.026.025.05.036.075.036h.038v-.036c.049.025.086.05.112.074l.074.075c.025.025.049.038.074.038 0 .025.012.049.037.074V6.944h6.345V4.403c0-.024.012-.05.037-.075l.075-.074c0-.025.013-.049.037-.074zM71.646 18.1v-.077c0-.024-.012-.05-.038-.074v.187l.038-.036zm-40.6-.524v.635c.05.024.1.05.149.075l.076.075c0 .049.012.086.037.111v.112c.123-.024.236-.037.335-.037a.424.424 0 0 0 .187-.038v-.037h.186l.224-.075a.998.998 0 0 0 .225-.111c.025 0 .05-.025.074-.075l.076-.074.037-.036c.05-.027.1-.051.149-.077.025-.05.05-.074.074-.074a.257.257 0 0 1 .113-.113.248.248 0 0 1 .111-.111c0-.05.012-.087.038-.113 0-.025.013-.062.038-.11.024-.025.037-.063.037-.113a.28.28 0 0 1 .037-.111v-.075c0-.05.012-.088.037-.112a68.56 68.56 0 0 1-2.201.037l-.038.037v.299l-.001.111zm-1.119 1.008c-.075-.024-.125-.062-.15-.112a3.766 3.766 0 0 0-.111-.111l-.075-.075V17.24a.281.281 0 0 0-.111.038c0 .025-.014.049-.039.074 0 .025-.012.05-.037.075l-.037.037c-.025.025-.062.038-.112.038l-.037.037c-.05.049-.075.087-.075.112a.243.243 0 0 0-.112.112V18.247c.05 0 .087.012.112.038a.459.459 0 0 0 .112.075c.025.049.05.086.075.111 0 .051.012.088.037.112v.038h.56v-.037zm-6.008-1.679h.447v-.039h-.447v.039zm1.081.448v-.037h-.11v.037H25zM9.142 19.33c0 .024-.012.037-.037.037 0 .025-.012.039-.037.039v1.007h.149l.15.074c.174.025.36.051.559.075a.388.388 0 0 0 .148.075l.037-.075h.038c.024 0 .05-.012.076-.037h.037c0-.025.013-.038.037-.038.025-.024.05-.036.074-.036 0-.025.013-.038.038-.038v-.037c.024 0 .037-.013.037-.038a.326.326 0 0 0 .148-.038h.039c0-.025.012-.037.037-.037H10.784l.039-.039h.036c.026 0 .038-.012.038-.036.025 0 .037-.013.037-.038v-.038h.037c0-.025.013-.037.038-.037H11.122c.025-.025.062-.037.112-.037.026 0 .049-.012.075-.038.048 0 .1-.011.148-.037h.037c.024-.025.05-.038.075-.038.026 0 .039-.011.039-.037h.109v-.075a.45.45 0 0 1 .077-.111.393.393 0 0 1 .074-.112V19.254H9.18v.038c-.001.026-.013.038-.038.038zm-3.694 6.269h-.112l.038.038a.103.103 0 0 1 .074-.038zm17.426-1.045h.038l-.038-.037v.037z"
    clip-rule="evenodd"
  />
</svg>
