<svg xmlns="http://www.w3.org/2000/svg" xml:space="preserve" viewBox="0 0 52.375 32">
  <path
    fill-rule="evenodd"
    d="M24.563 1.998c0-.029.014-.045.044-.045a.399.399 0 0 1 .176-.042l.042-.043c.029-.03.058-.047.085-.047l.046-.042c.028-.03.059-.044.087-.044 0-.029.015-.043.043-.043h.043v-.045c.031 0 .059-.013.09-.044l.086-.087c.028 0 .043-.015.043-.043.029 0 .045-.013.045-.043.058 0 .1-.015.128-.044.031-.03.059-.044.088-.044h.306v-.087h.045V1.21c.174 0 .349.015.522.044v.042c.03.03.059.045.088.045v.044c.029 0 .058.015.088.044l.042.043c.029 0 .059.014.088.043v.046c.029 0 .043.013.043.041.058 0 .086.017.086.044.03.029.058.044.089.044.029 0 .043.014.043.043.03 0 .058.014.088.044 0 .028.015.042.044.042h.087l.043.047c.03.027.06.043.087.043l.046.087.084.042c.062 0 .104.017.132.045.031.028.059.058.087.087v1.181h18.79v-.48h.131c0-.029.014-.056.042-.087.03 0 .043-.015.043-.043h.043c0-.028.015-.058.044-.086h.045v-.088c.029 0 .058-.015.086-.044h.043c0-.029.016-.058.044-.086.029 0 .044-.015.044-.044.029 0 .043-.013.043-.044v-.047c0-.029.013-.042.044-.042l.043-.044v-.045h1.267v.044l.088.086c0 .029.015.043.043.043 0 .031.015.044.044.044v.044c.029.029.043.057.043.086h.045l.044.044.086.088v.086h.087c0 .029.014.043.043.043 0 .031.015.059.045.087h.086v.436c.03.031.06.044.088.044v.132h.262v.22a.967.967 0 0 1 .097.092c.029.027.074.042.132.042 0 .029.014.059.043.088h.044c.028.029.087.043.174.043V4.705c0 .028.029.045.087.045v.219a.19.19 0 0 0 .132.043V5.493h.218V5.711h1.399v.13h.263V8.067h-.132a28.32 28.32 0 0 0-1.616-.043v.043h-.133v.353h-.132v.35a.441.441 0 0 1-.086.129c0 .03-.014.058-.042.088a1.46 1.46 0 0 0-.088.088v.131a.425.425 0 0 1-.176.043V9.423c0 .029-.013.045-.043.045 0 .03-.015.044-.044.044v.086l-.042.043c0 .03-.016.045-.045.045v.044l-.043.044v.088c-.029 0-.043.015-.043.044h-.176v.263l-.044.042v.044h-.655v-.044l-12.583-.086v.044h-.745V12.875h-.173v.086l-.961.087v.044c-.263 0-.523-.014-.787-.044h-.307v.087h-.085c-.03.029-.059.045-.088.045v.086h-.085v.131h-.045c-.03.029-.045.059-.045.087h-.043v.088l-.044.045h-.042c-.029.027-.044.058-.044.085v.045h-.045c-.028.03-.042.06-.042.088l-.131.132v.086c-.029 0-.046.015-.046.043h-.042c-.027.03-.044.059-.044.088v.087c-.029 0-.057.014-.086.044h-.049v.089c-.027 0-.041.013-.041.041-.029 0-.044.015-.044.044v.043c-.029.03-.057.044-.087.044l-.044.042v.046h-.044v.088a.123.123 0 0 0-.087.042v.043c-.029 0-.044.013-.044.044a.397.397 0 0 0-.174.042l-.044.088v.042l-.088.087V18.064h.351c.029.03.073.06.131.088 0 .058.016.088.044.088a.12.12 0 0 0 .043.085v.743l.044.044v.352c0 .028-.016.042-.044.042v.044l-.043.042v.306l-.044.044V20c-.029 0-.044.014-.044.043 0 .03-.014.044-.044.044v.043c-.028 0-.043.013-.043.044v.174h-.131c-.029 0-.058.013-.088.044 0 .029-.013.044-.044.044-.029.029-.059.043-.088.043v.044h-.044c-.028 0-.057.014-.087.042-.028 0-.056.013-.087.044h-.087c0 .03-.015.044-.044.044v.174c-.028 0-.058.014-.086.044v.217c0 .03-.016.059-.043.089l-.047.042V31.006h-7.033V20.833h-.044c-.028 0-.042.014-.042.044v.088l-.091.086c-.027.03-.042.058-.042.089v.044a.639.639 0 0 1-.132.087c-.03.027-.044.057-.044.086-.029.03-.042.06-.042.088h-1.094v-.088a1.447 1.447 0 0 0-.349-.045c-.028-.028-.043-.058-.043-.086a1.294 1.294 0 0 0-.307-.042v-.132h-.088V18.609h-5.156v.954c-.99-.029-1.981-.044-2.971-.044v.044l-.042.087a.32.32 0 0 0-.044.133c-.028 0-.058.027-.086.085l-.044.043c0 .058-.014.088-.044.088a.604.604 0 0 1-.086.131v.088c-.03.028-.044.056-.044.085l-.044.044v.306a.366.366 0 0 1-.131.044v.086c0 .031-.015.059-.043.089l-.089.088c0 .027-.013.056-.044.086 0 .03-.015.058-.043.089v.305c-.03 0-.057.014-.088.044-.028.029-.042.057-.042.088 0 .028-.016.056-.045.087a.567.567 0 0 0-.088.13l-.044.043v.177c-.027.027-.042.072-.042.129v.043l-.043.089-.088.085v.133c-.028 0-.058.015-.086.043 0 .058-.029.088-.087.088v.218l-.046.043v.349a.35.35 0 0 1-.131.045v.086l-.042.088a.502.502 0 0 0-.131.085v.177l-.043.086v.218c-.059 0-.104.014-.132.043v.088a.186.186 0 0 0-.044.131c-.028 0-.058.028-.086.086l-.045.044V24.63c-.028 0-.056.016-.088.046v.086a.123.123 0 0 0-.042.087c-.029.028-.044.059-.044.086v.176c-.058 0-.103.016-.131.043v.306c-.058 0-.102.014-.13.044v.086c-.03.06-.061.088-.089.088v.261l-.043.088c-.059.029-.088.072-.088.13v.133c0 .058-.013.085-.043.085-.06.031-.089.074-.089.132v.131c.029.06.073.088.132.088v.086c.029.03.073.046.131.046v.128l.044.045c0 .03.014.058.044.087v.089a.528.528 0 0 1 .087.129c.027 0 .042.014.042.044v1.004c-.058 0-.102.013-.13.044v.261l-.176.088a.135.135 0 0 0-.043.088 10.988 10.988 0 0 0-.919-.044h-.045v-.087c-.379 0-.773-.015-1.181-.045v-.039c-.554-.027-1.12-.059-1.703-.087 0-.03-.015-.043-.043-.043a38.891 38.891 0 0 0-1.837-.044v-.088a2.78 2.78 0 0 1-.522-.043l-.044-.044H2.717c-.059 0-.102-.014-.131-.042a.8.8 0 0 0-.261-.044c0-.031-.031-.042-.088-.042-.351-.03-.714-.059-1.092-.089-.03-.027-.06-.043-.088-.043v-.262c-.173 0-.335-.014-.481-.043-.028-.028-.057-.044-.086-.044v-.132c-.029 0-.06-.028-.088-.085-.029 0-.059-.029-.087-.088V25.815a2.38 2.38 0 0 1 .087-.087c.028-.031.059-.06.088-.09v-.173l.086-.087c0-.029.017-.058.045-.087v-.351c0-.027.014-.058.044-.086.028-.03.042-.06.042-.087V24.373h.088v-.305a.123.123 0 0 1 .088-.043.378.378 0 0 0 .042-.13c0-.031.014-.06.044-.088v-.086c.028-.03.057-.044.086-.044V23.326a.122.122 0 0 1 .088-.042v-.175l.172-.086v-.263c.059-.03.09-.059.09-.088v-.174c.028-.028.058-.06.087-.087.029-.031.059-.06.088-.088l.086-.086v-.089h.131v-.218c.028-.028.059-.057.087-.088 0-.027.015-.043.046-.043a.393.393 0 0 0 .041-.13c0-.031.016-.059.047-.087a.66.66 0 0 0 .13-.088v-.177c.028-.028.042-.058.042-.086.028-.029.045-.058.045-.086V21.1a.344.344 0 0 1 .129-.043c0-.059.017-.086.045-.086a.34.34 0 0 0 .042-.132l.045-.087c0-.03.014-.044.045-.044 0-.058.015-.088.042-.088v-.217a.545.545 0 0 0 .131-.089v-.184c.029 0 .059-.029.087-.088 0-.029.016-.058.044-.087l.086-.087v-.085a.436.436 0 0 1 .133-.09v-.087a.122.122 0 0 0 .042-.087c.03-.028.044-.056.044-.086 0-.028.016-.059.045-.086.029-.031.057-.06.087-.089v-.088l.087-.087c.028-.027.044-.059.044-.086a.492.492 0 0 1 .13-.088v-.087h.088v-.132a.12.12 0 0 0 .042-.086c.028 0 .06-.03.087-.088a.342.342 0 0 1 .131-.043V18.255c.06 0 .102-.016.131-.043v-.088l.089-.088v-.086a.537.537 0 0 0 .132-.087v-.176c.056 0 .1-.014.129-.042v-.087c.031-.03.059-.061.088-.088v-.088a.485.485 0 0 0 .13-.087v-.086a.59.59 0 0 1 .132-.087v-.089c.03-.03.059-.057.087-.088v-.172a.527.527 0 0 0 .132-.087v-.175a.31.31 0 0 1 .13-.044c0-.029.014-.073.043-.131l.044-.088v-.045c0-.057.014-.087.044-.087.058-.056.087-.1.087-.129v-.131c.059-.059.101-.086.131-.086v-.133l.043-.086.044-.045v-.218c.028 0 .059-.028.087-.088a.12.12 0 0 0 .042-.087v-.13c.03-.028.073-.044.133-.044v-.349a.288.288 0 0 1-.133-.132v-.13a.456.456 0 0 1-.129-.088v-.174c-.031-.029-.06-.059-.087-.086a.33.33 0 0 1-.131-.047v-.173a12.72 12.72 0 0 1-.131-.13v-.133l-.087-.087c-.03-.027-.074-.073-.13-.131a.36.36 0 0 1-.132-.043v-.176a.54.54 0 0 1-.087-.129v-.579H2.581v-.087a.747.747 0 0 0-.22-.043v-.042c-.028-.03-.072-.044-.129-.044l-.087-.088c-.027-.058-.055-.088-.085-.088a.428.428 0 0 1-.129-.089c-.031-.03-.046-.072-.046-.129-.028 0-.059-.017-.087-.044v-.088a.535.535 0 0 0-.131-.087v-.043a.478.478 0 0 0-.13-.086.363.363 0 0 1-.131-.042v-.222l-.09-.087A.39.39 0 0 1 1.144 11v-.086l-.088-.088v-.174H.969V6.06h.086v-.611h.088v-.088l.262-.088c.028-.03.042-.057.042-.085.031-.03.045-.06.045-.089h.044c.057 0 .13-.015.217-.043 0-.03.017-.059.044-.087v-.087a.518.518 0 0 0 .088-.132.741.741 0 0 0 .219-.044c.029-.028.058-.06.087-.087.028-.029.045-.059.045-.088.057-.029.129-.057.216-.085 0-.031.031-.06.09-.089v-.044l.042-.044c.058 0 .103-.014.131-.042v-.046c.059-.028.117-.058.176-.087l.042-.043a.526.526 0 0 0 .133-.087.371.371 0 0 1 .174-.044c0-.03.014-.059.044-.088l.175-.088a.486.486 0 0 1 .131-.086c.028-.03.044-.058.044-.088h.261v-.087a.528.528 0 0 0 .131-.086v-.046c.058-.029.133-.059.221-.086.056-.03.1-.044.129-.044v-.132c.059 0 .103-.015.131-.042h.043v-.044h.044v-.264c.146 0 .263.014.351.043V2.39h.043c.029-.027.057-.044.087-.044V2.26h.043c.03-.03.044-.058.044-.088 0-.029.014-.044.044-.044V2.04c.289 0 .597.017.916.045v.043c.116.031.234.044.35.044v.306c0 .03.015.043.044.043 0 .06.014.103.043.133l.046.086v.349c5.94 0 11.884.016 17.827.044V2.04h.042c.03 0 .059-.014.089-.042zM21.94 14.8c-.029-.029-.057-.059-.086-.086v-.177c-.028-.029-.06-.059-.087-.088v-.26a.537.537 0 0 0-.132-.088v-.129a.334.334 0 0 1-.131-.047v-.085l-.088-.088a3.674 3.674 0 0 1-.086-.089c-.204 0-.41-.014-.613-.041h-2.36l.046.041v.221h.044v.041l.042.047c0 .027.015.041.043.041v.088l.043.044c.031.029.044.059.044.087h.043c0 .031.016.059.045.088h.043c0 .029.014.044.043.044l.087.085v.044c.029.029.044.057.044.087h.088v.088h.085l.046.045c.028.027.044.057.044.086h.041v.087c.029.029.06.042.088.042.03 0 .044.016.044.044l.043.044v.042h.044l.044.044c.028.029.058.043.087.043v.044c0 .029.015.044.043.044h.044c.029.03.059.043.087.043s.058.017.088.044c.028 0 .058.014.088.043v.086l.042.045h.088l.087.088.044.043v.088l-.044.044a.124.124 0 0 0-.044.086l-.043.043v.088h-.044v.087c-.029 0-.044.014-.044.042-.028 0-.042.017-.042.044h-.046l-.042.043H19.447c-.058 0-.102-.013-.132-.043h-.129c-.03-.027-.061-.044-.091-.044h-.085c-.029-.028-.059-.042-.088-.042l-.044-.044v-.043h-.219c-.029-.028-.073-.043-.13-.043 0-.031-.015-.045-.043-.045l-.042-.043c-.031 0-.044-.015-.044-.045-.029 0-.046-.014-.046-.041h-.131l-.043-.044v-.045c0-.029-.013-.043-.043-.043l-.042-.043c-.03-.028-.06-.043-.087-.043 0-.029-.017-.045-.044-.045-.03 0-.045-.014-.045-.045 0-.027-.016-.041-.044-.041l-.044-.045v-.043c0-.027-.014-.044-.043-.044l-.043-.043c-.029-.028-.059-.044-.088-.044 0-.027-.014-.044-.042-.044-.03 0-.042-.014-.042-.043s-.015-.044-.044-.044l-.044-.042v-.044c0-.028-.016-.044-.046-.044-.027 0-.043-.013-.043-.042l-.042-.044c-.03-.028-.059-.043-.087-.043 0-.029-.017-.042-.046-.042 0-.03-.015-.06-.043-.088h-.043v-.088l-.044-.044v-.043c-.028-.03-.058-.044-.088-.044v-.041a.13.13 0 0 0-.042-.089c0-.03-.016-.044-.044-.044 0-.029-.016-.044-.046-.044v-.13l-.042-.043v-.174l-.044-.044c0-.029-.014-.059-.043-.088v-.13h-.089l-.042.041a.49.49 0 0 0-.131.089v.043c-.028.03-.059.059-.088.089l-.045.041c-.028.03-.043.059-.043.087a.27.27 0 0 1-.13.132v.131a.356.356 0 0 1-.044.133c-.057.027-.087.056-.087.085v.263a.469.469 0 0 0-.088.13 3.528 3.528 0 0 1-.086.087c-.03.059-.044.102-.044.131s-.03.073-.088.132c0 .03-.015.073-.042.13v.219c-.029.029-.075.072-.13.132v.13c-.031.029-.047.057-.047.088a6.949 6.949 0 0 1-.13.131v.262c-.029 0-.044.029-.044.086-.029.029-.073.075-.131.131v.133c2.156.028 4.297.058 6.424.087v-.35a.51.51 0 0 0 .132-.086c.027-.03.059-.058.087-.088v-.088c.029-.027.057-.044.086-.044v-.217a.386.386 0 0 0 .175-.043v-.262c.029-.028.06-.058.088-.088 0-.028-.015-.058-.044-.086-.028-.029-.043-.06-.043-.088v-.176c-.029-.028-.044-.058-.044-.087a.528.528 0 0 0-.131-.086v-.087c-.003-.034-.003-.062-.003-.09zM6.343 15.936v-.045h-.044v.045h.044z"
    clip-rule="evenodd"
  />
</svg>
