<svg xmlns="http://www.w3.org/2000/svg" xml:space="preserve" viewBox="0 0 69.25 32">
  <path
    fill-rule="evenodd"
    d="M68.96 6.573c0 .714-.042 1.294-.133 1.739-.031.298-.12.61-.269.937a4.032 4.032 0 0 1-.177.4h-13.87l-.179-.133-.269.089h-10.66l-.267.18-.401-.136h-4.504v-.802h-1.516V8.18h-.937v1.56l.225.179v.758l-.225.179-.089 1.516H25.565c-.06 0-.119.028-.179.089a1.247 1.247 0 0 0-.358.492c-.118.325-.712 1.783-1.781 4.37-.151.267-.298.43-.448.489-.088.06-.327.104-.713.134l-4.638.178a4.934 4.934 0 0 0-.67-.266c-.475-.209-.862-.329-1.16-.356a4.561 4.561 0 0 0-.668-.091c-.12.031-.341.074-.667.135-.271.088-.536.12-.805.088l-.313-.088-2.275 9.633-.089 1.069.491.714-9.588-.089c0-.564.03-1.292.09-2.184.179-1.786.46-3.479.847-5.086a26.875 26.875 0 0 1 1.605-4.594c.029-.087.238-.522.625-1.293.178-.386.283-.655.311-.802.091-.356.015-.641-.223-.848-.179-.179-.563-.372-1.159-.579-.597-.209-.982-.341-1.16-.401-.238-.09-.358-.208-.358-.357-.029-.208-.014-.551.046-1.026l.089-.668-1.651-.178a.543.543 0 0 1-.312-.091c-.208-.148-.298-.34-.269-.578.06-.299.255-.447.581-.447a.871.871 0 0 1 .49.046l.224-1.163 1.339.848.58-2.899.937-1.784V4.03l.714.402 2.854.045.269.221h9.722v.18h5.44v-.135h9.368V3.538h2.229l.267.315v.803l.312-.044.313.399v.716h.893v-.625h1.338V3.806h4.639l.311-.177.401.177h10.66l.311.046.314-.132h13.693l.223.266c.119.268.209.581.268.936.026.446.057.996.085 1.651zM22.978 12.46l-5.083.045c-.506.504-.864.877-1.07 1.115-.327.416-.506.653-.536.714a2.32 2.32 0 0 0-.354 1.114c-.033.208 0 .505.087.892.059.178.118.33.178.446l-.312.223a2.52 2.52 0 0 1-.356-.759c-.237-.534-.342-.981-.313-1.336a3.2 3.2 0 0 1 .67-1.65c.149-.239.312-.433.491-.581a4.191 4.191 0 0 0-.715.178c-.534.179-.921.386-1.159.625a2.473 2.473 0 0 0-.624 1.159c-.119.446-.09.862.09 1.248.177.356.431.656.757.893.327.239.713.4 1.16.491.268.028.7.045 1.293.045.505-.031.833 0 .98.088.209.06.938.091 2.187.091 1.189-.031 1.843-.077 1.962-.135.147-.088.446-.756.892-2.005l.67-1.875v-.269a1 1 0 0 0-.09-.446 1.128 1.128 0 0 0-.491-.267l-.314-.044z"
    clip-rule="evenodd"
  />
</svg>
