<svg xmlns="http://www.w3.org/2000/svg" xml:space="preserve" viewBox="0 0 33.334 32">
  <g fill-rule="evenodd" clip-rule="evenodd">
    <path
      d="M9.104 13.277c1.709.854 2.089-2.563 2.089-2.563L9.104 9.86S6.162 8.183 5.782 7.693c-.38-.491-.475-1.631-1.803-1.82-1.33-.19-1.994-.188-2.184.571-.19.758 0 1.249 0 1.249s-.19-.364-.76 0C.465 8.056.181 9.1.465 9.479c.286.381.855.746 1.614.8.76.056.665-.624 1.899 0 1.235.625 5.126 2.998 5.126 2.998zM21.825 9.86s4.557-2.278 4.937-2.563c.379-.284.664-1.063.949-1.528s1.044-1.36 1.804-1.008c.759.353 1.14 1.59 1.14 1.684v.093l.475-.093s.664.79.854 1.249c.189.458 0 1.597-.38 1.786-.379.19-.948.936-1.614.8-.664-.134-1.708-.244-2.183 0-.475.245-3.513 2.541-3.893 2.485-.379-.057-1.518.65-1.518.65l-.571-3.555zM22.68 17.549s4.326 2.748 4.651 2.943c.44.263 1.519 1.104 2.278 1.358.759.256 1.857-.124 2.448.16.589.285.685.38.969.76.285.379.112.969-.166 1.397-.545.843-.937.691-.937.691h-.194s.23.133.075.52c-.1.247-.183.362-.569.735-.636.611-1.145.543-1.657.233-.604-.364-1.023-.913-1.298-1.394-.629-1.106-6.455-4.937-6.455-4.937l.855-2.466zM9.967 18.033s-3.346 2.174-4.192 2.554c-.846.38-2.08 1.14-2.745 1.044-.664-.095-1.328-.38-1.803 0s-.699 1.14-.872 1.519c-.173.38.017 1.614.587 1.805l.569.189.569.947s-.095.571.854.477c.95-.095 1.52-.475 1.898-1.329.38-.854 1.805-1.993 1.805-1.993l4.556-3.228-1.226-1.985z"
    />
  </g>
  <path
    stroke="#58595B"
    stroke-linejoin="bevel"
    stroke-miterlimit="10"
    stroke-width=".5"
    d="M23.696 12.149c-.029-.906-.126-1.779-.199-1.989-.079-.227-.165-.531-.421-.928l.63 3.633c0-.233-.003-.475-.01-.716zM9.125 13.286l.107-3.373c-.266.519-.352 1.059-.259 2.036.081.85.122 1.008.152 1.337zm14.561 4.902-.825 2.523c1.032-.604 1.021-1.193 1.035-1.601.015-.452-.1-.719-.21-.922zm-14.911.922c.045.748.186 1.011 1.303 1.697l-1.297-2.014c-.01.098-.012.203-.006.317z"
  />
  <path
    fill-rule="evenodd"
    d="M24.093 16.127c.014-1.093-.372-1.119-.396-1.791-.013-.335.027-1.277 0-2.187-.029-.906-.126-1.779-.199-1.989-.148-.424-.318-1.121-1.591-2.189-1.394-1.168-4.08-2.163-5.571-2.188-1.492-.025-3.231.722-4.576 1.593-1.342.869-1.665 1.242-2.187 1.988-.523.746-.723 1.269-.599 2.586.125 1.319.154.971.199 2.188.038 1.008-.419 1.319-.397 1.989.032 1.003.409 1.21.397 1.592-.008.25-.447.563-.397 1.392.051.846.224 1.071 1.791 1.99 1.017.598 2.213.822 2.188 1.194-.037.545-.175 1.441-.198 1.989-.025.547.224.597.795.795.572.2 1.914.623 3.383.597 1.468-.023 2.089-.323 2.785-.597.695-.273.795-.521.795-.995 0-.472-.396-1.44-.396-1.789s1.191-.722 2.585-1.394c1.394-.669 1.377-1.342 1.394-1.791.029-.845-.398-1.044-.398-1.392-.003-.679.585-.795.593-1.591zm-11.738 1.988c-.696.026-2.188.026-2.188-1.988 0-2.789 1.491-3.108 2.586-3.183 1.095-.076 1.243-.198 1.791.199.982.715.92 1.98.597 2.983-.237.734-.498 1.021-.995 1.393-.497.375-1.092.573-1.791.596zm4.578 3.185-.273-1.016-.423.004-.3 1.012c-1.144-.312-1.604-.771-1.591-1.393s.36-1.269.994-1.792c.635-.521.737-.602 1.194-.596.436.007.475.091.795.398.693.664 1.141 1.106 1.195 1.989.051.87-.958 1.356-1.591 1.394zm3.58-3.185c-.696-.023-1.293-.222-1.79-.596-.498-.372-.791-.648-.995-1.393-.258-.936-.385-2.269.597-2.983.548-.397.697-.275 1.791-.199 1.094.074 2.586.394 2.586 3.183-.001 2.015-1.493 2.015-2.189 1.988z"
    clip-rule="evenodd"
  />
</svg>
