<svg xmlns="http://www.w3.org/2000/svg" xml:space="preserve" viewBox="0 0 41.5 32">
  <path
    fill-rule="evenodd"
    d="M18.693 11.759h-3.017c-.397 0-.596.199-.596.595v1.702c0 .425.199.636.596.636h1.615c.567 0 1.047-.169 1.445-.509.368-.34.551-.694.551-1.063v-.468a.975.975 0 0 0-.169-.552c-.113-.227-.255-.341-.425-.341zM40.97 5.127c.168.03.269.071.298.128 0 .03-.015.185-.044.468l-.806 5.868c-.113.481-.553.849-1.318 1.104l-2.934.808c-.538.142-.835.212-.892.212l-4.805.085c-.425 0-.638.113-.638.34v1.871c0 .567-.197.836-.595.807a2.62 2.62 0 0 0-.723-.127h-6.631c-.539.141-.907.213-1.106.213-.114 0-.212-.113-.299-.342l-.041-.382c-.425.679-.851 1.021-1.277 1.021h-4.208c-.509 0-.793.34-.849 1.02-.03.085-.201.439-.512 1.062-.311.625-.522 1.163-.638 1.617-.822 3.173-1.289 5.271-1.401 6.292-.058.765.013 1.913.211 3.443 0 .481-.34.58-1.021.297-.312.227-.721.282-1.231.171-.68-.114-1.9-.369-3.656-.766-2.184-.481-3.573-.835-4.167-1.063-.68-.256-1.091-.652-1.233-1.19-.171-.538-.128-1.375.127-2.508.228-1.076.711-3.076 1.449-5.994.706-2.806 1.09-4.322 1.147-4.549.169-.369.311-.708.424-1.02.198-.596.312-1.106.34-1.531.029-.426-.212-.921-.723-1.489-.084-.056-.467-.396-1.148-1.02-.281-.255-.424-.609-.424-1.062V4.576c0-.624.128-1.105.384-1.446.141-.17.424-.454.848-.851l.851-.68c.113-.056.793.044 2.041.298a.58.58 0 0 1 .382.212c.084.085.142.129.169.129.198-.058.879.056 2.04.34.256.056 1.263.085 3.019.085 1.021 0 1.615.085 1.786.254a.693.693 0 0 1 .212.509l.298-.127c.226-.084.426-.127.595-.127h7.907c.312 0 .652.085 1.021.254a.684.684 0 0 1-.043-.425c.029-.198.269-.338.722-.424.17-.03.412.013.725.127l.426-.426c.026-.029.055-.141.083-.339 0-.199.085-.326.254-.382.625-.228 1.077-.256 1.361-.085.17.085.61.254 1.317.509.68.257 1.12.398 1.319.426.112 0 .297-.057.552-.169a.984.984 0 0 1 .637-.043c.368.084 1.545.326 3.53.723.282.113.636.312 1.061.595.113.058.354.071.724.043.368 0 .61.014.723.042.14.057.211.128.211.212 0 .114.014.186.043.212.142.085.764.256 1.87.511.169.056.325.155.468.296.142.114.239.172.297.172s.157-.03.298-.085c.113-.086.227-.113.339-.086l.854.297z"
    clip-rule="evenodd"
  />
</svg>
