<svg xmlns="http://www.w3.org/2000/svg" xml:space="preserve" viewBox="0 0 48 48">
  <g fill="#DD2C00" stroke="#DD2C00" stroke-linecap="round" stroke-linejoin="round" stroke-width="2">
    <path d="m26.063 32.063 1 7.937M25 40h2s3 0 5 1" />
  </g>
  <g stroke="#FF3D00" stroke-linecap="round" stroke-linejoin="round" stroke-width="2">
    <path fill="none" d="m24.063 33 1 7.938" />
    <path fill="#DD2C00" d="M23 41h2s3 0 5 1" />
  </g>
  <path
    fill="#b88151"
    d="M36.99 16.277c-.773-1.224.451-1.224 1.482-3.285L34.929 7C29.774 7 28.031 14.938 27 17c-4.124 0-11 4-11 4-2.062 0-4.42-6.041-5.708-6.75 0 0-2.635 4.173-3.542 10.5.719.493 1.58 1.025 2.636 1.44C12.907 34.345 20.971 37 25.65 37c5.154 0 7.35-3 7.35-3s11.206-3.291 3.99-17.723z"
  />
  <circle cx="9.5" cy="15.5" r="1.5" fill="#e0ab79" />
  <circle cx="7.546" cy="20.5" r="1.5" fill="#e0ab79" />
  <circle cx="7.5" cy="23.5" r="1.5" fill="#e0ab79" />
  <circle cx="8" cy="17.666" r="1.5" fill="#e0ab79" />
  <path
    fill="#e0ab79"
    d="M29.039 12.267c-.941 1.945-1.551 3.882-1.977 4.733C23.063 17 16 21 16 21c2 2 5.063 2 5.063 2S19.506 24.959 16 26c2 1 5 1 5 1s-1 2-4 3c2 1 5.484.884 7.556.043 8-3.25 7.5-10.997 7.5-10.997-.224-2.702-1.683-6.007-3.017-6.779z"
  />
  <g fill="#FF3D00">
    <path d="M34.063 7.5c0-.828 1-3.5 1.5-3.5s1.5 2.672 1.5 3.5a1.5 1.5 0 0 1-3 0z" />
    <path
      d="M35.224 6.467c.373-.738 2.47-2.674 2.915-2.449.447.226.137 3.061-.236 3.801a1.503 1.503 0 0 1-2.016.664 1.502 1.502 0 0 1-.663-2.016z"
    />
    <path
      d="M33.813 8.788c-.442-.699-1.026-3.492-.604-3.76s2.697 1.455 3.139 2.155a1.499 1.499 0 0 1-.464 2.069c-.7.444-1.627.235-2.071-.464z"
    />
    <path d="M37.248 6.095c.775-.291 3.629-.293 3.805.175.176.469-1.975 2.344-2.751 2.634a1.5 1.5 0 0 1-1.054-2.809z" />
    <path
      d="M38.791 8.018c.818.125 3.307 1.519 3.232 2.013-.076.494-2.869 1.078-3.688.952a1.5 1.5 0 1 1 .456-2.965zM39.063 14.5a2.5 2.5 0 0 1-4.979.332c.013-.024 2.562.002 2.979-1.832 0 0 .905-.584.897-.573a2.499 2.499 0 0 1 1.103 2.073z"
    />
  </g>
  <g fill="#b88151">
    <circle cx="35.063" cy="11" r="4" />
    <path d="M35.063 7C30 7 28 14 27.063 17l3-2 1.5 2.313 2.594-2.469L35.063 7z" />
  </g>
  <circle cx="36.063" cy="11" r="1" />
  <path fill="#FFC107" d="m39.063 11-2 2 2 1s2-1 4 0c-1-3-4-3-4-3z" />
</svg>
