<svg xmlns="http://www.w3.org/2000/svg" xml:space="preserve" viewBox="0 0 256 256">
  <ellipse cx="128" cy="127.833" fill="#5E7B93" rx="128" ry="127.833" />
  <ellipse cx="128.418" cy="127.833" rx="118.833" ry="118.678" />
  <g fill="#1E2A31">
    <path
      d="M222.433 133.458s-4.328.891-8.53-.635c8.404-5.596 8.53-11.826 8.53-11.826s-6.365 1.145-9.929-.763c8.146-6.993 8.656-17.548 8.656-17.548s-3.437 1.526-8.912 1.781c8.402-9.41 4.711-18.057 4.711-18.057s-5.603 3.942-12.731 6.739c5.475-14.114 2.8-23.65 2.8-23.65s-6.238 6.993-11.075 9.536c2.672-16.275-1.784-23.523-1.784-23.523s-1.4 4.96-7.384 9.155c-.638-17.293-4.328-18.31-4.328-18.31s-1.656 4.322-4.076 7.12c-1.018-16.657-5.22-17.166-5.22-17.166s-.127 2.798-1.782 7.629c-.255-10.426-7.258-16.275-7.003-14.495s-.891 18.692-.891 18.692 56.861 99.59 22.005 105.936c-9.983 1.817-27.486-4.012-55.999-22.015.51 5.341 1.91 29.119 9.039 41.58 7.131 12.462 17.315 17.293 17.315 17.293s6.112-2.797 4.966-3.434c-1.146-.635-2.929-3.306-.764-2.161 2.164 1.144 2.037.764 2.037.764l2.419-2.036 3.184.382s22.407.509 19.352-1.398c-3.054-1.907-10.694-7.121-10.694-7.121s-16.423-.508 5.603-.127c22.026.382 31.575-15.385 31.575-15.385s-2.929.253-5.984-1.271c12.604-5.088 10.187-9.41 10.187-9.41s-7.003.382-9.168-1.653c15.021-5.722 13.875-14.623 13.875-14.623zM71.348 154.074C36.49 147.729 93.352 48.139 93.352 48.139s-1.146-16.912-.892-18.692c.255-1.78-6.748 4.069-7.002 14.495-1.655-4.831-1.782-7.629-1.782-7.629s-4.202.509-5.221 17.166c-2.419-2.798-4.074-7.12-4.074-7.12s-3.692 1.017-4.329 18.31c-5.983-4.195-7.384-9.155-7.384-9.155s-4.457 7.248-1.783 23.523C56.047 76.493 49.809 69.5 49.809 69.5s-2.674 9.536 2.801 23.65c-7.13-2.797-12.732-6.739-12.732-6.739s-3.692 8.646 4.711 18.057c-5.476-.255-8.912-1.781-8.912-1.781s.509 10.555 8.657 17.548c-3.564 1.907-9.931.763-9.931.763s.128 6.23 8.53 11.826c-4.202 1.525-8.53.635-8.53.635s-1.146 8.901 13.878 14.623c-2.165 2.035-9.168 1.653-9.168 1.653s-2.418 4.322 10.187 9.41c-3.056 1.524-5.984 1.271-5.984 1.271s9.549 15.767 31.575 15.385c22.027-.381 5.602.127 5.602.127s-7.639 5.214-10.693 7.121c-3.057 1.907 19.352 1.398 19.352 1.398l3.184-.382 2.418 2.036s-.126.38 2.038-.764c2.164-1.145.382 1.526-.764 2.161-1.146.637 4.965 3.434 4.965 3.434s10.187-4.831 17.316-17.293c7.13-12.461 8.53-36.239 9.039-41.58-28.515 18.004-46.018 23.833-56 22.015z"
    />
  </g>
  <g fill="#5A7383">
    <path
      d="M91.172 130.499c-.254 6.866-.509 17.039-.892 19.073-.382 2.034-2.928 4.959-7.384 3.179-5.984-2.034-10.059-10.299-7.767-32.933 5.983-32.933 29.481-84.025 29.481-84.025s-8.855-2.186-10.257 11.038c-1.654.382-2.291-1.779-2.291-1.779s-2.674 2.67-2.165 10.936c-2.674 1.271-3.183-4.705-3.183-4.705s-3.183 3.814-2.291 15.64c-2.165-.381-3.312-4.959-3.312-4.959s-4.455 2.162-3.564 19.709c-3.82-2.416-6.493-8.138-6.493-8.138s-4.202 6.485.382 20.727c-4.966-4.069-7.512-6.485-7.512-6.485s-4.966 8.138 3.819 23.269c-6.748-5.594-11.332-9.79-11.332-9.79s-2.291 5.213 4.457 17.674c-6.238-3.56-12.478-7.884-12.478-7.884s-1.782 8.139 9.167 17.93c-4.201-.891-10.567-2.416-10.567-2.416s.382 7.12 8.021 12.08c-6.748.89-9.167.635-9.167.635s6.11 9.919 15.405 12.588c-8.149 2.798-9.804 3.308-9.804 3.308s.891 4.45 19.226 4.322c.382 1.399-16.425 4.196-16.425 4.196s2.929 6.23 27.247 4.451c-.256 1.906-8.403 5.977-8.403 5.977s13.75.254 14.132.254 27.502-31.153 27.502-31.153l-10.187-7.757c.003-.003-3.816-4.962-13.365-4.962zM211.829 139.272s-2.42.255-9.168-.635c7.64-4.96 8.021-12.08 8.021-12.08s-6.365 1.525-10.567 2.416c10.95-9.791 9.167-17.93 9.167-17.93s-6.238 4.324-12.477 7.884c6.747-12.461 4.457-17.674 4.457-17.674s-4.585 4.196-11.331 9.79c8.784-15.131 3.819-23.269 3.819-23.269s-2.548 2.416-7.512 6.485c4.582-14.241.38-20.727.38-20.727s-2.672 5.722-6.493 8.138c.892-17.547-3.564-19.709-3.564-19.709s-1.146 4.578-3.311 4.959c.891-11.825-2.291-15.64-2.291-15.64s-.509 5.976-3.184 4.705c.51-8.266-2.165-10.936-2.165-10.936s-.636 2.161-2.291 1.779c-1.4-13.224-10.258-11.038-10.258-11.038s23.499 51.093 29.483 84.025c2.291 22.634-1.783 30.898-7.767 32.933-4.457 1.78-7.003-1.145-7.386-3.179-.381-2.034-.636-12.207-.891-19.073-9.549 0-13.369 4.959-13.369 4.959l-10.185 7.757s27.119 31.153 27.502 31.153c.381 0 14.131-.254 14.131-.254s-8.146-4.07-8.402-5.977c24.319 1.779 27.246-4.451 27.246-4.451s-16.807-2.797-16.423-4.196c18.333.128 19.225-4.322 19.225-4.322s-1.656-.51-9.805-3.308c9.299-2.666 15.409-12.585 15.409-12.585z"
    />
  </g>
  <path fill="none" d="M128.502 105.81v-.042l-.002.042z" />
  <path
    fill="#8D9BA4"
    d="m85.512 220.448.04-.072.009-.136-.009.071-.04.137zM80.158 225.21a9.65 9.65 0 0 1-2.323.188 7.44 7.44 0 0 0 2.323-.188z"
  />
  <path
    fill="#5A7383"
    d="M84.66 179.05c-2.675 5.977-5.855 14.686-6.875 46.343 0 .002.033.005.05.005a9.65 9.65 0 0 0 2.323-.188c3.971-.827 5.054-5.174 5.054-5.174s-.085-21.531 6.132-33.738c8.977-17.631 36.987-51.497 36.987-51.497l-.283-.392-5.064-6.983c-.001 0-35.65 45.648-38.324 51.624z"
  />
  <path
    fill="#8D9BA4"
    d="m171.44 220.24.01.136.037.072c-.023-.079-.037-.137-.037-.137l-.01-.071zM179.164 225.397a9.637 9.637 0 0 1-2.321-.188 7.365 7.365 0 0 0 2.321.188z"
  />
  <path
    fill="#8D9BA4"
    d="M184.692 191.003c-2.379-16.445-15.11-32-15.11-32l-29.325-39.207 6.067-13.352-1.484-39.671-4.455-3.18S129.5 96.734 130.198 96.781c1.909.127 3.311 1.398 3.311 4.578 0 4.45-5.007 4.408-5.007 4.408v.042h-.002l.002-.042s-5.01.042-5.01-4.408c0-3.18 1.4-4.451 3.311-4.578.7-.047-10.186-33.188-10.186-33.188l-4.456 3.18-1.485 39.671 6.068 13.352-29.325 39.207s-12.731 15.555-15.109 32c-2.376 16.444-1.824 25.304-1.782 28.99.025 2.128 3.455 5.098 7.258 5.399 1.02-31.657 4.2-40.366 6.875-46.343 2.674-5.976 38.323-51.624 38.323-51.624l5.064 6.983c.176-.203.283-.329.283-.329v-.043h.34v.043l.282.329 5.064-6.983s35.651 45.648 38.323 51.624c2.674 5.977 5.857 14.686 6.876 46.343 3.801-.302 7.233-3.271 7.257-5.399.043-3.686.595-12.546-1.781-28.99z"
  />
  <path
    fill="#5A7383"
    d="m134.018 127.426-5.064 6.983-.282.392s28.01 33.866 36.986 51.497c6.216 12.207 6.131 33.738 6.131 33.738s1.084 4.347 5.055 5.174a9.637 9.637 0 0 0 2.321.188.234.234 0 0 0 .053-.005c-1.019-31.657-4.202-40.366-6.876-46.343-2.673-5.976-38.324-51.624-38.324-51.624zM129.134 145.292h1.138v10.682h-1.138zM126.15 144.885l1.123.178-1.668 10.55-1.124-.179zM122.942 144.021l1.097.305-2.86 10.29-1.096-.304zM135.113 155.435l-1.123.178-1.67-10.549 1.123-.177z"
  />
  <path fill="#5A7383" d="m139.502 154.312-1.098.305-2.857-10.292 1.098-.305z" />
</svg>
