<svg xmlns="http://www.w3.org/2000/svg" xml:space="preserve" viewBox="0 0 512 512">
  <path
    d="M458.667,192H352c-5.888,0-10.667,4.779-10.667,10.667s4.779,10.667,10.667,10.667h106.667c17.643,0,32,14.357,32,32
			v213.333c0,17.643-14.357,32-32,32H245.333c-17.643,0-32-14.357-32-32v-85.333c0-5.888-4.779-10.667-10.667-10.667
			S192,367.445,192,373.333v85.333C192,488.064,215.936,512,245.333,512h213.333C488.064,512,512,488.064,512,458.667V245.333
			C512,215.936,488.064,192,458.667,192z"
  />
  <path
    d="M160,298.667h-10.667c-5.888,0-10.667,4.779-10.667,10.667S143.445,320,149.333,320H160
			c5.888,0,10.667-4.779,10.667-10.667S165.888,298.667,160,298.667z"
  />
  <path
    d="M62.741,0h-9.408C48.235,0,43.2,0.725,38.357,2.133c-5.653,1.664-8.896,7.595-7.253,13.248
				c1.365,4.651,5.632,7.659,10.24,7.659c1.003,0,2.005-0.128,3.008-0.427c2.901-0.853,5.909-1.28,8.981-1.28h9.408
				c5.909,0,10.667-4.779,10.667-10.667S68.629,0,62.741,0z"
  />
  <path
    d="M21.333,257.216v-21.568c0-5.888-4.779-10.667-10.667-10.667S0,229.76,0,235.648v21.568
				c0,5.888,4.779,10.667,10.667,10.667S21.333,263.104,21.333,257.216z"
  />
  <path
    d="M10.667,203.179c5.888,0,10.667-4.779,10.667-10.667v-21.568c0-5.888-4.779-10.667-10.667-10.667S0,165.056,0,170.944
				v21.568C0,198.4,4.779,203.179,10.667,203.179z"
  />
  <path
    d="M10.667,73.792c5.888,0,10.667-4.779,10.667-10.667v-9.792c0-2.965,0.405-5.888,1.195-8.704
				c1.6-5.675-1.685-11.563-7.36-13.163c-5.632-1.685-11.563,1.664-13.163,7.36C0.683,43.541,0,48.427,0,53.333v9.792
				C0,69.013,4.779,73.792,10.667,73.792z"
  />
  <path
    d="M10.667,138.496c5.888,0,10.667-4.779,10.667-10.667v-21.568c0-5.888-4.779-10.667-10.667-10.667S0,100.373,0,106.261
				v21.568C0,133.717,4.779,138.496,10.667,138.496z"
  />
  <path
    d="M44.587,297.451c-5.163-1.472-9.941-4.267-13.781-8.085c-4.16-4.16-10.923-4.117-15.083,0.043
				c-4.16,4.181-4.139,10.944,0.043,15.083c6.4,6.379,14.357,11.029,22.997,13.483c0.981,0.277,1.963,0.405,2.923,0.405
				c4.629,0,8.917-3.051,10.24-7.744C53.547,304.96,50.261,299.051,44.587,297.451z"
  />
  <path
    d="M307.605,51.968c0.981,0,1.984-0.128,2.987-0.448c5.653-1.664,8.917-7.573,7.253-13.227
				c-2.517-8.619-7.253-16.533-13.675-22.891c-4.181-4.139-10.944-4.117-15.083,0.085c-4.139,4.181-4.096,10.944,0.085,15.083
				c3.84,3.84,6.699,8.576,8.192,13.717C298.731,48.939,302.976,51.968,307.605,51.968z"
  />
  <path
    d="M256.832,0h-21.568c-5.888,0-10.667,4.779-10.667,10.667s4.779,10.667,10.667,10.667h21.568
				c5.888,0,10.667-4.779,10.667-10.667S262.72,0,256.832,0z"
  />
  <path
    d="M106.219,298.667H84.651c-5.888,0-10.667,4.779-10.667,10.667S78.763,320,84.651,320h21.568
				c5.888,0,10.667-4.779,10.667-10.667S112.107,298.667,106.219,298.667z"
  />
  <path
    d="M309.333,73.6c-5.888,0-10.667,4.779-10.667,10.667v21.568c0,5.888,4.779,10.667,10.667,10.667S320,111.723,320,105.835
				V84.267C320,78.357,315.221,73.6,309.333,73.6z"
  />
  <path
    d="M192.149,0h-21.568c-5.909,0-10.667,4.779-10.667,10.667s4.779,10.667,10.667,10.667h21.547
				c5.909,0,10.688-4.779,10.688-10.667S198.037,0,192.149,0z"
  />
  <path
    d="M127.445,0h-21.568c-5.888,0-10.667,4.779-10.667,10.667s4.779,10.667,10.667,10.667h21.568
				c5.888,0,10.667-4.779,10.667-10.667S133.333,0,127.445,0z"
  />
  <path
    d="M309.333,138.667c-5.888,0-10.667,4.779-10.667,10.667V160c0,5.888,4.779,10.667,10.667,10.667S320,165.888,320,160
			v-10.667C320,143.445,315.221,138.667,309.333,138.667z"
  />
  <path
    d="M349.952,185.515l-33.067-33.067c-12.971-12.971-34.112-12.971-47.083,0c-3.883,3.883-6.613,8.512-8.171,13.419
			c-11.627-4.053-25.536-1.045-34.496,7.915c-4.885,4.885-7.915,10.923-9.131,17.237c-10.176-1.429-20.8,2.027-28.203,9.429
			c-7.083,7.083-10.304,16.576-9.664,25.856c-7.189,0.981-13.824,4.245-19.029,9.451c-6.293,6.293-9.749,14.656-9.749,23.552
			s3.456,17.28,9.749,23.552l9.557,9.557v38.251C170.667,360.064,194.603,384,224,384h43.733C331.84,384,384,331.84,384,267.733
			C384,236.693,371.904,207.488,349.952,185.515z M267.733,362.667H224c-17.643,0-32-14.357-32-32v-16.917l24.469,24.469
			c4.16,4.16,10.923,4.16,15.083,0c2.069-2.091,3.115-4.821,3.115-7.552c0-2.731-1.045-5.461-3.115-7.552l-55.36-55.36
			c-2.261-2.24-3.499-5.269-3.499-8.448c0-3.179,1.237-6.187,3.499-8.448c4.523-4.523,12.395-4.523,16.917,0l23.36,23.36
			c4.16,4.16,10.923,4.16,15.083,0c2.069-2.091,3.115-4.821,3.115-7.552c0-2.731-1.045-5.461-3.115-7.531l-26.667-26.667
			c-4.672-4.672-4.672-12.245,0-16.917c4.523-4.523,12.395-4.523,16.917,0l16,16c4.16,4.16,10.923,4.16,15.083,0
			c2.069-2.091,3.115-4.821,3.115-7.552s-1.045-5.461-3.115-7.531l-10.667-10.667c-4.672-4.672-4.672-12.245,0-16.917
			c4.523-4.523,12.395-4.523,16.917,0l10.667,10.667c4.16,4.16,10.923,4.16,15.083,0c2.069-2.091,3.115-4.821,3.115-7.552
			s-1.045-5.461-3.136-7.552c-2.261-2.24-3.499-5.248-3.499-8.448s1.259-6.208,3.52-8.448c4.672-4.672,12.245-4.672,16.917,0
			l33.067,33.067c17.92,17.92,27.797,41.771,27.797,67.115C362.667,320.085,320.085,362.667,267.733,362.667z"
  />
</svg>
