<svg xmlns="http://www.w3.org/2000/svg" xml:space="preserve" viewBox="0 0 32 32">
  <path
    fill-rule="evenodd"
    d="M28.443 16.63c.02-1.734-.59-1.773-.629-2.836-.021-.533.044-2.025 0-3.465-.045-1.434-.198-2.816-.315-3.15-.236-.67-.504-1.773-2.52-3.464C22.773 1.863 18.52.289 16.159.25 13.796.21 11.04 1.392 8.913 2.77 6.787 4.147 6.275 4.738 5.449 5.92c-.828 1.181-1.143 2.007-.946 4.095.197 2.086.244 1.535.315 3.465.06 1.594-.665 2.088-.63 3.15.052 1.586.648 1.917.63 2.52-.013.396-.709.893-.63 2.205.08 1.336.354 1.693 2.835 3.15 1.61.945 3.504 1.299 3.465 1.889-.058.865-.275 2.285-.314 3.15-.039.867.354.945 1.259 1.26.907.316 3.032.984 5.356.945 2.323-.039 3.308-.512 4.41-.945 1.102-.432 1.26-.826 1.26-1.574s-.63-2.283-.63-2.836c0-.551 1.89-1.141 4.095-2.205 2.206-1.063 2.18-2.125 2.206-2.834.047-1.338-.631-1.654-.631-2.205 0-1.076.932-1.259.944-2.52zM16.317 3.807a3.08 3.08 0 1 1 0 6.162 3.08 3.08 0 1 1 0-6.162zM9.858 19.875c-1.103.039-3.465.039-3.465-3.151 0-4.42 2.362-4.922 4.095-5.041 1.733-.117 1.969-.314 2.836.316 1.556 1.131 1.456 3.137.944 4.725-.375 1.163-.788 1.614-1.575 2.206-.787.59-1.732.904-2.835.945zm7.246 5.039-.434-1.607-.67.006-.472 1.602c-1.812-.492-2.54-1.221-2.52-2.205.02-.984.571-2.008 1.574-2.834 1.005-.828 1.167-.955 1.891-.945.691.01.752.143 1.26.629 1.097 1.051 1.807 1.752 1.891 3.15.082 1.376-1.517 2.145-2.52 2.204zm5.669-5.039c-1.103-.041-2.047-.355-2.835-.945-.787-.592-1.252-1.027-1.575-2.206-.407-1.484-.61-3.594.947-4.724.866-.631 1.102-.434 2.835-.316 1.731.119 4.095.621 4.095 5.041-.001 3.189-2.364 3.189-3.467 3.15z"
    clip-rule="evenodd"
  />
</svg>
