<svg xmlns="http://www.w3.org/2000/svg" xml:space="preserve" viewBox="0 0 30.093 28.943">
  <path
    fill-rule="evenodd"
    d="m11.976 9.917 1.117 3.809-3.433.302 2.838 2.314-1.419 2.688 2.688-1.344.3 2.988 1.939-2.541 2.389 1.942-.67-2.611 3.061-.971-2.612-1.419 2.09-3.064-3.21.896-.298-3.583-1.868 3.286-2.912-2.692zm6.281-8.554.674 8.091 7.249-2.021-4.722 6.91 5.902 3.207-6.91 2.188 1.514 5.9-5.394-4.381-4.382 5.729-.674-6.743-6.069 3.035 3.202-6.069-6.407-5.228 7.755-.674-2.527-8.596 6.575 6.069 4.214-7.417zm-3.779 14.373-.971-.792 1.172-.1-.382-1.303.997.921.636-1.122.101 1.223 1.097-.306-.711 1.046.892.481-1.047.334.229.893-.815-.666-.662.87-.104-1.02-.917.46.485-.919z"
    clip-rule="evenodd"
  />
</svg>
