<svg xmlns="http://www.w3.org/2000/svg" xml:space="preserve" viewBox="0 0 32 32">
  <g>
    <path
      d="M28.437 10.648h3.149v.861h-3.149zM27.59 9.549l1.757-1.78.611.604-1.756 1.78zM27.85 12.723l.605-.612 1.778 1.76-.605.61zM26.552 13.394l.776-.37.717 1.505-.776.37zM26.423 8.62l.897-1.406.725.463-.897 1.405zM27.299 10.939l-2.667-1.046-7.114.018c-.267-.822-1.557-2.424-1.92-2.813-.364-.387-1.284-1.21-2.375-1.742-1.09-.534-2.592-.97-4.044-1.065a9.17 9.17 0 0 0-3.608.507c-.897.315-2.203 1.041-3.246 2.203C1.283 8.164.654 10.369.654 12.888c0 1.769 1.454 5.959 1.345 7.666l-.292 2.761c-.218.945-.289 2.145-.289 2.145.447.532 1.925 2.204 3.475 3.366 1.551 1.162 3.658 2.76 5.693 2.737 2.034-.023 2.494-.436 3.365-.896.872-.461 1.042-.824 1.17-1.164.127-.339-.103-.774-.249-1.234-.144-.461.024-.872.249-1.042.223-.169.574-.533.914-.823.339-.292.702-1.042.896-1.599.193-.558.557-2.108.774-2.642.218-.532.823-1.912.993-2.398.17-.484.146-1.622-.072-2.249-.218-.627-.218-1.213-.146-1.966.073-.751.508-.994.508-2.378 0-.31-.104-.683-.304-1.057l5.978-.026 2.637-1.15zM8.491 13.291l-1.089 1.236-1.332-.97-.921.631-.582-1.696-.677-.047.073-1.066-1.623-.486v-.072l1.283-.751-.411-1.356h1.694l.243-1.26.993.437.775-1.091.485 1.042 1.478-.315.314 1.284 1.891 1.283-.944 1.066.944.993-1.43.266-.12 1.188-1.044-.316zm3.643 3.157c-.724-.062-1.574-.509-1.84-.896-.267-.387-.363-1.018 0-1.308.363-.29 1.138-.896 2.325-.774 1.188.121 1.938.881 1.889 1.481-.048.601-.461.988-.896 1.183-.437.192-1.19.339-1.478.314zm4.991 6.612s-.112.294-.291.436c-.483.388-.558.437-.848.461-.291.024-.8 0-1.09 0s-.727-.218-1.065-.389c-.339-.169-.823-.678-.921-.75-.097-.073-.351-.416-.169-.557.287-.224.727-.606 1.066-.679.338-.073.762-.193 1.313-.193.552 0 1.35-.049 1.641.096.291.146.581.484.581.655 0 .171-.217.92-.217.92zm1.477-8.573c.068.252-.28.704-.34.969-.097.436.024.703 0 .992-.023.291-.217.412-.217.412s-.218-.097-.534-.218c-.315-.121-.75-.483-.75-.775 0-.291.024-.702.315-.969.291-.266.8-.604 1.14-.63.338-.024.3-.097.386.219z"
    />
  </g>
</svg>
