<svg xmlns="http://www.w3.org/2000/svg" viewBox="0 0 1680 689">
  <path
    fill-rule="evenodd"
    d="m79 134.4l-74.2 0.3v-109.3h157.7c6.4-15.1 20.2-25.4 39.1-25.4c23.5 0 36.2 6.5 44.2 16.1c2.3 2.6 4 5.8 5.5 9.3h154v108.6h-74.8v-50.4h-251.5zm1588.1-127.6v215.6c0 18.8-3.9 32.2-15.9 45.2c-3.8 4.1-9.9 7.9-17 9.3c4.8 10.8 8.1 16.1 8.6 16.9c2.9 5 10.6 19.9 16.1 20.1h21.1v72h-30c-15.4 0-20.9-0.9-29.1-7.9v107.3h-63v-171.6h16.7c-1.1-2.2-1.2-2.9-0.4-1c1.1 2.2-5.6-12.7-16.1-35.8h-157.7l-8.6 27.6h44.9v101.9c1.8 48.7-9 78.9-61.2 78.9h-437.8c-33.9 0-47.6-12.5-48.3-52.6v-282.3h-16.3v-67.7h16.3v-72h67.2v72h33.4v-72h67.2v72h106.1v-72h66.2v72h29.1v67.7h-29.6v149.4c1.9 50.3-5.5 84.5-64 84.5h-174.8v-233.9h-33.8v259.3c0.5 6.3 3.1 10.1 8.6 10.1h402.7c3.2 0 6.1-3.1 6.1-7v-66.5c-6 9.4-13 18.1-20.5 25.2c-12.9 12-27.3 10.8-70.7 10.8h-4.6v-66.2h9.8c7.7 0 17.3-2.6 21.1-5.8c3.9-3.3 8-11.2 8.9-14.1l6-19.3h-25.1v-270.1zm-610.4 306.9h99.8c3.4 0 6.1-3.2 6.1-7.2v-156.1h-105.9zm392.9-144h-84l-0.2 51.1h83.9zm0.3-107.1h-83.8l-0.2 51h83.8zm150.4 107.2h-88l-0.1 51h72.3c7.9 0 8.6-2.5 11.3-5.8c2.9-3.2 4.6-11.1 4.6-14zm0.6-107.2h-88l-0.2 51.1h88.2zm-835.1 354.3h106.5v63.9h-133.9l-98.4-79.9c-5.5 6.4-11.7 13.1-19.2 20.1c-41.8 42.7-91.9 59.6-201.9 59.6h-172.2v-182.2h-75.9l-88.8 182.2h-81.6l89-182h-89.3v-58.3h402.3v58.3h-81.9v121h100.6c105.2-0.2 140.2-33.1 156.7-60.7h-130.1v-54.5h150.8c1.2-6.1 2.2-12.6 2.4-19.2c0-1.5 0.7-8 0.9-18.6h-154v-54.2l154-0.3c0-9.3 0-19.2 0-29.7h-154v-54.5h154q0-15.7 0-31.9h-154v-54.5h43.2l-15.7-34.9h73.3l15.8 34.9h156.7l17.1-34.9h81.6l-17.1 34.9h40.1v54.5h-162.2v31.9h162.2v54.5h-162.2v29.7h162.2v54.5h-162.2c-0.5 12.8-2 25.5-3.4 37.7h165.6v54.5h-148.3zm-754.8-273.6h386.6v58.5h-386.6z"
  />
  <path
    fill-rule="evenodd"
    d="m260.1 594.9c1 1.2 1.5 2.6 1.5 3.9v21.1c0 2.3-1.4 3.6-3.1 3.6h-72.8c3 12.5 9.4 21.1 21.2 26.4c5.8 2.4 13.2 3.5 20.6 3.5c16.4 0 32.4-4.7 32.4-4.7c1.2-0.5 2.7 0 3.9 1.2c1.2 1.2 1.9 2.9 1.9 4.5v20.2c0 1.7-0.8 3.1-2.2 3.4c-0.2 0-19.9 5.3-42 5.3c-8.6 0-17.3-0.8-25.7-3c-21.5-5.7-44.1-22.2-50.4-54.2c-1.4-7.2-2.1-15.1-1.9-23.8c1.4-42.2 28.4-63.4 54.3-70c9.5-2.4 18.9-3.2 27.3-3.2c19.5 0 34.8 4.3 35 4.3c2.2 0.7 3.9 3.2 3.9 5.6v23c0 1.4-0.5 2.4-1.4 3.1c-0.8 0.7-2 0.8-3.2 0.3c-0.2 0-10.8-4.6-26.3-4.6c-6.1 0-13 0.9-20 2.9c-14.6 4.3-26.8 17.8-28.8 38.1c3.6-4.8 9.2-8.8 18.3-8.8h53.9c1.2 0 2.4 0.5 3.6 1.9zm121.8 35.1c10.8 11.2 18 29.2 21.3 44.1c0.3 1.9 0.7 3.4 0.9 5.1c0.3 2.4-1.1 4.3-3.1 4.3h-33.5c-1 0-2.4-0.5-3.2-1.5c-1-1.1-1.6-2.4-1.7-3.8c-0.2-3.1-0.5-6-1.2-9.1c-3.5-15.6-10.1-28.8-24.2-30c-0.3 0-0.5-0.1-0.7-0.1c-3.4 0-5.8-0.2-5.8-0.2c-1.2 0-2.6-0.7-3.4-1.9c-1.1-1.2-1.6-2.6-1.6-3.9c0 0 0-4.5 0-15.8c0-2.1 1.4-3.6 3.1-3.6c26.1-0.7 33.1-6.4 33.6-30c0-3.4-0.3-6.5-0.9-9.1c-1.5-6.3-3.6-9.4-7.8-12.2c-4.5-2.7-11.9-4.4-22.2-4.4c-4.4 0-9.2 0.3-14.5 0.8c-0.2 22-0.2 120.7-0.2 120.9c0 2-1.2 3.6-3.1 3.6h-28.1c-1.2 0-2.6-0.7-3.4-1.7c-1.1-1.1-1.6-2.6-1.6-4v-143.8c0-2 1.2-3.4 2.9-3.6c0 0 19.4-1.4 40.5-1.4c12.5 0 25.4 0.6 35.3 2.1c23.3 3.1 37.4 18.7 41 38.4q1.5 8 1.5 17c0 19-7 34.8-19.9 43.8zm-244.2-43.7c-0.2 26.3-15 46-39.3 51.3c-8.9 1.9-19.4 2.4-28.3 2.4c-11.5 0-20.6-0.9-20.7-0.9c-1.1-0.1-1.9-0.7-2.8-1.3v41.9c0 2.1-1.2 3.6-3.1 3.6h-31.7c-1.2 0-2.4-0.6-3.4-1.7c-1-1-1.5-2.5-1.5-3.9v-143.8c0-2.1 1.3-3.6 3.2-3.6h-0.2c0 0 22.7-1.4 46.2-1.4c13.7 0 27.6 0.5 37.7 2.1c23.8 3.1 38.4 18.8 42.1 39.2c1.1 5 1.6 10.3 1.8 16.1zm-43.4-10.4c-1.6-6.5-3.8-10-8.9-13c-5.2-3.1-13.2-4.8-24.2-4.8c-4.5 0-9.4 0.3-14.7 0.8c0 9.1 0 30.9 0 53.5c0.3-0.2 0.8-0.2 1.2-0.2c18.3 0 30.6-1.7 37.7-6c7-4.4 9.6-10.6 9.7-22.4c0-3.1-0.3-5.7-0.8-7.9zm692.7-36.4v23c0 1.2-0.5 2.4-1.3 3.1c-1.1 0.5-2.1 0.7-3.3 0.2c-0.2 0.1-10.8-4.5-26.2-4.5c-6.2 0-13.1 0.7-20.1 2.8c-15.8 4.6-30.5 19.7-30.3 41.4c-0.2 6 0.5 11.2 1.3 16c3.1 14.5 9.6 22.8 22.7 28.6c5.6 2.6 13 3.4 20.4 3.4c16.4 0 32.4-4.6 32.4-4.6c1.2-0.5 2.7 0 3.9 1.2c1.2 1.2 1.9 2.9 1.9 4.5v20.2c0 1.7-1 3.1-2.4 3.4c-0.2 0-19.7 5.3-41.8 5.3c-8.6 0-17.3-0.8-25.7-3.1c-21.3-5.5-43.9-21.9-50.3-54c-1.3-7.2-1.9-15.2-1.7-23.8c1.4-42 28.3-63.2 54.2-69.7c9.4-2.4 18.8-3.3 27.2-3.3c19.6 0 34.7 4.3 34.8 4.3c2.3 0.7 4 3.1 4.3 5.6zm134.4-1.5v22.5c0 2-1.2 3.6-3.1 3.6h-40.4l-0.2 115.6c0 2.1-1.2 3.6-3.1 3.6h-32.4c-1.2 0-2.4-0.6-3.4-1.7c-0.9-1-1.5-2.5-1.5-3.9l0.1-113.6h-38.5c-1.4 0-2.6-0.6-3.6-1.8c-1.1-1.2-1.6-2.5-1.6-3.9v-22.5c0-2.2 1.2-3.6 3.1-3.6h119.7c1.2 0 2.5 0.7 3.4 1.8c1 1 1.5 2.5 1.5 3.9zm-391 56.7c1 1.2 1.5 2.6 1.5 4v21.1c-0.1 2.2-1.3 3.6-3.2 3.6h-75.6v56.3c0 2.1-1.2 3.6-3.1 3.6h-33.1c-1.2 0-2.4-0.6-3.4-1.7c-1-1-1.6-2.5-1.6-3.9c0 0 0.2-50.6 0.2-76.3c0-38.2 23-71.6 57.8-71.8h62.7c1.2 0 2.4 0.7 3.5 1.7c1 1 1.5 2.6 1.5 4v20c0 2.1-1.4 3.6-3.1 3.6h-44c-21.5 0-35.4 17.5-36.9 42.7c3.8-4.6 9.4-8.6 18.3-8.6h55.1c1.2 0 2.5 0.5 3.4 1.7zm49.4 6.5c3.6-4.6 9.2-8.5 18.3-8.5h55c1.2 0 2.4 0.5 3.5 1.7c1 1.2 1.5 2.6 1.5 3.9v21.1c0 2.2-1.4 3.6-3.1 3.6h-73.9c3.5 12.5 10.5 21.6 22.3 26.8c5.9 2.4 13.2 3.4 20.6 3.4c16.5 0 32.4-4.6 32.4-4.6c1.2-0.4 2.7 0.1 3.9 1.3c1.1 1.2 1.9 2.9 1.9 4.5v20.2c0 1.7-1 3.1-2.4 3.4c-0.1 0-19.9 5.3-42 5.3c-8.5 0-17.5-0.8-25.9-3c-21.2-5.5-43.8-22-50.2-54c-1.5-7.2-2.2-15.1-1.9-23.9c1.4-41.9 28.5-63.2 54.4-69.7c9.2-2.4 18.7-3.3 27.2-3.3c19.6 0 34.8 4.3 35 4.3c2.2 0.7 3.9 3.3 3.9 5.7v22.9c0 1.2-0.5 2.4-1.3 3.1c-0.9 0.5-2.1 0.7-3.3 0.2c0 0-10.8-4.6-26.2-4.6c-6.2 0-13 0.8-20.1 2.9c-14.5 4.3-27.6 17.8-29.6 37.3z"
  />
  <path
    fill-rule="evenodd"
    d="m1302.5 611.7c-0.2 41.3-20.9 65.6-44.7 73q-11.6 3.6-23.7 3.6c-8.4 0-17-1.4-25.4-4.1c-17.3-5.5-35.1-20.7-40.8-49.7c-1.5-7.4-2.4-15.6-2.2-24.9c0.4-45.7 24.9-66.8 46.8-72.8c7.2-2.2 14.2-3.3 21.3-3.3c7 0 13.9 1.2 20.9 3.3c18 5.1 39.4 21.6 45.8 53.5c1.3 6.5 2 13.7 2 21.4zm-42.2-19.7c-4.2-19.7-13.7-27.6-25.2-27.9c-14.9 0-28.9 14.7-29.3 46.4c0 6.9 0.7 13 1.7 18.3c4.5 21.3 15 29.2 24.9 29.3c13.4 0.2 29.3-15.2 29.5-49.3c0-6.4-0.5-12-1.6-16.8zm-106.4-49c0 0 0.2 57.6 0 85.3c0.3 28.6-12 56.8-50.1 56.8h-0.5c-13.5 0-23-1.8-30.7-4.3c-7.7 2.5-17.3 4.3-30.8 4.3c-15.1 0-26.4-4-35-11.5c-8.6-7.6-13.2-18-15.4-28.8c-1.2-6-1.4-12.2-1.4-18.5c0.2-27.8 0-85.4 0-85.4c0-2 1.7-3.4 3.4-3.4h30c1.2 0 2.4 0.7 3.5 1.7c0.8 1.2 1.2 2.6 1.2 3.9c0 0 0.1 82.8 0 100.7c0 1.8 0 3.6 0.1 4.9c1.6 5.5 2.6 6.9 10.8 7.6c9.5-0.6 13.1-3.1 14.1-11.9v-103.5c0-2.2 1.5-3.6 3.2-3.6h29.7c1.2 0 2.4 0.7 3.4 1.7c1.1 1.2 1.4 2.6 1.4 4v100.6c0 2-0.2 3.9 0.2 5.3c1.3 5.5 2.5 6.3 11.3 7.2c9.8-0.4 13.2-4.5 13.5-14.7c0.2-17.9 0-100.5 0-100.7c0-2.2 1.6-3.6 3.3-3.6h30c1.2 0 2.4 0.7 3.4 1.8c1 1.2 1.4 2.5 1.4 4.1zm385 111.9c1.2 1.2 1.9 2.7 1.9 4.3l-0.2 19.3c0 1.8-0.8 3.1-2.2 3.5c-8.4 2.7-19 4.6-34.6 4.6h-0.2c-16.5 0-29-4.1-38.2-11.8c-9.3-7.7-14.4-18.7-16.7-29.8c-1-5.7-1.2-11.5-1.2-17.4c0.2-27.7 0-88.6 0-88.6c0-2 1.8-3.6 3.5-3.6h32.7c1.2 0 2.4 0.7 3.4 1.7c1.1 1.2 1.4 2.6 1.4 4c0 0 0.2 67.7 0 85.3c0 4 0.2 7.4 0.7 10.5c3.1 13.7 10.5 18.5 26.7 19.2c5.7 0 12.2-0.9 19.4-2.6c1.2-0.3 2.8 0.2 3.6 1.4zm-105.8-80.4c1.1 5.3 1.4 11 1.4 16.8c0 18.7-7 34.1-20.2 42.9c10.8 10.9 18 28.6 21.1 43.1c0.3 1.8 0.7 3.5 0.8 5c0.4 2.4-1 4.3-3.1 4.3h-33c-1.2 0-2.3-0.5-3.3-1.5c-1-1.2-1.5-2.6-1.7-3.8c-0.4-3.6-0.9-7.6-1.6-11.3c-3.4-14.6-8.7-25.9-21.9-27.1c-0.7 0-1.5 0-2.2 0c-3.8 0-6.4 0-6.4 0c-1.2-0.2-2.4-0.9-3.2-1.9c-1.1-1.2-1.6-2.6-1.6-3.9c0 0 0-4.3 0-15.5c-0.1-2 1.2-3.6 3.1-3.6c26.2-0.5 33.1-6.1 33.8-29.3c0-3.4-0.4-6.3-0.9-8.9c-1.3-6-3.2-9.1-7.7-11.8c-4.3-2.6-11.8-4.3-22.1-4.3c-4.5 0-9.6 0.4-14.9 0.9c-0.2 21.6 0 118.6 0 118.6c0 2-1.6 3.6-3.3 3.6h-28.4c-1.2 0-2.4-0.5-3.5-1.7c-1-1.1-1.2-2.6-1.2-4v-141.2c0-1.9 1.6-3.3 3.3-3.4c0 0 19.5-1.4 40.5-1.4c12.3 0 25.3 0.3 35.3 1.9c23.5 3.1 37.3 18.3 40.9 37.5zm244.5 15.3c1.2 5.8 1.9 12 1.9 19c0.7 44.6-17.3 65.5-43 73.5c-12.2 3.8-30.6 4.3-39.5 4.3c-3.1 0-4.9 0-4.9 0c-1.2 0-2.4-0.7-3.5-1.9c-0.5-0.5-0.8-1.2-1.2-1.9c-0.1 1.9-1.3 3.3-3.1 3.3h-30.1c-1.2 0-2.4-0.5-3.5-1.7c-0.8-1.2-1-2.6-1-4v-140.9c0-1.8 1.4-3.4 3.1-3.4c0 0 12.5-0.5 27.9-0.5c15 0 32.1 0.3 43.6 2.4c21.1 3.4 46.3 17.1 53.3 51.8zm-41.1 3.4c-4-18.7-14.4-27.1-40.7-27.8c-2.5 0-5.6 0.2-8.4 0.4v93.4c0.5-1.1 1.6-1.7 2.6-1.7c37.5-2.1 48.2-21.3 47.8-52.1c0-4.7-0.5-8.8-1.3-12.2z"
  />
</svg>
