<svg xmlns="http://www.w3.org/2000/svg" xml:space="preserve" viewBox="0 0 32 32">
  <path
    d="M24.17 13.083V8.385l-4.463 1.067-2.013-2.843-2.834 1.823-4.313-2.139-1.367 4.185-4.395.868 1.815 2.87-4.342-3.659 6.158-.948.395-6.474 6.049 3.711 3.877-4.027 1.436 5.527 5.929-2.763-.561 6.843 4.509 1.618-3.711 2.355 1.738-2.183z"
    opacity=".4"
  />
  <path
    d="M22.953 30.499h-8.646c-.016-.269.052-.532.032-.799-.015-.201.021-.399.039-.597.016-.192.008-.396.106-.579.034-.062.047-.151.034-.222-.054-.313-.105-.628-.187-.935-.089-.343-.188-.69-.369-.999-.138-.232-.346-.413-.535-.6-.951-.951-1.875-1.93-2.878-2.828-.276-.247-.535-.511-.802-.768a1.988 1.988 0 0 0-.142-.119c-.122-.093-.223-.196-.199-.382.029-.231.063-.462.111-.689.092-.427.177-.851.177-1.293.001-.917-.043-1.835.024-2.751.018-.228.052-.453.1-.676.064-.295.222-.496.516-.632.63-.293 1.278-.545 1.909-.837a1.78 1.78 0 0 1 .888-.165c.239.016.483.002.761.002-.257-.096-.502-.102-.747-.207.482-.209.943-.387 1.384-.607.273-.136.516-.189.771.01a.221.221 0 0 0 .026.019c.004.114.055.227.033.346-.051.308-.029.622-.093.926-.038.181-.071.364-.138.54-.11.296-.39.42-.601.613-.248.225-.517.427-.777.637-.212.173-.431.338-.634.52-.227.201-.476.369-.685.583.007.109.054.206.076.308l.254 1.088c-.047.045-.033.103-.036.158-.005.044.004.085-.026.13-.177.273-.354.546-.513.829-.053.092-.158.172-.127.344.578-.471 1.132-.926 1.681-1.375.168.084.316.17.473.236a4.706 4.706 0 0 1 1.577 1.097.556.556 0 0 0 .433.184c.376-.005.75.041 1.125.038.224-.001.451-.02.671.042a.491.491 0 0 0 .087.206c.201.34.408.676.591 1.026a.393.393 0 0 1 .035.283c-.045.202-.057.409-.083.614-.031.235-.063.471-.089.706-.014.132-.045.269-.036.397.092.033.104-.035.118-.075.157-.431.311-.863.464-1.295.079-.23.188-.46.214-.698.044-.452.036-.91.068-1.364.016-.234-.02-.471.046-.706.217-.089.442-.082.672-.051.193.026.381.042.543-.11a5.37 5.37 0 0 0 .805-.987l.868.219c.024-.074-.003-.104-.035-.132-.181-.155-.361-.312-.546-.462-.054-.042-.093-.119-.18-.096.045-.118.063-.241.094-.362.037-.155.034-.32.092-.472.07.002.14-.006.206-.032.414-.16.825-.315 1.236-.476.041-.016.107-.033.059-.114-.062 0-.129-.007-.192.001-.403.052-.809.053-1.213.088-.021-.104.019-.202.026-.303.019-.3.073-.595.101-.894.031-.342.108-.679.002-1.015.025-.023.042-.006.06.002.016.009.038.01.058.012.392.039.703.216.942.526.313.409.63.817.945 1.226.109.14.227.282.244.461.035.42.083.838.046 1.267-.037.412-.045.827-.067 1.242-.018.31-.051.62-.071.931-.026.401-.084.798-.118 1.198-.028.3-.033.603-.069.9-.016.123-.009.246-.029.366-.05.281-.053.565-.088.848-.03.243-.037.488-.066.729-.046.362-.098.723-.153 1.083-.029.188-.062.38-.197.528-.092.102-.162.219-.234.334-.132.213-.225.434-.223.698.005 1.057.001 2.109.001 3.163z"
  />
  <path
    d="M22.953 30.499c0-1.054.005-2.106-.004-3.16-.002-.262.09-.485.223-.698.072-.116.143-.232.234-.335.134-.149.168-.339.197-.528.055-.36.107-.72.153-1.082.029-.242.036-.487.066-.729.036-.282.038-.567.088-.848.021-.12.013-.243.029-.366.035-.298.04-.601.069-.901.035-.399.092-.797.118-1.198.021-.311.053-.62.071-.931.022-.414.03-.83.067-1.241.036-.428-.011-.846-.046-1.267-.017-.178-.135-.32-.244-.46-.315-.408-.631-.817-.944-1.226a1.304 1.304 0 0 0-.942-.526.145.145 0 0 1-.059-.012c-.018-.009-.034-.025-.06-.002.107.336.029.674-.001 1.016-.028.298-.083.594-.101.894-.007.101-.048.199-.027.303-.084.167-.082.352-.096.532-.058.152-.054.315-.092.471-.029.121-.049.245-.094.361a.383.383 0 0 1-.188.266 1.57 1.57 0 0 1-.358.177c-.275.093-.545.208-.844.213-.145.002-.271-.057-.401-.097-.305-.092-.597-.214-.827-.446-.028-.027-.05-.065-.109-.049.014.112-.014.208-.109.283a2.956 2.956 0 0 1-.781.423.186.186 0 0 1-.079.007 2.383 2.383 0 0 1-1.208-.399.304.304 0 0 1-.149-.303c.009-.068.002-.137.002-.231-.213.181-.441.153-.646.119a25.192 25.192 0 0 1-1.78-.388c-.105-.026-.141-.074-.149-.178-.011-.169-.019-.343-.081-.512-.031.009-.054.009-.066.021-.231.186-.464.372-.69.563-.049.041-.107.08-.118.155-.02.131-.036.263-.063.394-.056.273-.076.553-.149.825-.084-.363-.167-.727-.253-1.088-.023-.102-.07-.198-.077-.308.209-.213.46-.382.685-.583.203-.182.423-.348.636-.52.26-.212.528-.413.775-.637.211-.192.49-.317.601-.613.067-.177.102-.358.138-.54.064-.305.043-.619.095-.925.02-.119-.031-.231-.035-.346a.148.148 0 0 1-.028-.019c-.254-.198-.496-.146-.771-.009-.439.219-.9.398-1.383.606.245.105.49.111.747.207-.277 0-.521.013-.761-.003a1.796 1.796 0 0 0-.888.166c-.631.292-1.279.544-1.909.838-.295.137-.452.337-.518.632a5.253 5.253 0 0 0-.099.675c-.067.917-.023 1.834-.023 2.751-.001.443-.085.867-.177 1.294a7.694 7.694 0 0 0-.111.688c-.025.186.076.29.199.383.049.037.095.076.14.118.269.256.526.521.804.769 1.003.896 1.925 1.876 2.876 2.826.189.188.397.368.534.601.183.309.282.655.371 1 .081.306.132.62.187.933a.366.366 0 0 1-.034.223c-.1.183-.09.386-.106.579-.018.198-.054.396-.039.597.02.268-.049.532-.031.8h-.962c.001-.395-.004-.791.029-1.187.023-.283.047-.567.132-.838a.504.504 0 0 0 .02-.241c-.084-.393-.165-.787-.309-1.166-.041-.111-.052-.237-.145-.327-.261-.255-.503-.531-.76-.788-.736-.734-1.451-1.49-2.231-2.178-.34-.299-.653-.628-.979-.942-.023-.022-.041-.045-.065-.065-.263-.22-.536-.431-.62-.791v-.311c.023-.007.029-.024.029-.046-.001-.256.069-.5.118-.748.054-.263.121-.528.127-.792.015-.851.006-1.705.005-2.556 0-.042.007-.088-.011-.122-.107-.207-.052-.393.063-.573.017-.025.04-.044.041-.08.01-.279.08-.549.155-.816.104-.364.281-.677.644-.831.147-.061.15-.155.122-.268-.063-.275-.137-.547-.204-.821-.045-.189-.102-.381-.057-.573.108-.45.28-.875.56-1.246.147-.193.285-.4.492-.541.243-.166.529-.207.806-.278.285-.073.576-.112.866-.149.196-.026.411-.031.574.093.112.086.221.188.324.291.108.11.126.107.215-.028.133-.207.3-.374.554-.421.213-.039.432-.055.645-.1.127-.026.26.003.38-.058h.496c.006.008.012.023.017.023.272-.001.468.16.639.341.293.316.544.665.745 1.047.03.06.057.124.146.105.216-.046.434-.093.65-.136.209-.041.42-.098.628 0 .152.072.281.175.413.281.26.208.509.428.716.689.115.146.229.267.465.196a2.992 2.992 0 0 1 1.055-.134.465.465 0 0 1 .313.132c.031.028.058.06.09.083.309.21.587.451.809.751.042.054.105.072.169.093.162.05.332.079.487.157.261.135.42.372.602.583.312.367.595.757.896 1.134.196.249.345.513.38.841.01.104-.022.224.051.32v1.704c-.041.015-.029.05-.03.078-.008.2-.013.398-.025.598-.025.376-.065.75-.097 1.127-.036.446-.079.892-.124 1.336-.031.329-.059.658-.093.987-.036.378-.082.756-.124 1.136-.049.458-.113.916-.189 1.369-.072.431-.17.849-.501 1.173-.092.089-.123.209-.122.348.006 1.042.003 2.085.003 3.128-.132.002-.255.002-.38.002zm-6.234-17.125c.029.107-.027.19-.026.285.006 1.664-.019 3.33.03 4.995v.015c-.002.057.019.088.07.121.182.112.378.191.579.256.25.081.501.137.749-.001.162-.09.323-.184.486-.277.023-.34.057-.68.065-1.022.01-.241.034-.48.045-.721.007-.167.001-.338.023-.504.054-.405.06-.814.085-1.22.016-.26.058-.521.036-.783-.003-.032.021-.061.021-.087 0-.159.042-.313-.077-.467-.226-.291-.524-.501-.79-.745-.075-.068-.165-.089-.28-.058-.189.053-.388.067-.579.111-.14.029-.287.037-.437.102zm3.049 1.068c-.176.476-.221.969-.283 1.458-.026.206-.046.414-.073.62-.03.247-.06.493-.08.74-.021.285-.047.57-.075.853-.019.179.04.272.167.363.207.147.446.209.683.274.068.019.13.073.213.035.219-.103.449-.17.683-.232.062-.017.107-.045.122-.113.019-.084.051-.165.061-.25.047-.361.114-.719.164-1.079.056-.386.099-.773.155-1.158.02-.141.016-.283.047-.424a.52.52 0 0 0-.081-.436c-.22-.302-.505-.527-.804-.74-.057-.04-.118-.039-.188-.023-.228.055-.45.136-.711.112zm-5.603 3.498c.639.134 1.269.327 1.929.385l.01-.071c.012-.897-.017-1.793.029-2.69.025-.508-.044-1.017-.03-1.526.011-.356 0-.713.002-1.07a.363.363 0 0 0-.052-.203 5.389 5.389 0 0 0-.613-.828.377.377 0 0 0-.311-.13c-.32.009-.633.086-.955.103a.334.334 0 0 0-.253.147 33.84 33.84 0 0 1-.422.574c-.024.033-.035.065-.027.099.069.317.084.643.135.961a.09.09 0 0 0 .074-.002c.272-.12.542-.247.816-.359.119-.048.228-.125.369-.129.296-.007.521.144.745.301a.44.44 0 0 1 .191.324c.03.247.01.487 0 .732a5.957 5.957 0 0 1-.165 1.081c-.052.206-.127.418-.286.557-.402.349-.824.675-1.239 1.009-.037.029-.062.055-.048.102.054.204.035.421.101.633zm-1.028-4.025c-.004-.196-.041-.364-.071-.532-.047-.252-.074-.51-.187-.745-.099-.209-.293-.34-.438-.513-.087-.105-.191-.116-.302-.095-.367.071-.729.148-1.092.238a.301.301 0 0 0-.174.11c-.229.291-.44.594-.561.947-.053.151-.091.305-.04.474.082.264.138.536.209.804.034.133.046.275.117.404.841-.402 1.703-.726 2.539-1.092z"
    opacity=".8"
  />
  <path
    d="M12.763 19.405c.071-.272.093-.552.147-.825.027-.131.045-.262.063-.394.011-.075.07-.115.119-.155.227-.19.459-.377.69-.563.013-.012.035-.012.066-.021.062.169.068.342.08.512.009.104.044.151.15.178a25.07 25.07 0 0 0 1.78.388c.205.035.434.063.646-.119 0 .094.007.163-.001.231a.311.311 0 0 0 .148.303c.367.241.77.377 1.21.399a.205.205 0 0 0 .078-.007 2.95 2.95 0 0 0 .78-.423c.098-.075.124-.171.111-.283.058-.017.077.021.107.049.231.232.522.354.827.446.133.04.257.1.402.097.299-.004.568-.12.844-.213.127-.043.245-.103.357-.177a.388.388 0 0 0 .188-.266c.088-.022.128.055.18.097.185.151.365.307.545.462.033.028.062.059.036.132l-.867-.22a5.3 5.3 0 0 1-.807.987c-.161.153-.349.136-.542.11-.229-.03-.456-.039-.672.051-.065.234-.028.472-.046.705-.031.454-.024.913-.068 1.365-.024.237-.135.467-.213.699-.152.433-.306.864-.464 1.294-.016.041-.028.108-.119.075-.008-.128.023-.264.036-.396.026-.235.059-.47.089-.705.027-.205.038-.412.084-.614a.396.396 0 0 0-.036-.282c-.184-.35-.39-.688-.592-1.027-.037-.063-.079-.128-.086-.205-.221-.062-.446-.043-.671-.042-.376.002-.749-.042-1.125-.037a.56.56 0 0 1-.433-.185 4.727 4.727 0 0 0-1.577-1.096c-.155-.066-.304-.151-.472-.236l-1.682 1.376c-.031-.172.074-.252.127-.345.16-.285.338-.558.515-.83.03-.047.022-.088.024-.132.01-.055-.005-.114.044-.158zM21.744 17.732c.015-.18.013-.364.097-.532.404-.035.81-.036 1.213-.088.063-.008.131-.001.192-.001.05.081-.018.099-.058.114-.411.16-.823.316-1.236.474a.544.544 0 0 1-.208.033z"
  />
  <path
    d="M16.719 13.374c.15-.065.297-.072.439-.104.191-.044.391-.058.579-.111.115-.032.206-.01.281.059.265.244.563.454.789.745.119.154.078.309.076.466 0 .027-.024.056-.021.088.021.263-.018.523-.034.783-.027.406-.033.815-.086 1.22-.023.167-.018.337-.024.505-.01.24-.035.48-.043.721-.011.341-.043.682-.066 1.021-.162.093-.322.188-.487.276-.248.139-.498.083-.749.002a2.66 2.66 0 0 1-.578-.256c-.053-.033-.073-.064-.07-.121.002-.005 0-.01 0-.016-.049-1.665-.024-3.33-.031-4.995-.003-.093.054-.176.025-.283zM19.768 14.442c.262.024.484-.057.71-.11.069-.016.131-.018.188.023.298.213.584.438.803.74a.514.514 0 0 1 .081.435c-.029.141-.026.284-.047.424-.054.385-.1.772-.153 1.158-.051.36-.119.718-.165 1.079-.011.084-.042.166-.06.25-.015.068-.061.096-.124.113-.232.062-.464.13-.683.232-.083.039-.145-.016-.212-.035-.237-.064-.477-.127-.683-.274-.127-.091-.186-.185-.167-.363.028-.283.053-.568.076-.852.019-.247.049-.494.079-.74.027-.206.046-.415.073-.621.063-.49.108-.983.284-1.459zM14.165 17.94c-.066-.212-.047-.429-.103-.634-.013-.047.012-.073.048-.102.415-.334.838-.66 1.239-1.009.159-.139.234-.352.287-.557.087-.355.144-.713.164-1.081.012-.245.03-.485 0-.732a.445.445 0 0 0-.191-.324c-.224-.157-.45-.309-.746-.301-.141.003-.248.081-.367.129-.276.112-.545.238-.817.359a.09.09 0 0 1-.074.002c-.052-.318-.065-.644-.136-.961-.007-.034.002-.066.029-.099.142-.189.281-.382.42-.574a.33.33 0 0 1 .254-.147c.321-.017.634-.094.955-.103a.375.375 0 0 1 .31.13c.229.258.44.529.614.828a.363.363 0 0 1 .052.203c-.002.357.009.713-.002 1.07-.014.51.056 1.018.029 1.526-.046.897-.016 1.793-.028 2.69 0 .015-.005.029-.01.071-.658-.057-1.288-.25-1.927-.384zM13.137 13.915c-.836.366-1.697.69-2.537 1.093-.071-.13-.084-.272-.117-.405-.071-.268-.128-.54-.209-.804-.051-.169-.013-.322.04-.474.12-.354.332-.656.56-.947a.307.307 0 0 1 .175-.11c.362-.09.725-.167 1.092-.238.11-.022.215-.01.302.095.145.173.339.303.438.513.112.236.14.493.187.745.028.168.065.336.069.532z"
  />
  <path
    d="M24.627 12.5V7.542l-4.711 1.125-2.124-3-2.99 1.924-4.553-2.258L8.806 9.75l-4.638.917 1.915 3.028L1.5 9.833l6.5-1L8.416 2l6.386 3.917 4.091-4.25L20.409 7.5l6.257-2.917-.593 7.224 4.76 1.708L26.916 16l1.835-2.305z"
  />
</svg>
