<svg xmlns="http://www.w3.org/2000/svg" fill="none" viewBox="0 0 16 16">
  <g fill="currentColor">
    <path
      d="m7.99995 2.00201c-1.10346 0-1.998.89454-1.998 1.99801 0 1.10346.89454 1.998 1.998 1.998 1.10347 0 1.99801-.89454 1.99801-1.998 0-1.10347-.89454-1.99801-1.99801-1.99801z"
    />
    <path d="m12.5 3c-.8284 0-1.5.67157-1.5 1.5s.6716 1.5 1.5 1.5 1.5-.67157 1.5-1.5-.6716-1.5-1.5-1.5z" />
    <path d="m3.5 3c-.82843 0-1.5.67157-1.5 1.5s.67157 1.5 1.5 1.5 1.5-.67157 1.5-1.5-.67157-1.5-1.5-1.5z" />
    <path
      d="m5.00002 7.99323c.00348-.54931.44985-.99354.99998-.99354h4c.5523 0 1 .44772 1 1.00001v3.0003c0 .1035-.0052.2059-.0155.3067-.0217.2141-.066.4215-.1303.6199-.3904 1.2034-1.52071 2.0734-2.8542 2.0734-1.3462 0-2.4853-.8867-2.86513-2.1079-.08765-.2818-.13487-.5814-.13487-.8921v-3.00031c0-.00215.00001-.00431.00002-.00646z"
    />
    <path
      d="m4 7.99969c0-.36428.09739-.70582.26756-1h-2.26756c-.55228 0-1 .44772-1 1v2.50031c0 1.3807 1.11929 2.5 2.5 2.5.33112 0 .64721-.0644.93643-.1813-.27903-.5456-.43643-1.1638-.43643-1.8187z"
    />
    <path
      d="m12 7.9997v3.0003c0 .6549-.1574 1.2731-.4364 1.8187.2892.1169.6053.1813.9364.1813 1.3807 0 2.5-1.1193 2.5-2.5v-2.50031c0-.55228-.4477-1-1-1h-2.2676c.1702.29418.2676.63572.2676 1.00001z"
    />
  </g>
</svg>
