<svg xmlns="http://www.w3.org/2000/svg" viewBox="0 0 40 40">
  <path
    fill-rule="evenodd"
    d="M21.717 5.608h-4.384c-1.296 0-2.65.65-4.183 1.387-1.996.957-4.292 2.06-7.15 2.06v12.727c3.79 0 8.099 4.184 8.754 4.95.32.373 1.313.824 2.437 1.336 1.174.534 2.493 1.134 3.34 1.78.485.37 1.526 1.233 2.127 2.171.157.247.297.416.417.563.276.335.453.551.528 1.293.196 1.952 2.613 1.027 3.245-.237.352-.703.632-2.527.243-3.435 0 0-.875-2.25-2.138-3.514-.581-.581-1.119-.949-1.57-1.257-.528-.361-.937-.641-1.157-1.089h.018l-.95-1.832-.049-.498c-.144-1.474-.956-2.975-1.978-4.19-1.03-1.225-2.194-2.068-2.942-2.302 0 0-.411-.3-.27-.655.142-.354.574-.32.574-.32 1.013.318 2.33 1.326 3.419 2.62.993 1.181 1.536 2.479 1.746 3.205.21.727.422 1.51.422 2.072 0 .054.696 1.239 1.086 1.9h1.092c-.327-.226-1.113-.929-1.113-2.041 0-1.133.459-1.781.905-2.337l-.003-.003c-.476-.39-1.202-.983-1.33-1.815-.15-.976.037-2.709.78-2.709-.678 0-1.261-.662-1.407-2.165l-.02-.13a2.609 2.609 0 0 1 1.075-2.528c-.898-.288-1.781-1.255-1.934-2.25-.159-1.04-.074-2.033.37-2.757Zm1.588 0h.067c.096-.026.194-.047.294-.062l3.366-.516a2.568 2.568 0 0 1 2.928 2.15l.01.061a2.564 2.564 0 0 1-.673 2.154l.27-.042a2.61 2.61 0 0 1 2.975 2.184l.02.13c.12.784-.122 1.54-.602 2.098 1.302.06 2.346 1.125 2.542 2.409.159 1.034-.24 1.855-.799 2.418a3.545 3.545 0 0 1-.972.69c1.09.146 2.176.792 2.16 2.308-.024 2.25-1.652 2.764-2.665 2.753h-6.74a8.95 8.95 0 0 1-.44-.413c-.501-.495-.899-1.133-.86-1.628.04-.496.113-1.063.54-1.558.075-.087.153-.153.226-.214.17-.143.309-.26.309-.565 0-.399-.339-.645-.689-.9-.34-.249-.692-.505-.756-.918-.184-1.202.37-2.077.915-2.29.543-.212.694-1.274-.32-1.274-.453 0-1.13-.288-1.175-1.465l-.02-.13c-.133-.866.587-1.64 1.195-1.733 1.104-.17.835-1.648-.246-1.482-.604.092-1.678-.719-1.807-1.563-.193-1.256.148-2.277.947-2.602Z"
    clip-rule="evenodd"
  />
</svg>
