<svg xmlns="http://www.w3.org/2000/svg" viewBox="0 0 40 40">
  <path
    fill-rule="evenodd"
    d="M19.175 34.392h4.383c1.296 0 2.651-.65 4.184-1.387 1.995-.957 4.291-2.06 7.15-2.06V18.218c-3.791 0-8.1-4.184-8.755-4.95-.32-.373-1.312-.824-2.436-1.336-1.175-.534-2.494-1.134-3.34-1.78-.486-.37-1.526-1.232-2.127-2.171-.158-.247-.297-.416-.418-.563-.275-.335-.453-.551-.527-1.293-.196-1.952-2.614-1.027-3.246.237-.351.703-.631 2.527-.243 3.435 0 0 .875 2.25 2.139 3.514.58.581 1.118.949 1.569 1.257.528.361.938.641 1.158 1.089h-.018l.95 1.832.048.498c.144 1.474.956 2.975 1.979 4.19 1.03 1.225 2.194 2.068 2.942 2.302 0 0 .41.3.27.655-.142.354-.575.32-.575.32-1.013-.318-2.33-1.326-3.418-2.62-.994-1.181-1.537-2.479-1.747-3.205-.209-.727-.421-1.51-.421-2.072 0-.054-.696-1.239-1.087-1.9h-1.091c.326.226 1.112.929 1.112 2.041 0 1.133-.458 1.781-.905 2.337l.004.003c.476.39 1.202.983 1.33 1.815.149.976-.038 2.709-.78 2.709.677 0 1.26.662 1.407 2.165l.02.13a2.61 2.61 0 0 1-1.076 2.528c.898.288 1.782 1.255 1.934 2.25.16 1.04.074 2.033-.37 2.757Zm-1.588 0h-.068a2.602 2.602 0 0 1-.293.062l-3.367.516a2.568 2.568 0 0 1-2.928-2.15l-.01-.061a2.564 2.564 0 0 1 .673-2.154l-.27.042a2.61 2.61 0 0 1-2.975-2.184l-.02-.13c-.12-.784.123-1.54.603-2.098-1.303-.06-2.346-1.125-2.543-2.409-.159-1.034.241-1.855.799-2.418.292-.295.632-.526.972-.69-1.09-.146-2.176-.792-2.16-2.308.024-2.25 1.653-2.764 2.665-2.753h6.74c.104.089.248.222.441.413.5.495.898 1.133.859 1.628-.04.496-.112 1.063-.54 1.558-.075.087-.153.153-.225.214-.17.143-.31.26-.31.565 0 .399.339.645.69.9.34.249.692.505.755.918.184 1.202-.37 2.077-.914 2.29-.544.212-.695 1.274.32 1.274.452 0 1.13.288 1.175 1.465l.02.13c.132.866-.588 1.64-1.196 1.733-1.104.17-.834 1.648.246 1.482.604-.092 1.678.719 1.808 1.563.192 1.256-.149 2.277-.947 2.602Z"
    clip-rule="evenodd"
  />
</svg>
